<svg width="1801" height="423" viewBox="0 0 1801 423" fill="none" xmlns="http://www.w3.org/2000/svg">
<path d="M10.9697 419.9C10.9697 193.57 194.45 10.0898 420.78 10.0898C647.11 10.0898 830.59 193.57 830.59 419.9" stroke="#FF5757" stroke-width="20" stroke-miterlimit="10"/>
<path d="M45.1201 419.9C45.1201 212.43 213.31 44.2402 420.78 44.2402C628.25 44.2402 796.44 212.43 796.44 419.9" stroke="#FF8B00" stroke-width="20" stroke-miterlimit="10"/>
<path d="M79.2695 419.9C79.2695 231.29 232.17 78.3896 420.78 78.3896C609.39 78.3896 762.29 231.29 762.29 419.9" stroke="#FFFF00" stroke-width="20" stroke-miterlimit="10"/>
<path d="M113.42 419.9C113.42 250.15 251.03 112.54 420.78 112.54C590.53 112.54 728.14 250.15 728.14 419.9" stroke="#13FF00" stroke-width="20" stroke-miterlimit="10"/>
<path d="M147.57 419.899C147.57 269.009 269.89 146.689 420.78 146.689C571.67 146.689 693.99 269.009 693.99 419.899" stroke="#00FFB6" stroke-width="20" stroke-miterlimit="10"/>
<path d="M181.72 419.9C181.72 287.87 288.75 180.84 420.78 180.84C552.81 180.84 659.84 287.87 659.84 419.9" stroke="#008CFF" stroke-width="20" stroke-miterlimit="10"/>
<path d="M215.87 419.9C215.87 306.73 307.61 214.99 420.78 214.99C533.95 214.99 625.69 306.73 625.69 419.9" stroke="#4743FF" stroke-width="20" stroke-miterlimit="10"/>
<path d="M250.03 419.9C250.03 325.59 326.48 249.14 420.79 249.14C515.1 249.14 591.55 325.59 591.55 419.9" stroke="#742CFF" stroke-width="20" stroke-miterlimit="10"/>
<path d="M943.64 358.38C941.5 348.49 935.52 343.601 925.81 343.601C912.04 343.601 904.03 354.03 904.03 371.97C904.03 389.91 912.38 400.45 926.37 400.45C932.58 400.45 937.88 397.951 941.15 393.601C943.07 390.991 943.86 388.82 944.54 384.25L968.01 387.621C965.87 396.861 963.38 402.19 958.64 407.51C951.64 415.23 940.7 419.361 927.04 419.361C913.38 419.361 901.65 415.23 893.64 407.4C885.29 399.25 880.55 386.53 880.55 371.96C880.55 357.39 885.29 344.68 894.2 336.2C901.99 328.92 913.38 324.9 926.59 324.9C941.15 324.9 952.54 329.68 959.88 339.14C963.49 343.6 965.41 347.621 966.88 354.031L943.63 358.38H943.64Z" fill="black"/>
<path d="M1001.3 350.99C1000.62 355.45 1000.4 359.79 1000.4 367.4V400.88C1000.4 406.75 1000.74 412.62 1001.3 417.29H977.72C978.4 411.96 978.62 407.83 978.62 400.88V367.4C978.62 360.34 978.39 355.88 977.72 350.99H1001.3ZM1000.96 326.86V343.17H978.05V326.86H1000.96Z" fill="black"/>
<path d="M1033.12 350.99C1033.35 353.6 1033.91 355.881 1035.26 360.341L1045.75 394.14C1045.86 394.36 1045.98 394.791 1046.2 395.341C1046.54 396.431 1046.54 396.54 1047.1 398.38C1047.44 397.4 1047.55 396.86 1047.66 396.42C1047.77 396.2 1047.89 395.881 1048 395.331C1048.23 394.791 1048.34 394.351 1048.45 394.031L1058.94 360.331C1060.18 356.311 1060.86 353.37 1061.08 350.98H1086.13C1083.87 355.87 1082.97 357.941 1081.5 361.521L1062.54 408.15C1060.62 412.82 1060.06 414.561 1059.49 417.281H1034.78C1034.22 414.561 1033.65 412.82 1031.73 408.15L1012.77 361.521C1012.09 360.001 1010.51 356.52 1008.03 350.98H1033.08L1033.12 350.99Z" fill="black"/>
<path d="M1116.4 350.99C1115.72 355.45 1115.5 359.79 1115.5 367.4V400.88C1115.5 406.75 1115.84 412.62 1116.4 417.29H1092.82C1093.5 411.96 1093.72 407.83 1093.72 400.88V367.4C1093.72 360.34 1093.49 355.88 1092.82 350.99H1116.4ZM1116.06 326.86V343.17H1093.15V326.86H1116.06Z" fill="black"/>
<path d="M1174.52 375.12C1173.5 371.86 1172.83 370.34 1171.36 368.71C1169.1 366.21 1165.94 364.91 1161.88 364.91C1152.74 364.91 1147.32 371.87 1147.32 383.82C1147.32 395.77 1153.08 403.17 1162.1 403.17C1166.5 403.17 1170.56 401.43 1172.82 398.39C1173.84 396.98 1174.4 395.89 1174.85 393.39L1195.61 396.54C1194.37 401.21 1193.01 404.15 1190.87 407.3C1185.23 415.34 1174.96 419.8 1161.87 419.8C1151.04 419.8 1141.78 416.54 1135.58 410.45C1129.03 404.26 1125.42 394.69 1125.42 384.04C1125.42 362.3 1139.64 348.39 1161.64 348.39C1179.02 348.39 1191.09 356.65 1194.82 371.11L1174.51 375.13L1174.52 375.12Z" fill="black"/>
<path d="M1253.62 400.879C1253.62 407.399 1253.85 412.18 1254.52 417.29H1229.58C1230.26 412.18 1230.48 407.719 1230.48 400.879V346.1H1217.16C1210.05 346.1 1208.13 346.21 1200.12 346.86V326.1C1203.84 326.53 1210.05 326.86 1216.93 326.86H1266.36C1274.26 326.86 1278.77 326.64 1283.96 326.1V346.86C1278.88 346.32 1274.48 346.1 1266.36 346.1H1253.61V400.879H1253.62Z" fill="black"/>
<path d="M1309.48 390.23C1310.61 399.03 1315.91 403.71 1324.83 403.71C1329.34 403.71 1333.29 402.3 1336.23 399.69C1337.92 398.17 1338.71 396.97 1339.62 394.15L1359.25 399.48C1356.65 405.13 1354.96 407.63 1351.8 410.68C1345.37 416.77 1336.34 419.92 1325.17 419.92C1314 419.92 1305.42 416.88 1298.99 410.68C1292.33 404.16 1288.72 394.92 1288.72 384.16C1288.72 362.64 1303.05 348.4 1324.6 348.4C1342.2 348.4 1354.5 357.641 1358.45 373.831C1359.35 377.311 1359.8 381.871 1360.14 388.071C1360.14 388.511 1360.14 389.16 1360.25 390.24H1309.47L1309.48 390.23ZM1338.82 375.23C1337.24 368.27 1332.39 364.581 1324.6 364.581C1316.81 364.581 1311.74 368.06 1309.82 375.23H1338.82Z" fill="black"/>
<path d="M1415.44 375.12C1414.42 371.86 1413.75 370.34 1412.28 368.71C1410.02 366.21 1406.86 364.91 1402.8 364.91C1393.66 364.91 1388.24 371.87 1388.24 383.82C1388.24 395.77 1394 403.17 1403.02 403.17C1407.42 403.17 1411.48 401.43 1413.74 398.39C1414.76 396.98 1415.32 395.89 1415.77 393.39L1436.53 396.54C1435.29 401.21 1433.93 404.15 1431.79 407.3C1426.15 415.34 1415.88 419.8 1402.79 419.8C1391.96 419.8 1382.7 416.54 1376.5 410.45C1369.95 404.26 1366.34 394.69 1366.34 384.04C1366.34 362.3 1380.56 348.39 1402.56 348.39C1419.94 348.39 1432.01 356.65 1435.73 371.11L1415.42 375.13L1415.44 375.12Z" fill="black"/>
<path d="M1445.35 417.3C1446.03 412.19 1446.25 407.63 1446.25 400.89V343.28C1446.25 335.78 1446.02 331.11 1445.35 326.87H1468.71C1468.03 331.65 1467.81 335.57 1467.81 343.28V354.8C1467.81 355.67 1467.7 357.41 1467.7 358.39C1474.47 352.09 1481.58 349.37 1491.17 349.37C1498.84 349.37 1504.94 351.43 1509.11 355.46C1513.62 359.81 1515.54 365.13 1515.54 373.72V401C1515.54 407.3 1515.88 412.74 1516.44 417.3H1492.97C1493.65 412.08 1493.87 407.52 1493.87 400.89V378.61C1493.87 374.26 1493.42 372.3 1492.06 370.46C1490.48 368.5 1488 367.53 1484.84 367.53C1478.41 367.53 1472.31 371.66 1467.8 378.83V400.9C1467.8 407.1 1468.03 411.66 1468.7 417.31H1445.34L1445.35 417.3Z" fill="black"/>
<path d="M1583.47 417.3C1575.68 417.3 1571.06 417.41 1566.77 417.63C1567.45 413.83 1567.67 409.04 1567.67 401.76V344.37C1567.67 336.76 1567.44 332.09 1566.77 326.87H1591.37C1590.58 332.52 1590.47 335.57 1590.47 344.04V397.95H1617.78C1627.37 397.95 1631.21 397.84 1636.51 397.19V418.06C1632.33 417.52 1626.81 417.3 1617.78 417.3H1583.48H1583.47Z" fill="black"/>
<path d="M1688.42 371.86C1688.42 366.64 1685.15 364.25 1677.7 364.25C1670.25 364.25 1666.64 366.53 1664.95 371.86L1643.4 368.49C1645.66 362.08 1648.14 358.6 1652.88 355.34C1658.97 351.21 1667.32 349.14 1678.27 349.14C1686.62 349.14 1694.75 350.66 1699.15 352.94C1706.37 356.75 1709.53 362.72 1709.53 372.51V401.86C1709.53 408.49 1709.76 412.4 1710.32 417.29H1688.43V412.29C1682.11 416.96 1675.79 418.81 1666.54 418.81C1657.96 418.81 1651.53 416.85 1647.02 412.83C1642.96 409.24 1640.81 404.03 1640.81 398.05C1640.81 391.2 1643.63 385.77 1649.05 382.18C1654.81 378.27 1662.37 375.98 1672.52 375.12C1676.92 374.69 1680.31 374.58 1688.43 374.36V371.86H1688.42ZM1688.42 388.27C1678.38 388.49 1673.52 389.03 1668.9 390.44C1664.84 391.74 1662.35 394.46 1662.35 397.61C1662.35 401.52 1665.74 403.81 1671.6 403.81C1676.23 403.81 1681.31 402.18 1684.35 399.68C1686.95 397.51 1688.41 394.57 1688.41 391.31V388.27H1688.42Z" fill="black"/>
<path d="M1722.27 417.3C1722.95 412.08 1723.17 407.52 1723.17 400.24V343.94C1723.17 336 1722.94 332.09 1722.27 326.87H1745.18C1744.62 332.09 1744.39 336 1744.39 343.94V353.07C1744.39 354.7 1744.39 355.68 1744.28 357.2C1750.94 351.55 1758.16 349.05 1767.53 349.05C1788.07 349.05 1800.03 361.66 1800.03 383.18C1800.03 394.81 1796.53 404.16 1789.99 410.79C1784.12 416.44 1776.45 419.27 1766.52 419.27C1757.15 419.27 1751.62 417.42 1744.29 411.55C1744.29 411.88 1744.4 413.29 1744.4 413.83V417.31H1722.28L1722.27 417.3ZM1762.22 365.56C1751.95 365.56 1744.62 373.17 1744.62 383.71C1744.62 394.25 1752.07 402.62 1761.77 402.62C1771.47 402.62 1778.13 394.9 1778.13 383.38C1778.13 371.86 1772.15 365.55 1762.22 365.55V365.56Z" fill="black"/>
<path d="M64.1393 421.9C64.1393 421.9 34.3197 230.66 160.79 230.66C287.26 230.66 257.44 421.9 257.44 421.9" fill="white"/>
<path d="M64.1393 421.9C64.1393 421.9 34.3197 230.66 160.79 230.66C287.26 230.66 257.44 421.9 257.44 421.9" stroke="black" stroke-width="8.96" stroke-miterlimit="10"/>
<path d="M262.68 421.9C262.68 421.9 241.851 230.66 330.191 230.66C418.531 230.66 397.7 421.9 397.7 421.9" fill="white"/>
<path d="M262.68 421.9C262.68 421.9 241.851 230.66 330.191 230.66C418.531 230.66 397.7 421.9 397.7 421.9" stroke="black" stroke-width="8.96" stroke-miterlimit="10"/>
<path d="M403.76 421.9C403.76 421.9 380.781 275.39 478.241 275.39C575.701 275.39 552.72 421.9 552.72 421.9" fill="white"/>
<path d="M403.76 421.9C403.76 421.9 380.781 275.39 478.241 275.39C575.701 275.39 552.72 421.9 552.72 421.9" stroke="black" stroke-width="8.96" stroke-miterlimit="10"/>
<path d="M560.74 421.9C560.74 421.9 530.92 175.66 657.39 175.66C783.86 175.66 754.04 421.9 754.04 421.9" fill="white"/>
<path d="M560.74 421.9C560.74 421.9 530.92 175.66 657.39 175.66C783.86 175.66 754.04 421.9 754.04 421.9" stroke="black" stroke-width="8.96" stroke-miterlimit="10"/>
<path d="M124.38 273.35C123.4 281.74 124.75 290.39 128.26 298.08Z" fill="white"/>
<path d="M118.41 273.35C117.46 283.01 119.26 292.23 123.1 301.09C126.15 308.12 136.45 302.05 133.42 295.06C130.42 288.15 129.62 280.79 130.36 273.35C131.11 265.7 119.16 265.76 118.41 273.35Z" fill="black"/>
<path d="M176.92 270.25V291.84C176.92 299.53 188.87 299.54 188.87 291.84V270.25C188.87 262.56 176.92 262.55 176.92 270.25Z" fill="black"/>
<path d="M122.97 328.79C124.15 339.81 132.6 349.7 143.3 352.59C154 355.48 166.28 351.19 172.85 342.25C177.39 336.07 179.19 328.25 179.57 320.59" fill="white"/>
<path d="M118.651 329.98C120.901 346.63 136.46 359.49 153.31 357.78C173.07 355.78 182.89 338.92 184.05 320.59C184.41 314.83 175.45 314.85 175.09 320.59C174.22 334.39 167.141 347.92 151.871 348.95C139.091 349.81 128.941 339.85 127.291 327.6C126.521 321.91 117.891 324.33 118.651 329.98Z" fill="black"/>
<path d="M308.411 257.92C307.601 264.46 308.331 271.18 310.531 277.39Z" fill="white"/>
<path d="M302.44 257.919C301.68 265.039 302.499 272.189 304.769 278.979C307.199 286.229 318.74 283.12 316.29 275.8C314.31 269.9 313.72 264.099 314.38 257.909C314.72 254.699 311.39 251.939 308.41 251.939C304.89 251.939 302.78 254.689 302.44 257.909V257.919Z" fill="black"/>
<path d="M337.57 253.7C339.1 260.47 339.87 267.42 339.86 274.37Z" fill="white"/>
<path d="M331.81 255.29C333.18 261.6 333.84 267.91 333.89 274.37C333.95 282.05 345.89 282.07 345.84 274.37C345.78 266.87 344.92 259.44 343.34 252.12C341.71 244.61 330.191 247.79 331.821 255.3L331.81 255.29Z" fill="black"/>
<path d="M305.24 300.07C317.56 300.07 329.89 300.06 342.21 300.05C343.2 300.05 344.27 300.07 345.07 300.65C346.48 301.67 346.36 303.76 346.09 305.48C345.38 310.07 344.65 314.72 342.7 318.93C340.75 323.14 337.38 326.92 332.94 328.28C329.75 329.25 326.329 328.91 323.019 328.55C316.669 327.86 309.48 326.62 306.03 321.24C302.44 315.63 304.669 308.24 307.309 302.12" fill="white"/>
<path d="M305.241 304.55C314.971 304.55 324.7 304.55 334.43 304.54C335.37 304.54 341.78 303.91 342.21 304.54C341.23 303.14 341.28 307.39 341.22 307.75C340.49 311.94 339.57 316.32 337.02 319.83C332.31 326.29 322.77 324.89 315.96 322.78C306.2 319.77 308.491 310.9 311.651 303.34C313.871 298.03 305.2 295.71 303.01 300.96C298.58 311.58 297.82 324.49 309.92 330.06C319.19 334.32 333.48 335.74 341.42 328.35C345.6 324.46 347.921 319.05 349.191 313.57C350.271 308.91 352.601 301.25 348.241 297.52C345.961 295.57 343.1 295.64 340.27 295.61C336.38 295.56 332.49 295.61 328.6 295.61H305.25C299.49 295.62 299.48 304.58 305.25 304.58L305.241 304.55Z" fill="black"/>
<path d="M448.38 296.89C450.52 301.8 451.85 307.07 452.29 312.41Z" fill="white"/>
<path d="M442.62 298.47C444.5 302.92 445.86 307.58 446.32 312.4C446.63 315.61 448.85 318.37 452.29 318.37C455.28 318.37 458.57 315.63 458.26 312.4C457.69 306.46 456.45 300.8 454.13 295.29C452.88 292.32 450.18 290.18 446.78 291.12C443.98 291.89 441.35 295.48 442.61 298.47H442.62Z" fill="black"/>
<path d="M470.74 286.72C473.6 291.99 476.01 297.49 477.96 303.16Z" fill="white"/>
<path d="M465.58 289.74C468.18 294.59 470.381 299.56 472.191 304.75C474.711 311.96 486.25 308.86 483.71 301.57C481.56 295.42 478.97 289.45 475.89 283.71C472.26 276.93 461.941 282.96 465.571 289.74H465.58Z" fill="black"/>
<path d="M457.61 336.8C463.46 340.84 469.31 344.88 475.16 348.92C478.55 339.51 481.95 330.1 485.34 320.7" fill="white"/>
<path d="M455.349 340.67C461.199 344.71 467.05 348.75 472.9 352.79C475.46 354.56 478.57 352.62 479.48 350.11C482.87 340.7 486.27 331.29 489.66 321.89C491.62 316.46 482.969 314.12 481.019 319.51C477.629 328.92 474.23 338.33 470.84 347.73C473.03 346.84 475.23 345.95 477.42 345.05C471.57 341.01 465.72 336.97 459.87 332.93C455.11 329.65 450.629 337.41 455.349 340.67Z" fill="black"/>
<path d="M615.94 219.87V233.24C615.94 240.93 627.89 240.94 627.89 233.24V219.87C627.89 212.18 615.94 212.17 615.94 219.87Z" fill="black"/>
<path d="M671.35 213.689C671.99 217.809 672.64 221.93 673.28 226.05Z" fill="white"/>
<path d="M665.59 215.28C666.23 219.4 666.88 223.519 667.52 227.639C668.02 230.829 672.011 232.6 674.871 231.81C678.271 230.88 679.54 227.659 679.04 224.459C678.4 220.339 677.751 216.22 677.111 212.1C676.611 208.91 672.62 207.139 669.76 207.929C666.36 208.859 665.09 212.08 665.59 215.28Z" fill="black"/>
<path d="M608.481 255.2C636.541 260.1 665.21 261.51 693.62 259.4C695.16 259.29 696.94 259.25 697.97 260.4C699.17 261.73 698.66 263.82 698.08 265.51C695.08 274.26 691.861 283.35 685.201 289.76C680.831 293.96 675.27 296.7 669.64 298.93C652.04 305.89 631.06 308.16 614.88 298.34C611.87 296.51 609.01 294.2 607.38 291.08C605.68 287.81 605.49 283.99 605.5 280.3C605.52 271.79 606.39 263.27 608.12 254.93" fill="white"/>
<path d="M607.29 259.521C627.48 262.981 647.91 264.851 668.4 264.831C673.58 264.831 678.759 264.701 683.929 264.471C686.519 264.351 689.1 264.191 691.69 264.031C692.73 263.941 693.769 263.881 694.809 263.841C694.199 262.581 693.849 262.741 693.769 264.331C692.649 265.791 692.23 268.781 691.58 270.521C690.75 272.721 689.86 274.891 688.8 276.991C686.9 280.771 684.6 284.3 681.44 287.16C674.99 292.98 665.85 296.05 657.57 298.17C648.95 300.38 639.75 301.33 630.95 299.65C623.1 298.16 611.899 294.38 610.269 285.43C608.639 276.48 610.66 265.191 612.46 256.121C613.58 250.491 604.95 248.081 603.82 253.741C600.82 268.831 596.12 290.64 610.75 300.95C624.42 310.59 642.64 310.91 658.36 307.2C674.71 303.33 689.869 295.851 697.259 280.041C699.789 274.631 705.98 263.89 701.87 258.14C700.22 255.84 697.59 254.921 694.83 254.871C689.63 254.771 684.309 255.53 679.099 255.69C655.859 256.43 632.6 254.81 609.69 250.88C604.05 249.91 601.629 258.551 607.309 259.521H607.29Z" fill="black"/>
</svg>
