<svg width="734" height="450" viewBox="0 0 734 450" fill="none" xmlns="http://www.w3.org/2000/svg">
<path d="M11.2598 366.63C11.2598 170.22 170.48 11 366.89 11C563.3 11 722.52 170.22 722.52 366.63" stroke="#FF5757" stroke-width="21.34" stroke-miterlimit="10"/>
<path d="M40.8896 366.631C40.8896 186.591 186.84 40.6406 366.88 40.6406C546.92 40.6406 692.87 186.591 692.87 366.631" stroke="#FF8B00" stroke-width="21.34" stroke-miterlimit="10"/>
<path d="M70.5293 366.63C70.5293 202.96 203.21 70.2705 366.89 70.2705C530.57 70.2705 663.25 202.951 663.25 366.63" stroke="#FFFF00" stroke-width="21.34" stroke-miterlimit="10"/>
<path d="M100.16 366.63C100.16 219.32 219.58 99.9102 366.88 99.9102C514.18 99.9102 633.6 219.33 633.6 366.63" stroke="#13FF00" stroke-width="21.34" stroke-miterlimit="10"/>
<path d="M129.8 366.63C129.8 235.69 235.95 129.54 366.89 129.54C497.83 129.54 603.979 235.69 603.979 366.63" stroke="#00FFB6" stroke-width="21.34" stroke-miterlimit="10"/>
<path d="M159.43 366.63C159.43 252.06 252.31 159.18 366.88 159.18C481.45 159.18 574.33 252.06 574.33 366.63" stroke="#008CFF" stroke-width="21.34" stroke-miterlimit="10"/>
<path d="M189.069 366.63C189.069 268.43 268.68 188.82 366.88 188.82C465.08 188.82 544.689 268.43 544.689 366.63" stroke="#4743FF" stroke-width="21.34" stroke-miterlimit="10"/>
<path d="M218.71 366.63C218.71 284.79 285.05 218.45 366.89 218.45C448.73 218.45 515.069 284.79 515.069 366.63" stroke="#742CFF" stroke-width="21.34" stroke-miterlimit="10"/>
<path d="M93.0498 368.65C93.0498 368.65 69.3796 216.84 169.77 216.84C270.16 216.84 246.489 368.65 246.489 368.65" fill="white"/>
<path d="M93.0498 368.65C93.0498 368.65 69.3796 216.84 169.77 216.84C270.16 216.84 246.489 368.65 246.489 368.65" stroke="black" stroke-width="7.11" stroke-miterlimit="10"/>
<path d="M250.66 368.65C250.66 368.65 234.13 216.84 304.25 216.84C374.37 216.84 357.84 368.65 357.84 368.65" fill="white"/>
<path d="M250.66 368.65C250.66 368.65 234.13 216.84 304.25 216.84C374.37 216.84 357.84 368.65 357.84 368.65" stroke="black" stroke-width="7.11" stroke-miterlimit="10"/>
<path d="M362.649 368.65C362.649 368.65 344.409 252.34 421.779 252.34C499.149 252.34 480.91 368.65 480.91 368.65" fill="white"/>
<path d="M362.649 368.65C362.649 368.65 344.409 252.34 421.779 252.34C499.149 252.34 480.91 368.65 480.91 368.65" stroke="black" stroke-width="7.11" stroke-miterlimit="10"/>
<path d="M487.27 368.65C487.27 368.65 463.599 173.17 563.989 173.17C664.379 173.17 640.71 368.65 640.71 368.65" fill="white"/>
<path d="M487.27 368.65C487.27 368.65 463.599 173.17 563.989 173.17C664.379 173.17 640.71 368.65 640.71 368.65" stroke="black" stroke-width="7.11" stroke-miterlimit="10"/>
<path d="M140.87 250.72C140.09 257.38 141.169 264.25 143.949 270.35Z" fill="white"/>
<path d="M136.13 250.72C135.37 258.39 136.799 265.71 139.859 272.74C142.279 278.32 150.46 273.5 148.05 267.95C145.67 262.46 145.04 256.62 145.62 250.71C146.22 244.64 136.729 244.68 136.139 250.71L136.13 250.72Z" fill="black"/>
<path d="M182.58 248.26V265.4C182.58 271.5 192.06 271.51 192.06 265.4V248.26C192.06 242.16 182.58 242.15 182.58 248.26Z" fill="black"/>
<path d="M139.75 294.73C140.69 303.48 147.39 311.33 155.89 313.62C164.39 315.91 174.13 312.51 179.35 305.41C182.96 300.51 184.38 294.29 184.68 288.21" fill="white"/>
<path d="M136.319 295.67C138.219 309.04 150.58 319.19 164.13 317.7C179.69 315.99 187.269 302.65 188.239 288.21C188.549 283.64 181.43 283.66 181.13 288.21C180.4 299.16 174.85 309.82 162.76 310.72C152.55 311.48 144.57 303.48 143.18 293.78C142.54 289.27 135.679 291.19 136.319 295.67Z" fill="black"/>
<path d="M286.96 238.47C286.32 243.66 286.9 249 288.64 253.93Z" fill="white"/>
<path d="M282.219 238.47C281.619 244.12 282.269 249.8 284.069 255.19C285.999 260.95 295.16 258.48 293.21 252.67C291.64 247.99 291.169 243.38 291.699 238.47C291.969 235.92 289.33 233.73 286.96 233.73C284.17 233.73 282.489 235.91 282.219 238.47Z" fill="black"/>
<path d="M310.109 235.12C311.319 240.5 311.94 246.01 311.93 251.52Z" fill="white"/>
<path d="M305.54 236.38C306.63 241.39 307.15 246.4 307.19 251.52C307.23 257.62 316.72 257.63 316.67 251.52C316.62 245.41 315.94 239.67 314.68 233.85C313.39 227.89 304.24 230.41 305.54 236.37V236.38Z" fill="black"/>
<path d="M284.449 271.93C294.229 271.93 304.019 271.93 313.799 271.92C314.589 271.92 315.429 271.94 316.069 272.4C317.189 273.21 317.09 274.87 316.88 276.23C316.32 279.87 315.739 283.57 314.189 286.91C312.639 290.25 309.969 293.26 306.449 294.33C303.919 295.1 301.21 294.83 298.58 294.54C293.54 293.99 287.829 293.01 285.099 288.74C282.249 284.29 284.019 278.42 286.109 273.56" fill="white"/>
<path d="M284.449 275.491C291.619 275.491 298.799 275.491 305.969 275.481C307.919 275.481 309.889 275.571 311.839 275.481C314.109 275.371 313.869 274.641 313.199 276.851C312.329 279.741 312.249 282.641 310.919 285.431C307.689 292.211 301.05 291.801 294.62 290.361C291.53 289.671 288.149 288.431 287.319 284.981C286.489 281.551 288.239 277.611 289.519 274.511C291.269 270.281 284.39 268.441 282.66 272.621C279.08 281.281 278.619 291.521 288.509 295.871C296.319 299.301 307.789 300.191 314.019 293.471C317.189 290.051 318.749 285.581 319.629 281.081C320.299 277.681 321.619 273.111 318.879 270.261C315.719 266.981 309.059 268.371 304.979 268.371C298.129 268.371 291.279 268.371 284.439 268.381C279.859 268.381 279.859 275.491 284.439 275.491H284.449Z" fill="black"/>
<path d="M398.08 269.4C399.78 273.3 400.829 277.48 401.189 281.72Z" fill="white"/>
<path d="M393.51 270.66C395 274.19 396.079 277.89 396.449 281.72C396.689 284.27 398.46 286.46 401.19 286.46C403.57 286.46 406.18 284.28 405.93 281.72C405.48 277 404.5 272.51 402.65 268.14C401.66 265.78 399.52 264.09 396.82 264.83C394.6 265.44 392.51 268.29 393.51 270.66Z" fill="black"/>
<path d="M415.83 261.33C418.1 265.51 420.02 269.88 421.56 274.38Z" fill="white"/>
<path d="M411.729 263.731C413.789 267.581 415.539 271.521 416.979 275.651C418.979 281.381 428.14 278.911 426.12 273.131C424.42 268.251 422.35 263.511 419.91 258.951C417.03 253.571 408.84 258.351 411.72 263.741L411.729 263.731Z" fill="black"/>
<path d="M405.41 301.091C410.05 304.301 414.7 307.501 419.34 310.711C422.03 303.241 424.73 295.771 427.42 288.311" fill="white"/>
<path d="M403.609 304.16C408.249 307.37 412.9 310.57 417.54 313.78C419.57 315.18 422.04 313.65 422.76 311.65C425.45 304.18 428.15 296.71 430.84 289.25C432.4 284.94 425.529 283.08 423.979 287.36C421.289 294.83 418.589 302.3 415.899 309.76L421.12 307.63C416.48 304.42 411.829 301.22 407.189 298.01C403.409 295.4 399.85 301.56 403.6 304.15L403.609 304.16Z" fill="black"/>
<path d="M531.1 208.26V218.87C531.1 224.97 540.58 224.98 540.58 218.87V208.26C540.58 202.16 531.1 202.15 531.1 208.26Z" fill="black"/>
<path d="M575.08 203.36C575.59 206.63 576.099 209.9 576.609 213.17Z" fill="white"/>
<path d="M570.51 204.62C571.02 207.89 571.53 211.16 572.04 214.43C572.44 216.96 575.61 218.37 577.87 217.74C580.57 217 581.58 214.45 581.18 211.91C580.67 208.64 580.16 205.37 579.65 202.1C579.25 199.57 576.08 198.16 573.82 198.79C571.12 199.53 570.11 202.08 570.51 204.62Z" fill="black"/>
<path d="M525.17 236.31C547.45 240.2 570.21 241.32 592.76 239.65C593.98 239.56 595.39 239.53 596.22 240.44C597.17 241.5 596.77 243.15 596.31 244.5C593.93 251.44 591.38 258.67 586.09 263.75C582.62 267.08 578.21 269.26 573.74 271.03C559.77 276.56 543.11 278.36 530.27 270.56C527.88 269.11 525.61 267.28 524.32 264.79C522.97 262.2 522.821 259.16 522.831 256.23C522.841 249.47 523.541 242.71 524.911 236.09" fill="white"/>
<path d="M524.229 239.74C539.519 242.35 554.979 243.84 570.489 243.95C574.689 243.98 578.89 243.92 583.09 243.75C584.72 243.69 592.04 242.43 592.88 243.55C593.52 244.4 589.659 252.11 589.219 253.02C587.769 256.02 586.019 258.93 583.569 261.23C574.359 269.92 557.429 273.49 545.189 271.95C539.119 271.19 529.589 268.58 527.069 262.24C525.659 258.68 526.349 253.55 526.599 249.79C526.879 245.49 527.49 241.27 528.33 237.05C529.21 232.58 522.359 230.67 521.469 235.16C519.139 247.02 515.339 264.24 526.729 272.46C537.539 280.26 552.099 280.56 564.609 277.63C577.119 274.7 589.43 268.86 595.37 256.62C597.53 252.17 601.729 244.8 599.849 239.87C597.599 233.95 588.779 236.4 584.069 236.6C564.679 237.42 545.26 236.15 526.13 232.89C521.65 232.13 519.729 238.98 524.239 239.75L524.229 239.74Z" fill="black"/>
<path d="M51.5293 403.33C49.9093 395.88 45.4098 392.19 38.0898 392.19C27.7098 392.19 21.6797 400.05 21.6797 413.57C21.6797 427.09 27.9695 435.03 38.5195 435.03C43.1995 435.03 47.1902 433.15 49.6602 429.87C51.1102 427.9 51.7 426.27 52.21 422.83L69.8994 425.37C68.2794 432.33 66.4098 436.35 62.8398 440.36C57.5698 446.18 49.3193 449.29 39.0293 449.29C28.7393 449.29 19.8994 446.18 13.8594 440.28C7.56938 434.14 4 424.55 4 413.58C4 402.61 7.57004 393.02 14.29 386.63C20.16 381.14 28.7492 378.11 38.6992 378.11C49.6692 378.11 58.26 381.71 63.79 388.84C66.51 392.2 67.9596 395.23 69.0596 400.06L51.54 403.34L51.5293 403.33Z" fill="black"/>
<path d="M94.9893 397.76C94.4793 401.12 94.3096 404.4 94.3096 410.13V435.36C94.3096 439.78 94.5693 444.21 94.9893 447.73H77.2197C77.7297 443.72 77.8994 440.6 77.8994 435.36V410.13C77.8994 404.81 77.7297 401.45 77.2197 397.76H94.9893ZM94.7295 379.57V391.86H77.4697V379.57H94.7295Z" fill="black"/>
<path d="M118.97 397.76C119.14 399.73 119.57 401.45 120.59 404.81L128.5 430.29C128.58 430.45 128.67 430.78 128.84 431.19C129.1 432.01 129.1 432.09 129.52 433.48C129.78 432.74 129.859 432.33 129.949 432C130.039 431.84 130.12 431.59 130.21 431.18C130.38 430.77 130.47 430.44 130.55 430.2L138.46 404.81C139.4 401.78 139.91 399.57 140.08 397.76H158.96C157.26 401.45 156.58 403 155.47 405.71L141.18 440.85C139.73 444.37 139.31 445.68 138.88 447.73H120.26C119.83 445.68 119.41 444.37 117.96 440.85L103.67 405.71C103.16 404.56 101.97 401.94 100.1 397.76H118.979H118.97Z" fill="black"/>
<path d="M181.729 397.76C181.219 401.12 181.05 404.4 181.05 410.13V435.36C181.05 439.78 181.309 444.21 181.729 447.73H163.96C164.47 443.72 164.64 440.6 164.64 435.36V410.13C164.64 404.81 164.47 401.45 163.96 397.76H181.729ZM181.47 379.57V391.86H164.21V379.57H181.47Z" fill="black"/>
<path d="M225.529 415.94C224.759 413.48 224.249 412.34 223.149 411.11C221.449 409.23 219.07 408.24 216.01 408.24C209.12 408.24 205.04 413.48 205.04 422.49C205.04 431.5 209.38 437.07 216.18 437.07C219.5 437.07 222.56 435.76 224.26 433.47C225.03 432.4 225.45 431.59 225.79 429.7L241.439 432.08C240.499 435.6 239.48 437.81 237.87 440.19C233.62 446.25 225.88 449.61 216.01 449.61C207.85 449.61 200.869 447.15 196.199 442.56C191.269 437.89 188.55 430.68 188.55 422.65C188.55 406.27 199.27 395.78 215.85 395.78C228.95 395.78 238.05 402.01 240.85 412.9L225.54 415.93L225.529 415.94Z" fill="black"/>
<path d="M285.14 435.36C285.14 440.28 285.309 443.88 285.819 447.73H267.029C267.539 443.88 267.71 440.52 267.71 435.36V394.07H257.68C252.32 394.07 250.88 394.15 244.84 394.64V378.99C247.65 379.32 252.32 379.56 257.51 379.56H294.76C300.71 379.56 304.109 379.4 308.029 378.99V394.64C304.199 394.23 300.89 394.07 294.76 394.07H285.149V435.36H285.14Z" fill="black"/>
<path d="M327.239 427.33C328.089 433.97 332.09 437.49 338.81 437.49C342.21 437.49 345.189 436.42 347.399 434.46C348.679 433.31 349.269 432.41 349.949 430.28L364.75 434.29C362.79 438.55 361.52 440.43 359.14 442.73C354.29 447.32 347.489 449.69 339.069 449.69C330.649 449.69 324.19 447.4 319.34 442.73C314.32 437.81 311.6 430.85 311.6 422.74C311.6 406.52 322.4 395.79 338.64 395.79C351.91 395.79 361.179 402.75 364.149 414.96C364.829 417.58 365.17 421.02 365.43 425.69C365.43 426.02 365.43 426.51 365.52 427.33H327.25H327.239ZM349.35 416.03C348.16 410.79 344.5 408 338.64 408C332.78 408 328.95 410.62 327.5 416.03H349.359H349.35Z" fill="black"/>
<path d="M407.1 415.94C406.33 413.48 405.82 412.34 404.72 411.11C403.02 409.23 400.64 408.24 397.58 408.24C390.69 408.24 386.609 413.48 386.609 422.49C386.609 431.5 390.95 437.07 397.75 437.07C401.07 437.07 404.13 435.76 405.83 433.47C406.6 432.4 407.019 431.59 407.359 429.7L423.01 432.08C422.08 435.6 421.049 437.81 419.439 440.19C415.189 446.25 407.45 449.61 397.58 449.61C389.42 449.61 382.44 447.15 377.77 442.56C372.84 437.89 370.12 430.68 370.12 422.65C370.12 406.27 380.84 395.78 397.42 395.78C410.52 395.78 419.62 402.01 422.42 412.9L407.109 415.93L407.1 415.94Z" fill="black"/>
<path d="M429.63 447.73C430.14 443.88 430.31 440.44 430.31 435.36V391.94C430.31 386.29 430.14 382.77 429.63 379.57H447.229C446.719 383.17 446.55 386.12 446.55 391.94V400.62C446.55 401.28 446.46 402.59 446.46 403.32C451.56 398.57 456.919 396.52 464.149 396.52C469.929 396.52 474.53 398.08 477.67 401.11C481.07 404.39 482.52 408.4 482.52 414.87V435.43C482.52 440.18 482.779 444.28 483.199 447.72H465.51C466.02 443.79 466.189 440.35 466.189 435.35V418.56C466.189 415.28 465.85 413.81 464.83 412.42C463.64 410.95 461.77 410.21 459.39 410.21C454.54 410.21 449.95 413.32 446.55 418.73V435.36C446.55 440.03 446.719 443.47 447.229 447.73H429.63Z" fill="black"/>
<path d="M533.729 447.73C527.859 447.73 524.37 447.81 521.14 447.98C521.65 445.11 521.819 441.51 521.819 436.02V392.77C521.819 387.04 521.65 383.51 521.14 379.58H539.68C539.08 383.84 539 386.13 539 392.52V433.15H559.58C566.81 433.15 569.699 433.07 573.699 432.58V448.31C570.549 447.9 566.39 447.74 559.58 447.74H533.729V447.73Z" fill="black"/>
<path d="M612.819 413.48C612.819 409.55 610.349 407.75 604.739 407.75C599.129 407.75 596.41 409.47 595.13 413.48L578.89 410.94C580.59 406.11 582.459 403.49 586.029 401.03C590.619 397.92 596.92 396.36 605.16 396.36C611.45 396.36 617.58 397.51 620.89 399.23C626.33 402.1 628.71 406.6 628.71 413.98V436.1C628.71 441.1 628.88 444.05 629.31 447.73H612.81V443.96C608.05 447.48 603.29 448.87 596.31 448.87C589.85 448.87 585 447.4 581.6 444.36C578.54 441.66 576.92 437.72 576.92 433.22C576.92 428.06 579.05 423.96 583.13 421.26C587.47 418.31 593.159 416.59 600.819 415.94C604.139 415.61 606.69 415.53 612.81 415.37V413.49L612.819 413.48ZM612.819 425.85C605.249 426.01 601.589 426.42 598.109 427.49C595.049 428.47 593.18 430.52 593.18 432.9C593.18 435.85 595.729 437.57 600.149 437.57C603.639 437.57 607.46 436.34 609.76 434.46C611.72 432.82 612.819 430.61 612.819 428.15V425.86V425.85Z" fill="black"/>
<path d="M638.33 447.73C638.84 443.8 639.01 440.36 639.01 434.87V392.44C639.01 386.46 638.84 383.51 638.33 379.58H655.59C655.16 383.51 654.989 386.46 654.989 392.44V399.32C654.989 400.55 654.989 401.29 654.899 402.43C659.919 398.17 665.36 396.29 672.42 396.29C687.9 396.29 696.91 405.79 696.91 422.01C696.91 430.78 694.27 437.82 689.34 442.82C684.92 447.08 679.139 449.21 671.649 449.21C664.589 449.21 660.419 447.82 654.899 443.39C654.899 443.64 654.989 444.7 654.989 445.11V447.73H638.319H638.33ZM668.43 408.74C660.69 408.74 655.16 414.47 655.16 422.42C655.16 430.37 660.77 436.67 668.09 436.67C675.41 436.67 680.42 430.85 680.42 422.17C680.42 413.49 675.91 408.74 668.43 408.74Z" fill="black"/>
<path d="M716.02 434.98V448.83H701.64V434.98H716.02Z" fill="black"/>
</svg>
