<svg width="684" height="197" viewBox="0 0 684 197" fill="none" xmlns="http://www.w3.org/2000/svg">
<path d="M0.000488281 65.7125V1.5373H19.7264V49.2517H48.0879V65.7125H0.000488281Z" fill="url(#paint0_linear_103_718)"/>
<path d="M71.3645 37.1365H88.3288C88.2703 34.9125 87.5543 33.0542 86.1808 31.5618C84.7781 30.0693 82.8932 29.3231 80.5261 29.3231C75.2366 29.3817 72.1827 31.9861 71.3645 37.1365ZM105.381 46.3985H71.2768C71.569 49.0322 72.4604 51.1831 73.9508 52.8511C75.3827 54.6069 77.5014 55.4848 80.3069 55.4848C81.8265 55.4848 83.2731 55.1776 84.6466 54.563C86.0201 54.0363 87.0575 53.2315 87.7589 52.1488H104.373C102.473 57.1821 99.3607 60.8986 95.0356 63.2982C90.7397 65.6978 85.8594 66.8976 80.3946 66.8976C72.7964 66.8391 66.6156 64.7029 61.8522 60.4889C56.8842 56.3042 54.371 50.3198 54.3125 42.5357C54.371 35.5124 56.6358 29.6597 61.107 24.9775C65.549 20.3831 71.4814 18.0274 78.9042 17.9103C96.7305 18.1444 105.556 27.6405 105.381 46.3985Z" fill="url(#paint1_linear_103_718)"/>
<path d="M134.181 4.87335V19.0516H143.693V30.0255H134.181V46.3107C134.122 48.4469 134.487 49.9979 135.276 50.9636C136.036 51.9878 137.497 52.4999 139.66 52.4999C141.033 52.4999 142.378 52.4121 143.693 52.2366V65.7125C139.981 65.8295 136.182 66.0051 132.296 66.2392C130.367 66.2392 128.511 66.0929 126.729 65.8003C124.887 65.4491 123.178 64.8492 121.6 64.0005C120.051 63.0348 118.824 61.6302 117.918 59.7866C116.895 57.9137 116.383 55.4263 116.383 52.3243V30.0255H108.493V19.0516H116.383V4.87335H134.181Z" fill="url(#paint2_linear_103_718)"/>
<path d="M171.598 1.5373V16.2862C171.598 18.6273 171.423 20.8367 171.072 22.9144C170.663 25.0799 169.889 26.9967 168.749 28.6647C167.609 30.362 165.958 31.8105 163.796 33.0103C161.604 34.2102 158.711 35.0734 155.116 35.6002V27.7868C157.746 27.3478 159.631 26.4114 160.771 24.9775C161.911 23.5436 162.48 21.6561 162.48 19.315H155.116V1.5373H171.598Z" fill="url(#paint3_linear_103_718)"/>
<path d="M217.932 32.6153H201.757C201.64 31.0643 200.953 29.9084 199.697 29.1475C198.557 28.2404 197.242 27.7868 195.752 27.7868C194.436 27.7868 193.238 27.9916 192.157 28.4013C190.959 28.8988 190.36 29.8938 190.36 31.3862C190.36 31.9715 190.594 32.4397 191.061 32.7909C191.499 33.2298 191.952 33.5664 192.42 33.8005C193.268 34.0931 194.261 34.3272 195.401 34.5028C196.57 34.7662 197.826 35.0149 199.171 35.249C202.035 35.7172 204.986 36.4342 208.025 37.3999C211.094 38.2485 213.695 39.6825 215.828 41.7016C216.909 42.6674 217.757 43.8672 218.371 45.3011C218.897 46.735 219.16 48.4469 219.16 50.4368C219.16 53.6558 218.473 56.2896 217.099 58.338C215.726 60.5035 213.899 62.2155 211.62 63.4738C206.769 65.8149 201.392 66.9562 195.489 66.8976C189.731 66.8976 184.515 65.6393 179.839 63.1226C175.193 60.606 172.65 56.3774 172.212 50.4368H189.176C189.293 52.0463 190.009 53.4217 191.324 54.563C192.288 55.4702 193.881 55.9238 196.102 55.9238C197.359 55.9238 198.674 55.6458 200.047 55.0898C201.362 54.563 202.049 53.6412 202.108 52.3243C202.166 51.0075 201.596 50.0125 200.398 49.3395C199.083 48.6957 196.394 48.0372 192.332 47.3642C185.64 46.2229 180.789 44.4524 177.779 42.0528C174.798 39.741 173.308 36.6244 173.308 32.7031C173.308 29.7767 174.024 27.3332 175.456 25.3725C176.829 23.3826 178.626 21.8755 180.847 20.8513C183.068 19.71 185.465 18.9345 188.036 18.5248C190.491 18.1152 192.902 17.9103 195.269 17.9103C200.617 17.8225 205.614 18.7443 210.261 20.6757C212.482 21.6999 214.279 23.1924 215.653 25.1531C217.026 27.0845 217.786 29.5719 217.932 32.6153Z" fill="url(#paint4_linear_103_718)"/>
<path d="M282.499 59.172C281.418 60.4889 280.22 61.6448 278.905 62.6398C277.531 63.664 276.026 64.5419 274.389 65.2735C272.899 65.8588 271.292 66.3416 269.568 66.7221C267.814 67.0732 266.046 67.2488 264.263 67.2488C254.737 67.1318 247.285 63.8981 241.907 57.5479C236.472 51.3733 233.725 43.6038 233.666 34.2394C233.842 22.095 237.305 13.3159 244.055 7.90214C250.572 2.57615 257.644 -0.057573 265.272 0.000954249C281.841 0.235063 291.675 8.23867 294.773 24.0118H275.836C275.427 21.6122 274.389 19.6661 272.724 18.1737C270.97 16.7983 268.895 16.0813 266.499 16.0228C263.226 16.0813 260.684 16.7983 258.872 18.1737C257.031 19.6661 255.716 21.4951 254.927 23.6606C254.138 25.7383 253.685 27.8014 253.568 29.8499C253.451 31.8983 253.392 33.5078 253.392 34.6784C253.392 36.2001 253.611 37.8827 254.05 39.7264C254.459 41.5992 255.175 43.3989 256.198 45.1255C257.279 46.8521 258.74 48.286 260.581 49.4272C262.51 50.6271 264.936 51.227 267.858 51.227C270.254 51.227 272.431 50.6271 274.389 49.4272C276.318 48.2274 277.546 46.4716 278.072 44.1598H269.392V30.3766H295.606V65.7125H283.113L282.499 59.172Z" fill="url(#paint5_linear_103_718)"/>
<path d="M303.54 33.6249C303.598 23.6167 306.623 15.5546 312.614 9.43848C318.4 3.26385 326.203 0.118009 336.022 0.000954249C345.958 0.118009 353.834 3.26385 359.649 9.43848C365.494 15.5546 368.446 23.6167 368.504 33.6249C368.446 43.5745 365.494 51.6074 359.649 57.7235C353.834 63.9566 345.958 67.1318 336.022 67.2488C326.203 67.1318 318.4 63.9566 312.614 57.7235C306.623 51.6074 303.598 43.5745 303.54 33.6249ZM323.266 33.6249C323.266 37.1073 323.719 39.9897 324.625 42.2723C325.472 44.5841 326.554 46.3985 327.869 47.7153C330.616 50.1149 333.333 51.2855 336.022 51.227C337.279 51.227 338.681 50.9636 340.23 50.4368C341.721 49.8808 343.094 48.9737 344.351 47.7153C345.695 46.3985 346.776 44.5841 347.595 42.2723C348.384 39.9897 348.778 37.1073 348.778 33.6249C348.778 30.0255 348.384 27.0552 347.595 24.7141C346.776 22.373 345.695 20.6026 344.351 19.4028C341.545 17.0617 338.769 15.935 336.022 16.0228C334.765 16.0228 333.421 16.2276 331.989 16.6373C330.557 17.1641 329.184 18.0859 327.869 19.4028C327.255 20.0173 326.685 20.7489 326.159 21.5975C325.604 22.4754 325.092 23.5143 324.625 24.7141C323.719 27.0552 323.266 30.0255 323.266 33.6249Z" fill="url(#paint6_linear_103_718)"/>
<path d="M384.295 65.7125V47.9348H402.925V65.7125H384.295ZM402.925 1.5373V16.6373L398.015 42.6235H389.292L384.295 16.6373V1.5373H402.925Z" fill="url(#paint7_linear_103_718)"/>
<path d="M453.351 16.374C453.351 17.4567 453.834 18.5541 454.798 19.6661C455.558 20.8074 456.391 21.8902 457.297 22.9144C458.612 22.2706 459.81 21.378 460.891 20.2368C461.855 19.037 462.367 17.7201 462.425 16.2862C462.308 13.5061 460.862 12.0576 458.086 11.9405C456.946 11.9405 455.909 12.3063 454.973 13.0379C453.892 13.828 453.351 14.94 453.351 16.374ZM459.532 49.1639L452.08 40.0775C450.765 40.6921 449.421 41.5992 448.047 42.799C446.674 43.9988 445.958 45.4035 445.899 47.013C445.899 48.7396 446.557 50.1735 447.872 51.3148C449.012 52.456 450.385 53.0267 451.993 53.0267C453.424 53.0267 454.769 52.617 456.025 51.7976C457.282 51.066 458.451 50.1881 459.532 49.1639ZM468.957 61.2351C463.521 65.3613 457.414 67.3659 450.634 67.2488C444.351 67.1903 439.207 65.2442 435.204 61.4107C431.025 57.6942 428.906 52.6902 428.847 46.3985C428.906 42.0674 430.426 38.4095 433.406 35.4246C436.212 32.4982 439.441 30.1279 443.094 28.3135C439.821 25.0067 438.155 21.1147 438.097 16.6373C438.214 11.4284 440.215 7.34613 444.102 4.3905C447.814 1.46414 452.153 0.000954249 457.121 0.000954249C463.229 0.000954249 468.168 1.31782 471.938 3.95155C475.707 6.70233 477.622 10.9309 477.68 16.6373C477.622 20.2953 476.453 23.5289 474.173 26.3382C471.835 29.2061 469.074 31.4886 465.888 33.1859L470.842 39.2874C472.098 37.7364 472.873 36.1123 473.165 34.415H487.981C487.105 40.1799 484.591 45.3742 480.442 49.9979L493.548 65.7125H472.551L468.957 61.2351Z" fill="url(#paint8_linear_103_718)"/>
<path d="M0 180.712V116.536H20.2081L38.8381 150.863H39.0573V116.536H57.7312V180.712H38.4875L18.8492 145.639H18.6739V180.712H0Z" fill="url(#paint9_linear_103_718)"/>
<path d="M82.8488 152.136H99.8132C99.7547 149.912 99.0387 148.053 97.6652 146.561C96.2625 145.068 94.3775 144.322 92.0104 144.322C86.721 144.381 83.6671 146.985 82.8488 152.136ZM116.865 161.398H82.7612C83.0534 164.031 83.9447 166.182 85.4351 167.85C86.8671 169.606 88.9858 170.484 91.7913 170.484C93.3109 170.484 94.7575 170.177 96.131 169.562C97.5045 169.035 98.5419 168.231 99.2432 167.148H115.857C113.957 172.181 110.845 175.898 106.52 178.297C102.224 180.697 97.3437 181.897 91.8789 181.897C84.2808 181.838 78.1 179.702 73.3365 175.488C68.3685 171.303 65.8553 165.319 65.7969 157.535C65.8553 150.511 68.1202 144.659 72.5914 139.977C77.0334 135.382 82.9658 133.026 90.3885 132.909C108.215 133.143 117.04 142.64 116.865 161.398Z" fill="url(#paint10_linear_103_718)"/>
<path d="M118.18 180.712L134.443 156.174L119.802 134.051H139.396L144.481 143.313L149.698 134.051H168.722L154.081 156.174L170.607 180.712H151.057L144.218 169.299L137.687 180.712H118.18Z" fill="url(#paint11_linear_103_718)"/>
<path d="M195.637 119.872V134.051H205.149V145.025H195.637V161.31C195.579 163.446 195.944 164.997 196.733 165.963C197.493 166.987 198.954 167.499 201.117 167.499C202.49 167.499 203.834 167.411 205.149 167.236V180.712C201.438 180.829 197.639 181.004 193.752 181.238C191.824 181.238 189.968 181.092 188.185 180.799C186.344 180.448 184.635 179.848 183.057 179C181.508 178.034 180.28 176.629 179.374 174.786C178.351 172.913 177.84 170.425 177.84 167.323V145.025H169.95V134.051H177.84V119.872H195.637Z" fill="url(#paint12_linear_103_718)"/>
<path d="M285.381 140.459H266.137C266.079 139.786 265.904 138.908 265.611 137.826C265.261 136.801 264.72 135.792 263.989 134.797C263.288 133.656 262.265 132.719 260.921 131.988C259.606 131.344 257.911 131.022 255.836 131.022C251.336 131.139 248.165 132.997 246.324 136.597C244.453 140.108 243.547 144.117 243.606 148.624C243.547 153.131 244.453 157.14 246.324 160.651C248.165 164.309 251.336 166.167 255.836 166.226C259.109 166.226 261.564 165.187 263.2 163.109C264.749 161.12 265.757 158.603 266.225 155.559H285.644C285.586 162.319 283.072 168.362 278.104 173.688C273.136 179.219 265.889 182.072 256.362 182.248C246.017 182.131 238.024 178.868 232.384 172.459C226.715 166.226 223.88 158.281 223.88 148.624C223.938 138.323 226.89 130.173 232.735 124.174C238.492 118.117 246.368 115.059 256.362 115C273.955 115.468 283.628 123.955 285.381 140.459Z" fill="url(#paint13_linear_103_718)"/>
<path d="M293.622 180.712V116.536H311.375V139.099H311.551C313.041 137.226 314.926 135.719 317.206 134.577C319.426 133.465 322.393 132.909 326.104 132.909C330.458 132.909 334.199 134.197 337.326 136.772C340.424 139.347 342.002 143.327 342.06 148.712V180.712H324.307V156.262C324.365 153.511 324.059 151.287 323.386 149.59C322.685 147.922 321.048 147.088 318.477 147.088C316.869 147.029 315.335 147.57 313.874 148.712C313.173 149.297 312.574 150.19 312.077 151.389C311.609 152.648 311.375 154.213 311.375 156.086V180.712H293.622Z" fill="url(#paint14_linear_103_718)"/>
<path d="M380.197 164.075V159.773C377.976 160.798 375.638 161.544 373.183 162.012C369.18 162.539 367.178 164.221 367.178 167.06C367.178 168.201 367.718 169.182 368.8 170.001C369.793 170.908 371.108 171.362 372.745 171.362C374.82 171.362 376.559 170.733 377.961 169.474C379.335 168.274 380.08 166.475 380.197 164.075ZM397.249 151.126V170.264C397.249 172.02 397.366 173.82 397.6 175.664C397.833 177.478 398.432 179.161 399.397 180.712H381.249C380.781 179.219 380.577 177.756 380.635 176.322H380.46C378.531 178.4 376.31 179.834 373.797 180.624C371.167 181.472 368.391 181.897 365.468 181.897C360.851 181.897 357.023 180.755 353.983 178.473C350.74 176.132 349.088 172.562 349.03 167.762C349.03 164.104 349.994 161.266 351.923 159.247C353.764 157.198 356.058 155.72 358.805 154.813C361.698 153.847 364.606 153.189 367.529 152.838C370.451 152.487 373.052 152.165 375.331 151.872C376.003 151.667 376.632 151.477 377.216 151.302C377.771 151.126 378.283 150.921 378.75 150.687C379.715 150.102 380.197 149.107 380.197 147.702C380.138 146.093 379.539 144.966 378.4 144.322C377.26 143.708 375.916 143.4 374.367 143.4C371.708 143.459 369.94 143.971 369.063 144.937C368.157 146.019 367.704 147.102 367.704 148.185H351.178C351.412 144.878 352.259 142.201 353.72 140.152C355.152 138.133 357.008 136.611 359.287 135.587C361.596 134.504 364.168 133.758 367.003 133.348C369.75 133.056 372.467 132.909 375.156 132.909C380.65 132.909 384.96 133.407 388.087 134.402C391.185 135.426 393.362 136.816 394.619 138.572C395.934 140.298 396.752 142.244 397.074 144.41C397.19 146.605 397.249 148.843 397.249 151.126Z" fill="url(#paint15_linear_103_718)"/>
<path d="M407.068 180.712V116.536H424.821V180.712H407.068Z" fill="url(#paint16_linear_103_718)"/>
<path d="M435.386 180.712V116.536H453.139V180.712H435.386Z" fill="url(#paint17_linear_103_718)"/>
<path d="M478.432 152.136H495.396C495.338 149.912 494.622 148.053 493.248 146.561C491.846 145.068 489.961 144.322 487.594 144.322C482.304 144.381 479.25 146.985 478.432 152.136ZM512.448 161.398H478.344C478.637 164.031 479.528 166.182 481.018 167.85C482.45 169.606 484.569 170.484 487.374 170.484C488.894 170.484 490.341 170.177 491.714 169.562C493.088 169.035 494.125 168.231 494.826 167.148H511.44C509.54 172.181 506.428 175.898 502.103 178.297C497.807 180.697 492.927 181.897 487.462 181.897C479.864 181.838 473.683 179.702 468.92 175.488C463.952 171.303 461.439 165.319 461.38 157.535C461.439 150.511 463.703 144.659 468.175 139.977C472.617 135.382 478.549 133.026 485.972 132.909C503.798 133.143 512.624 142.64 512.448 161.398Z" fill="url(#paint18_linear_103_718)"/>
<path d="M519.9 180.712V134.051H537.04V139.977H537.215C540.371 135.265 545.427 132.909 552.382 132.909C556.737 132.909 560.477 134.197 563.604 136.772C566.702 139.347 568.28 143.327 568.338 148.712V180.712H550.585V156.262C550.643 153.511 550.337 151.287 549.664 149.59C548.963 147.922 547.327 147.088 544.755 147.088C543.148 147.029 541.613 147.57 540.152 148.712C539.451 149.297 538.852 150.19 538.355 151.389C537.887 152.648 537.654 154.213 537.654 156.086V180.712H519.9Z" fill="url(#paint19_linear_103_718)"/>
<path d="M593.018 155.077C593.018 156.335 593.164 157.652 593.456 159.027C593.69 160.432 594.099 161.661 594.683 162.714C595.823 165.173 597.927 166.431 600.996 166.489C602.661 166.489 603.976 166.109 604.941 165.348C605.964 164.675 606.68 163.768 607.089 162.627C607.936 160.315 608.331 157.769 608.272 154.989C608.272 152.297 607.644 150.116 606.387 148.448C605.131 146.751 603.188 145.873 600.557 145.815C598.044 145.873 596.159 146.78 594.903 148.536C593.646 150.321 593.018 152.501 593.018 155.077ZM625.587 134.051V174.698C625.587 176.98 625.383 179.409 624.974 181.984C624.477 184.56 623.396 186.989 621.73 189.271C620.181 191.466 612.206 193.251 608.904 194.626C605.602 196.148 601.233 196.938 595.797 196.997C590.098 197.055 584.897 196.002 580.192 193.836C575.399 191.729 578.041 187.588 577.018 181.414H594.596C594.859 181.911 595.195 182.453 595.604 183.038C596.188 183.887 596.934 184.633 597.84 185.277C598.746 186.008 599.739 186.403 600.82 186.462C602.252 186.403 603.45 186.008 604.415 185.277C605.292 184.516 606.008 183.594 606.563 182.511C607.381 180.112 607.79 177.858 607.79 175.751V171.45H607.615C604.693 175.693 600.543 177.858 595.166 177.946C588.386 177.858 583.389 175.605 580.174 171.186C576.872 166.855 575.22 161.515 575.22 155.164C575.22 148.873 576.959 143.634 580.437 139.45C583.798 135.207 588.795 133.026 595.429 132.909C598.117 132.909 600.572 133.407 602.793 134.402C605.014 135.543 606.621 137.314 607.615 139.713H607.79V134.051H625.587Z" fill="url(#paint20_linear_103_718)"/>
<path d="M649.741 152.136H666.705C666.646 149.912 665.93 148.053 664.557 146.561C663.154 145.068 661.269 144.322 658.902 144.322C653.613 144.381 650.559 146.985 649.741 152.136ZM683.757 161.398H649.653C649.945 164.031 650.836 166.182 652.327 167.85C653.759 169.606 655.878 170.484 658.683 170.484C660.203 170.484 661.649 170.177 663.023 169.562C664.396 169.035 665.434 168.231 666.135 167.148H682.749C680.849 172.181 677.737 175.898 673.412 178.297C669.116 180.697 664.236 181.897 658.771 181.897C651.173 181.838 644.992 179.702 640.228 175.488C635.26 171.303 632.747 165.319 632.689 157.535C632.747 150.511 635.012 144.659 639.483 139.977C643.925 135.382 649.857 133.026 657.28 132.909C675.107 133.143 683.932 142.64 683.757 161.398Z" fill="url(#paint21_linear_103_718)"/>
<defs>
<linearGradient id="paint0_linear_103_718" x1="20.3396" y1="2.50327" x2="1250.55" y2="86.5529" gradientUnits="userSpaceOnUse">
<stop stop-color="#A6DF6E"/>
<stop offset="1" stop-color="#13CFDB"/>
</linearGradient>
<linearGradient id="paint1_linear_103_718" x1="20.3396" y1="2.50327" x2="1250.55" y2="86.5529" gradientUnits="userSpaceOnUse">
<stop stop-color="#A6DF6E"/>
<stop offset="1" stop-color="#13CFDB"/>
</linearGradient>
<linearGradient id="paint2_linear_103_718" x1="20.3396" y1="2.50327" x2="1250.55" y2="86.5529" gradientUnits="userSpaceOnUse">
<stop stop-color="#A6DF6E"/>
<stop offset="1" stop-color="#13CFDB"/>
</linearGradient>
<linearGradient id="paint3_linear_103_718" x1="20.3396" y1="2.50327" x2="1250.55" y2="86.5529" gradientUnits="userSpaceOnUse">
<stop stop-color="#A6DF6E"/>
<stop offset="1" stop-color="#13CFDB"/>
</linearGradient>
<linearGradient id="paint4_linear_103_718" x1="20.3396" y1="2.50327" x2="1250.55" y2="86.5529" gradientUnits="userSpaceOnUse">
<stop stop-color="#A6DF6E"/>
<stop offset="1" stop-color="#13CFDB"/>
</linearGradient>
<linearGradient id="paint5_linear_103_718" x1="20.3396" y1="2.50327" x2="1250.55" y2="86.5529" gradientUnits="userSpaceOnUse">
<stop stop-color="#A6DF6E"/>
<stop offset="1" stop-color="#13CFDB"/>
</linearGradient>
<linearGradient id="paint6_linear_103_718" x1="20.3396" y1="2.50327" x2="1250.55" y2="86.5529" gradientUnits="userSpaceOnUse">
<stop stop-color="#A6DF6E"/>
<stop offset="1" stop-color="#13CFDB"/>
</linearGradient>
<linearGradient id="paint7_linear_103_718" x1="20.3396" y1="2.50327" x2="1250.55" y2="86.5529" gradientUnits="userSpaceOnUse">
<stop stop-color="#A6DF6E"/>
<stop offset="1" stop-color="#13CFDB"/>
</linearGradient>
<linearGradient id="paint8_linear_103_718" x1="20.3396" y1="2.50327" x2="1250.55" y2="86.5529" gradientUnits="userSpaceOnUse">
<stop stop-color="#A6DF6E"/>
<stop offset="1" stop-color="#13CFDB"/>
</linearGradient>
<linearGradient id="paint9_linear_103_718" x1="20.3396" y1="2.50327" x2="1250.55" y2="86.5529" gradientUnits="userSpaceOnUse">
<stop stop-color="#A6DF6E"/>
<stop offset="1" stop-color="#13CFDB"/>
</linearGradient>
<linearGradient id="paint10_linear_103_718" x1="20.3396" y1="2.50327" x2="1250.55" y2="86.5529" gradientUnits="userSpaceOnUse">
<stop stop-color="#A6DF6E"/>
<stop offset="1" stop-color="#13CFDB"/>
</linearGradient>
<linearGradient id="paint11_linear_103_718" x1="20.3396" y1="2.50327" x2="1250.55" y2="86.5529" gradientUnits="userSpaceOnUse">
<stop stop-color="#A6DF6E"/>
<stop offset="1" stop-color="#13CFDB"/>
</linearGradient>
<linearGradient id="paint12_linear_103_718" x1="20.3396" y1="2.50327" x2="1250.55" y2="86.5529" gradientUnits="userSpaceOnUse">
<stop stop-color="#A6DF6E"/>
<stop offset="1" stop-color="#13CFDB"/>
</linearGradient>
<linearGradient id="paint13_linear_103_718" x1="20.3396" y1="2.50327" x2="1250.55" y2="86.5529" gradientUnits="userSpaceOnUse">
<stop stop-color="#A6DF6E"/>
<stop offset="1" stop-color="#13CFDB"/>
</linearGradient>
<linearGradient id="paint14_linear_103_718" x1="20.3396" y1="2.50327" x2="1250.55" y2="86.5529" gradientUnits="userSpaceOnUse">
<stop stop-color="#A6DF6E"/>
<stop offset="1" stop-color="#13CFDB"/>
</linearGradient>
<linearGradient id="paint15_linear_103_718" x1="20.3396" y1="2.50327" x2="1250.55" y2="86.5529" gradientUnits="userSpaceOnUse">
<stop stop-color="#A6DF6E"/>
<stop offset="1" stop-color="#13CFDB"/>
</linearGradient>
<linearGradient id="paint16_linear_103_718" x1="20.3396" y1="2.50327" x2="1250.55" y2="86.5529" gradientUnits="userSpaceOnUse">
<stop stop-color="#A6DF6E"/>
<stop offset="1" stop-color="#13CFDB"/>
</linearGradient>
<linearGradient id="paint17_linear_103_718" x1="20.3396" y1="2.50327" x2="1250.55" y2="86.5529" gradientUnits="userSpaceOnUse">
<stop stop-color="#A6DF6E"/>
<stop offset="1" stop-color="#13CFDB"/>
</linearGradient>
<linearGradient id="paint18_linear_103_718" x1="20.3396" y1="2.50327" x2="1250.55" y2="86.5529" gradientUnits="userSpaceOnUse">
<stop stop-color="#A6DF6E"/>
<stop offset="1" stop-color="#13CFDB"/>
</linearGradient>
<linearGradient id="paint19_linear_103_718" x1="20.3396" y1="2.50327" x2="1250.55" y2="86.5529" gradientUnits="userSpaceOnUse">
<stop stop-color="#A6DF6E"/>
<stop offset="1" stop-color="#13CFDB"/>
</linearGradient>
<linearGradient id="paint20_linear_103_718" x1="20.3396" y1="2.50327" x2="1250.55" y2="86.5529" gradientUnits="userSpaceOnUse">
<stop stop-color="#A6DF6E"/>
<stop offset="1" stop-color="#13CFDB"/>
</linearGradient>
<linearGradient id="paint21_linear_103_718" x1="20.3396" y1="2.50327" x2="1250.55" y2="86.5529" gradientUnits="userSpaceOnUse">
<stop stop-color="#A6DF6E"/>
<stop offset="1" stop-color="#13CFDB"/>
</linearGradient>
</defs>
</svg>
