<svg width="1600" height="341" viewBox="0 0 1600 341" fill="none" xmlns="http://www.w3.org/2000/svg">
<mask id="mask0_1053_804" style="mask-type:luminance" maskUnits="userSpaceOnUse" x="0" y="0" width="1600" height="341">
<path d="M1600 0.840088H0V341H1600V0.840088Z" fill="white"/>
</mask>
<g mask="url(#mask0_1053_804)">
<path d="M1435.44 318.34C1333.34 273.71 1191.23 184.69 903.71 246.97C903.56 247 903.41 247.03 903.27 247.07C913.19 251.67 923.299 256.19 933.909 260.5C1099.35 327.69 1223.25 319.29 1435.43 318.34H1435.44Z" fill="url(#paint0_linear_1053_804)"/>
<path d="M903.28 247.07C834.59 215.17 775.32 178.87 624.05 174.74C476.57 170.72 286.66 188.18 150.07 184.27C289.08 418.25 718.79 287.1 903.28 247.07Z" fill="url(#paint1_linear_1053_804)"/>
<path d="M150.01 184.27C150.01 184.27 150.05 184.27 150.07 184.27C149.8 183.81 149.51 183.36 149.24 182.89C109.14 114.42 87.72 43.6402 0 1.4502V165.23C56.11 177.07 112.38 183.18 150.01 184.26V184.27Z" fill="url(#paint2_linear_1053_804)"/>
<path d="M1435.44 318.34C1223.26 319.29 1099.36 327.69 933.92 260.5C923.31 256.19 913.19 251.68 903.28 247.07C718.79 287.09 289.08 418.25 150.07 184.27C150.05 184.27 150.03 184.27 150.01 184.27C112.38 183.19 56.11 177.08 0 165.24V341H1512.48C1488.36 339.46 1463.4 330.56 1435.45 318.34H1435.44Z" fill="url(#paint3_linear_1053_804)"/>
<path d="M1435.44 318.34C1223.26 319.29 1099.36 327.69 933.92 260.5C923.31 256.19 913.19 251.68 903.28 247.07C718.79 287.09 289.08 418.25 150.07 184.27C150.05 184.27 150.03 184.27 150.01 184.27C112.38 183.19 56.11 177.08 0 165.24V341H1512.48C1488.36 339.46 1463.4 330.56 1435.45 318.34H1435.44Z" fill="url(#paint4_linear_1053_804)"/>
<path d="M1436.74 318.34C1436.31 318.34 1435.88 318.34 1435.44 318.34C1463.4 330.56 1488.35 339.45 1512.47 341H1599.99V320.96C1548.67 319.25 1483.56 318.13 1436.73 318.33L1436.74 318.34Z" fill="url(#paint5_linear_1053_804)"/>
</g>
<defs>
<linearGradient id="paint0_linear_1053_804" x1="891.87" y1="272.37" x2="1468.17" y2="272.37" gradientUnits="userSpaceOnUse">
<stop stop-color="#7DE8B5"/>
<stop offset="0.505899" stop-color="#69E3B9"/>
<stop offset="1" stop-color="#53DCBD"/>
</linearGradient>
<linearGradient id="paint1_linear_1053_804" x1="148.74" y1="247.03" x2="916.26" y2="247.03" gradientUnits="userSpaceOnUse">
<stop stop-color="#AEF4AC"/>
<stop offset="0.45" stop-color="#98EEAE"/>
<stop offset="1" stop-color="#7EE7B1"/>
</linearGradient>
<linearGradient id="paint2_linear_1053_804" x1="-81.96" y1="92.8602" x2="158.34" y2="92.8602" gradientUnits="userSpaceOnUse">
<stop offset="0.24" stop-color="#BFFBB3"/>
<stop offset="1" stop-color="#B6F9B3"/>
</linearGradient>
<linearGradient id="paint3_linear_1053_804" x1="-108.29" y1="253.12" x2="1378.72" y2="253.12" gradientUnits="userSpaceOnUse">
<stop stop-color="#D1FED4"/>
<stop offset="0.619792" stop-color="#96F3C6"/>
<stop offset="1" stop-color="#58E2C6"/>
</linearGradient>
<linearGradient id="paint4_linear_1053_804" x1="-161.45" y1="247.48" x2="1525.69" y2="306.4" gradientUnits="userSpaceOnUse">
<stop offset="0.09" stop-color="#CFFED1"/>
<stop offset="0.34" stop-color="#BAFBCE"/>
<stop offset="0.64" stop-color="#93F3C6"/>
<stop offset="0.82" stop-color="#77EBC5"/>
<stop offset="1" stop-color="#5CE3C6"/>
</linearGradient>
<linearGradient id="paint5_linear_1053_804" x1="1432.36" y1="329.66" x2="1608.1" y2="329.66" gradientUnits="userSpaceOnUse">
<stop stop-color="#50DCBF"/>
<stop offset="1" stop-color="#44D9C4"/>
</linearGradient>
</defs>
</svg>
