<svg width="1600" height="341" viewBox="0 0 1600 341" fill="none" xmlns="http://www.w3.org/2000/svg">
<mask id="mask0_1053_791" style="mask-type:luminance" maskUnits="userSpaceOnUse" x="0" y="0" width="1600" height="341">
<path d="M1600 0H0V340.16H1600V0Z" fill="white"/>
</mask>
<g mask="url(#mask0_1053_791)">
<path d="M288.04 0C398.16 99.8 522.01 89.62 667.43 59.53C862.11 19.25 953.31 32.51 1041.67 100.74C1197.24 220.87 1235.08 316.75 1551.59 213.04C1575.97 205.05 1586.94 198.88 1600 189.38V0H288.04Z" fill="url(#paint0_linear_1053_791)"/>
<path d="M667.58 58.79C667.92 58.96 668.26 59.13 668.6 59.3C668.21 59.38 667.83 59.46 667.43 59.54C522.02 89.62 398.17 99.8 288.04 0H489.32C550.91 2.46 588.28 19.35 667.58 58.79Z" fill="url(#paint1_linear_1053_791)"/>
<path d="M1038.78 98.5399C1039.74 99.2699 1040.71 99.9999 1041.67 100.74C1197.02 220.7 1234.98 316.47 1550.24 213.48C1527.25 199.55 1506.92 185.27 1490.96 174.69C1383.68 103.57 1326.65 58.9199 1038.77 98.5399H1038.78Z" fill="url(#paint2_linear_1053_791)"/>
<path d="M668.6 59.3001C762.29 105.9 811.68 129.89 1037.84 98.6801C1038.15 98.6401 1038.46 98.6001 1038.77 98.5501C951.48 32.3801 860.35 19.7601 668.59 59.3001H668.6Z" fill="url(#paint3_linear_1053_791)"/>
<path d="M1600 189.39V0H489.33C550.92 2.46 588.29 19.35 667.59 58.79C667.93 58.96 668.27 59.13 668.61 59.3C860.37 19.75 951.5 32.38 1038.79 98.55C1326.66 58.93 1383.7 103.58 1490.98 174.7C1506.94 185.28 1527.27 199.55 1550.26 213.49C1550.71 213.34 1551.15 213.2 1551.61 213.05C1575.99 205.06 1586.96 198.89 1600.02 189.39H1600Z" fill="url(#paint4_linear_1053_791)"/>
<path d="M1600 189.39V0H489.33C550.92 2.46 588.29 19.35 667.59 58.79C667.93 58.96 668.27 59.13 668.61 59.3C860.37 19.75 951.5 32.38 1038.79 98.55C1326.66 58.93 1383.7 103.58 1490.98 174.7C1506.94 185.28 1527.27 199.55 1550.26 213.49C1550.71 213.34 1551.15 213.2 1551.61 213.05C1575.99 205.06 1586.96 198.89 1600.02 189.39H1600Z" fill="url(#paint5_linear_1053_791)"/>
<path d="M1551.59 213.05C1551.14 213.2 1550.69 213.34 1550.24 213.49C1565.78 222.91 1582.54 232.18 1599.99 240.05V189.4C1586.93 198.9 1575.96 205.07 1551.58 213.06L1551.59 213.05Z" fill="url(#paint6_linear_1053_791)"/>
</g>
<defs>
<linearGradient id="paint0_linear_1053_791" x1="288.04" y1="128.62" x2="1600" y2="128.62" gradientUnits="userSpaceOnUse">
<stop stop-color="#BCDCAA"/>
<stop offset="1" stop-color="#68C1AB"/>
</linearGradient>
<linearGradient id="paint1_linear_1053_791" x1="288.04" y1="40.16" x2="675.77" y2="40.16" gradientUnits="userSpaceOnUse">
<stop stop-color="#C0FAB2"/>
<stop offset="0.587847" stop-color="#B5F7B0"/>
<stop offset="1" stop-color="#ACF4AE"/>
</linearGradient>
<linearGradient id="paint2_linear_1053_791" x1="1044.64" y1="153.87" x2="1559.68" y2="189.89" gradientUnits="userSpaceOnUse">
<stop stop-color="#84E8AC"/>
<stop offset="0.53" stop-color="#72E2AE"/>
<stop offset="0.99" stop-color="#61DDB1"/>
</linearGradient>
<linearGradient id="paint3_linear_1053_791" x1="668.6" y1="74.8201" x2="1045.76" y2="74.8201" gradientUnits="userSpaceOnUse">
<stop stop-color="#98E99C"/>
<stop offset="0.5" stop-color="#94EAA3"/>
<stop offset="1" stop-color="#8EEAAA"/>
</linearGradient>
<linearGradient id="paint4_linear_1053_791" x1="3.7773e-05" y1="106.74" x2="1.00004" y2="106.74" gradientUnits="userSpaceOnUse">
<stop stop-color="#BCDCAA"/>
<stop offset="1" stop-color="#68C1AB"/>
</linearGradient>
<linearGradient id="paint5_linear_1053_791" x1="480.59" y1="106.74" x2="1507.62" y2="106.74" gradientUnits="userSpaceOnUse">
<stop offset="0.0413632" stop-color="#BBF9BD"/>
<stop offset="0.49" stop-color="#A1F4C2"/>
<stop offset="1" stop-color="#87F3CB"/>
</linearGradient>
<linearGradient id="paint6_linear_1053_791" x1="1548.9" y1="214.71" x2="1707.27" y2="214.71" gradientUnits="userSpaceOnUse">
<stop stop-color="#76ECC3"/>
<stop offset="0.49" stop-color="#75ECC5"/>
</linearGradient>
</defs>
</svg>
