<?xml version="1.0" encoding="utf-8"?>
<!-- Generator: Adobe Illustrator 28.0.0, SVG Export Plug-In . SVG Version: 6.00 Build 0)  -->
<svg version="1.1" xmlns="http://www.w3.org/2000/svg" xmlns:xlink="http://www.w3.org/1999/xlink" x="0px" y="0px"
	 viewBox="0 0 1600 1235" style="enable-background:new 0 0 1600 1235;" xml:space="preserve">
<style type="text/css">
	.st0{display:none;}
	.st1{display:inline;}
	.st2{fill:#FFFFFF;}
	.st3{fill:#A0D3B4;}
	.st4{fill:#98D0B6;}
	.st5{fill:#CCE5C8;}
	.st6{fill:#90CEB6;}
	.st7{fill:#C6E3C5;}
	.st8{fill:#ADD8B3;}
	.st9{fill:#6FC3AB;}
	.st10{fill:#BADCAA;}
	.st11{fill:#B2D8A6;}
	.st12{fill:#9ACFA3;}
	.st13{fill:#79C5A2;}
	.st14{fill:#78C5A9;}
	.st15{fill:#98CE98;}
	.st16{fill:#88C9A1;}
	.st17{fill:#AAD5A5;}
	.st18{clip-path:url(#SVGID_00000080202594138318639990000017644905997026612631_);}
	.st19{clip-path:url(#SVGID_00000015341350714237141740000014900409386955034028_);}
	.st20{display:none;fill:url(#SVGID_00000136411201933121989770000010532393069647751854_);}
	.st21{display:none;fill:url(#SVGID_00000149357982078776366480000014372343651439530414_);}
	.st22{display:inline;fill:url(#SVGID_00000054239961217938884670000013890897947869119916_);}
	.st23{display:inline;fill:url(#SVGID_00000131340600844344335220000000332736130609427382_);}
	.st24{display:inline;fill:url(#SVGID_00000181801707419633033740000012037136793207179427_);}
	.st25{display:inline;fill:url(#SVGID_00000183944765947894942440000009479288095074093737_);}
	.st26{display:inline;fill:url(#SVGID_00000003817478759463055680000001121563499735607453_);}
	.st27{display:inline;fill:url(#SVGID_00000159444653907151191200000003694839818887556248_);}
	.st28{display:inline;fill:url(#SVGID_00000150097948205183890130000010989513210517283207_);}
	.st29{display:none;fill:url(#SVGID_00000142169343022203854530000010811055897473223351_);}
	
		.st30{display:none;opacity:0.35;fill:url(#SVGID_00000119807896722727825440000001359641200094853803_);enable-background:new    ;}
	.st31{clip-path:url(#SVGID_00000174572966872825992650000001085124038240546237_);}
	.st32{fill:url(#SVGID_00000062187770865709527740000018308770371304565662_);}
	.st33{fill:url(#SVGID_00000015332808961709582590000004424815843256586624_);}
	.st34{fill:url(#SVGID_00000098915025152875805640000011976232286209336733_);}
	.st35{fill:url(#SVGID_00000013880991178367810300000016281898423762226345_);}
	.st36{fill:url(#SVGID_00000091707305704437353760000010443056077546284175_);}
	.st37{fill:url(#SVGID_00000173874043328153804130000012312513646809595294_);}
	.st38{fill:url(#SVGID_00000138531589005068808440000008765994701449410464_);}
	.st39{clip-path:url(#SVGID_00000167393643650511683150000013904541916538161320_);}
	.st40{fill:url(#SVGID_00000021109681237028146790000014450360996108728744_);}
	.st41{fill:url(#SVGID_00000151527606465246549000000002530464186225741954_);}
	.st42{fill:url(#SVGID_00000089533751921082625420000004408715654398282418_);}
	.st43{fill:url(#SVGID_00000131349976568354149020000000434184868120946306_);}
	.st44{fill:url(#SVGID_00000027580424028106545950000007579074902770878383_);}
	.st45{fill:url(#SVGID_00000070081236793499486530000018270168462070816443_);}
	.st46{fill:url(#SVGID_00000017508611017854259790000013304645697330106765_);}
	.st47{clip-path:url(#SVGID_00000002356556282151013980000017538778373769772710_);}
	.st48{fill:url(#SVGID_00000177445112609335309300000003224643289900161201_);}
	.st49{fill:url(#SVGID_00000145774255983699591040000015878962462673416879_);}
	.st50{fill:url(#SVGID_00000062883850891239877390000010017248183959531440_);}
	.st51{fill:url(#SVGID_00000083777436865288191780000014440336605175261329_);}
	.st52{fill:url(#SVGID_00000029025409869075242850000006524405156959717505_);}
	.st53{fill:url(#SVGID_00000087407750940390442790000008893709553778917053_);}
	.st54{fill:url(#SVGID_00000014634198674320925990000017454045956343362182_);}
	.st55{fill:#FDEDED;}
	.st56{clip-path:url(#SVGID_00000157303607801150531670000009906229339290406048_);}
	.st57{fill:url(#SVGID_00000083772196472978225880000017864032591839029183_);}
	.st58{fill:url(#SVGID_00000112592291254769211230000012454115306818410650_);}
	.st59{fill:url(#SVGID_00000122691532098713736240000002037307986050911932_);}
	.st60{fill:url(#SVGID_00000106857559239638772020000016261732486531823759_);}
	.st61{fill:url(#SVGID_00000049905190469963002580000003891907629086897307_);}
	.st62{fill:url(#SVGID_00000145771895398637546630000005720276491793396926_);}
	.st63{clip-path:url(#SVGID_00000140728503746590658220000006201835208749654187_);}
	.st64{fill:url(#SVGID_00000122678240883735401940000000101918802420653733_);}
	.st65{fill:url(#SVGID_00000127731700123088972090000009775078144139221400_);}
	.st66{fill:url(#SVGID_00000096758162201508924580000017520942369653122177_);}
	.st67{fill:url(#SVGID_00000057105716812030035530000005371567653048550813_);}
	.st68{fill:url(#SVGID_00000015345104608501557940000001879024951268504764_);}
	.st69{fill:url(#SVGID_00000168105324570266450520000002266852532658832021_);}
	.st70{fill:url(#SVGID_00000157284497035616638250000003635827547865071805_);}
	.st71{clip-path:url(#SVGID_00000154387666667095524180000017194141230538131381_);}
	.st72{fill:url(#SVGID_00000010299525208015708130000016113540067140119709_);}
	.st73{fill:url(#SVGID_00000041283411124989521240000018012574074753099183_);}
	.st74{fill:url(#SVGID_00000176760723707985551950000010515219101823908015_);}
	.st75{fill:url(#SVGID_00000163073652490416363840000003514862187214702245_);}
	.st76{fill:url(#SVGID_00000173133257567256939700000002439270450568922043_);}
	.st77{fill:url(#SVGID_00000083782718131391744880000014747909890238383791_);}
</style>
<g id="レイヤー_2">
	
		<image style="overflow:visible;" width="1599" height="646" xlink:href="../../../../../../../../Downloads/問い合わせ.png"  transform="matrix(0.9927 0 0 0.9927 1635.3304 3313.0254)">
	</image>
</g>
<g id="レイヤー_1">
	<g id="レイヤー_1_00000145763159752251839610000004387384459064482998_">
		<g class="st0">
			<g class="st1">
				<path class="st2" d="M0.1,896.9C0.1,599.5,0.1,302,0,4.6C0,0.8,0.8,0,4.6,0c94.5,0.1,189,0.1,283.5,0.1
					c4.6,5.3,10.4,9.1,15.8,13.4c15.5,12.5,32.2,23.2,50,32.5c14.6,7.5,29,15.1,44.4,20.7c11,4,22.8,3.6,33.8,7.3
					c6.9,1.3,13.9,2.3,20.8,3.9c11.6,2.7,23.7,2.3,35.5,3.2c15.1,1.1,30.1-1.7,45.2-2.2c7.6-0.3,15.3,0.3,22.8-0.8
					c15.2-2.3,30.6-3.2,45.7-7.2c8-2.1,16.7-2.3,25-3.8c11.9-2.2,23.8-3.9,35.4-7.2c2.4,0.5,5-1.1,7.4,0.5c13.3,7,26.3,14.7,39.9,21
					c15.6,7.2,31.7,13.3,48.7,16.9c11.3,2.4,22.4,5.7,33.7,8.2c25.9,5.8,52.4,4.8,78.6,6.7c25.3,1.8,50.3-1.9,75.5-4
					c4.2-0.3,8.1,0.7,12.2,0.2c7.7-1.1,15.4-2.2,23.1-2.8c15.1-1.1,30.3-2.3,45-6.1c2.8-0.7,6.1,0.6,8.6-1.8
					c2.3,0.8,4.6,1.7,6.9,2.5c14.6,10.9,28.6,22.5,42.7,34.1c6.7,5.4,11.7,12.4,18.5,17.6c15.7,12.1,29.9,26.1,46.7,36.9
					c7.3,4.7,13.8,10.6,20.7,15.9c14,10.8,29.9,19.1,45.7,27.2c2.1,1.1,4.3,1.8,6.7,1.1c4.3,2.9,9.3,4.2,14,6.2
					c16.5,6.9,34,10.5,51.1,15.4c12.3,3.6,25.3,3.6,38,3.7c19.3,0.2,38.7-0.7,58-2.8c8.3-0.9,16.7-1.4,24.9-2.6
					c1.1,0.1,2.2,0.1,2.9-0.9c7.1-1.3,14.3-2,21.1-4c10.5-3.1,21.1-5.3,31.7-7.8c28-6.5,55.4-15.4,82.2-26.1
					c3.8-0.4,7.1,0.7,10.3,2.7c3.9,2.5,8.1,4.4,12.2,6.7c4.5,2.5,9.1,4.7,13.2,7.7c5.3,3.8,10.8,6.8,17.3,8c0,325.3,0,650.6,0,975.8
					c-1.8-0.3-3.6-0.8-5.4-0.9c-17.1-1.2-34.3-1.9-51.5-2c-17.6-0.1-35.2-1-52.7-1.8c-14.8-0.7-29.7-0.7-44.5,0
					c-10.6,0.5-20.1-1.5-29.1-6.9c-4.1-2.4-8.3-4.8-12.6-6.6c-18.3-7.7-35.9-16.9-54.4-24.2c-23.5-9.2-45.9-21.2-69.8-29.5
					c-16.5-5.7-32.8-12.7-50.9-12.3c-2.6-0.9-5.1-2-7.7-2.5c-11.2-2.5-22.7-3.3-33.9-6.1c-8.4-2.1-17.3-2.7-26.1-3.1
					c-14-0.7-28-2.6-42.1-1.2c-6.7,0.7-13.6-0.5-20.3-0.7c-15-0.5-30,0.2-44.9,2.4c-9.4,1.4-19.1,1.7-28.7,2.4
					c-4.4,0.3-8.8-0.1-13.2,0.3c-9.7,0.8-19.4,2.3-29,3.6c-11.3,1.5-22.9,2.1-33.9,4.9c-13.6,3.5-27.5,5.2-41.2,8.4
					c-1.5,0.2-3.1,0.5-4.6,0.7c-9.4-5.6-19.5-9.7-29.2-14.7c-18-9.3-36.5-17.8-56.3-23c-9.2-2.4-18-6.4-27-9.6
					c-10.6-3.9-22-5.8-33-8.7c-15.4-4-31.5-3.1-46.9-6.8c-13-2.8-26.3-3.6-39.4-5.6c-11.2-1.7-22.6-2.7-34-3.6
					c-16-1.3-32.1-1.5-48.1-2c-4.1-0.1-8.2,0.8-12.4,0.8c-15-0.1-29.9-0.2-44.9-0.6c-13-0.3-25.9-1.1-39.1,1.2
					c-10.9,2-22.4,0.1-33.6,0.5c-15,0.5-30.1,1.3-45.1,2.7c-21.9,1.9-44,1.6-65.9,2.4c-17.6,0.6-35,3.2-52.6,3.4
					c-4-0.7-7.9,0.5-11.8,0.6c-13.3,0.4-26.5,0.5-39.8,0.9c-23.4,0.7-46.7-0.4-70.1-1.7c-7.7-0.4-15.5,0.6-23.3,1
					c-1.8,0.2-2.9-0.9-3.8-2.3c-8.4-15-14.8-31-23.1-46.1c-8.5-15.5-16.3-31.3-26.9-45.6c-8.1-11-16-22.2-24-33.3
					c-7.6-10.5-18.1-18.4-27.7-27c-6.7-5.9-14.8-9.3-22.2-13.9C15.8,905.1,9.1,898.9,0.1,896.9z"/>
				<path class="st3" d="M1042,100.9c-2.3-0.8-4.6-1.7-6.9-2.5c0-1.8-1.5-2.5-2.7-3.3c-18.1-12.5-37-23.7-57.3-32.4
					c-7.4-3.2-14.8-6.4-22.2-9.6c4-2.7,6.7,1.3,10,2.1c2.8,0.6,5.9,2.2,7.6-0.8c2.3-3.8,4.2-8,5.2-12.3c2.3-10,4.7-11.2,13.4-5.5
					c0.3,0.2,0.6,0.3,0.9,0.5c4,2.6,5.6,2.2,7.4-2.2c0.9-2.1,1.1-5.4,3.3-5.8c6-1.1,5-5.3,5.3-9.4c0.2-2.9,1.2-5.8,2.1-8.7
					c1.5-5.2,2.8-5.6,7.9-3.5c11.4,4.9,8.1,4.7,12.8-5.5c0.3-0.6,0.1-1.3,0.2-2c106.7,0,213.3,0,320,0c-1.8,2.2,0.6,8.3-5.7,6.1
					c-5.8-2-6.2-1.7-6.3,4.4c0,2.4,0.8,5.5-2,6.7c-3.2,1.4-6.4-2.4-10.1-0.6c-1.3,0.6-1.9-1.5-2.5-2.7c-0.7-1.3-1.6-2.2-3.2-1.7
					c-1.5,0.5-1.3,1.8-1.3,2.9c0,4.8,0.1,9.7,0,14.5c-0.2,6.4-2.3,7.7-8.1,5.3c-4-1.7-5.8-0.5-5.9,4c-0.1,4.7,0.1,9.3,0,14
					c-0.1,3.6-1.3,4.9-5,2.7c-5.2-3.2-7.1-2.4-9.5,3.2c-0.5,1.1-0.7,2.2-1.2,3.3c-1.2,2.6-2.7,4.4-6.2,3.1c-3.4-1.3-5.3,0.8-6.1,4
					c-1.3,5.3-1.1,10.9-4.1,15.7c-3.3-0.4-6.6-1.4-10-0.9c-2,0-4,0-6,0c-1.7,0-3.3,0-5,0c-1.5-1.6-3.4-0.9-5.2-1
					c-29.6-0.1-59.1,0-88.6,2.8c-15.5,1.5-31,2.6-46.4,4.3c-21.2,2.3-42.3,5.2-63.4,7.9C1045.3,98.4,1042.8,98.2,1042,100.9z"/>
				<path class="st4" d="M1271.9,85.1c3-4.8,2.8-10.4,4.1-15.7c0.8-3.2,2.7-5.3,6.1-4c3.5,1.3,4.9-0.5,6.2-3.1
					c0.5-1,0.8-2.2,1.2-3.3c2.4-5.6,4.2-6.4,9.5-3.2c3.6,2.2,4.9,0.9,5-2.7c0.1-4.7,0-9.3,0-14c0.1-4.5,1.9-5.7,5.9-4
					c5.8,2.4,7.9,1.1,8.1-5.3c0.1-4.8,0-9.7,0-14.5c0-1.1-0.2-2.5,1.3-2.9c1.6-0.5,2.5,0.4,3.2,1.7c0.6,1.1,1.3,3.3,2.5,2.7
					c3.7-1.7,6.8,2.1,10.1,0.6c2.8-1.2,1.9-4.3,2-6.7c0.1-6,0.5-6.3,6.3-4.4c6.3,2.2,3.9-3.9,5.7-6.1c82.3,0,164.6,0,247-0.1
					c3.4,0,4.2,0.7,4.1,4.1c-0.3,8.7-0.1,17.3-0.1,26c-2.5,1.1-6-3.1-7.7,0.7c-2.5,5.5-5.8,4.8-10,2.6c-1.9-1-4-1.7-5.9-2.5
					c-2.4-1-4.1-1.2-4.6,2.1c-0.2,1.6-1.1,3.1-1.6,4.7c-1.3,3.8-3.7,4.3-7,2.6c-1-0.5-2.1-1-3.1-1.6c-8-4-8-4-11.1,4.2
					c-1.1,3-2.4,5.3-6.1,3.3c-2.9-1.6-4.4-0.3-5.7,2.4c-1.1,2.3-1.6,6.4-4.3,6.1c-4.1-0.4-7.8,2-11.3,1.1c-4.8-1.2-4.9,1.6-5.4,4.5
					c-0.3,1.8,0.1,3.6,0.6,5.4c0.7,2.8,0,6-3.2,6.2c-4,0.3-4.9,2.9-6,5.6c-2.8,6.8-3.5,7-10.2,3.7c-1-0.5-2.2-0.9-3.1-1.6
					c-4.1-3.1-6.3-1.9-8.3,2.7c-2.9,6.8-3.7,6.8-10.1,3.7c-8.4-4.2-8.4-4.2-12.3,4.2c-0.8,1.6-1.8,3.1-2.9,4.7s-2.6,2.4-4.7,2.1
					c-5-0.7-6.8,0.9-6.8,6.1c-0.1,4.3,0.2,8.7-0.1,13c-0.5,6.2-2.6,7.2-8.1,4.5c-1.8-0.9-3.5-1.9-5.4-2.6c-3.3-1.4-11.3,1-12.8,4.2
					c-1.6,3.5-4.2,4.5-7.6,4.1c-6.9-2.5-13.1-6.3-19.7-9.3c-22.2-10.2-45.1-18-68.9-23.5C1308.3,89.1,1290.2,86.6,1271.9,85.1z"/>
				<path class="st5" d="M191.1,1234.9c-62.3,0-124.7,0-187,0.1c-3.4,0-4.1-0.7-4.1-4.1c0.1-57.7,0.1-115.3,0.1-173
					c5.3,1.2,10.6,2.4,15.9,3.5c19.4,4,38.8,7.4,58.5,9.6c7.5,0.8,15,2,22.5,3c0.2,2.5,2.3,4.4,2,7.1c-0.6,4.5,0.7,8.2,4.7,10.8
					c1.4,0.9,1.3,2.2,1.3,3.5c0.1,3.2-0.1,6.3-0.9,9.4c-1.8,7-0.2,8.7,7,7.6c1.2-0.2,2.3-0.5,2.8,1c1.1,3.1,2.9,6,3.1,9.4
					c0.5,6.9,3.6,12,9.9,15.2c8.1,4,8.3,4.2,5.3,12.4c-1.6,4.4-0.4,6.9,3.8,8.6c2.9,1.2,5.8,2.4,8.6,3.9c2.4,1.2,3.7,3.2,2.9,6.1
					c-1.8,5.9-1.1,6.9,5.1,7c2.9,0,6,0,7,3.4c1,3.5,2.3,7,0.9,10.7c-1.4,3.7,0.4,6.2,3.4,7.8c2.9,1.5,6,2.9,9.1,3.9
					c8.1,2.6,8.2,2.5,5.3,10.5c-0.4,1.2-0.9,2.5-1.7,3.6c-2.4,3.4-1.8,5.4,2.4,6.3c1.3,0.3,2.4,1.2,3.7,1.5
					C191.1,1226.1,191.1,1226,191.1,1234.9z"/>
				<path class="st6" d="M1414.9,126.1c3.5,0.4,6-0.6,7.6-4.1c1.5-3.2,9.5-5.6,12.8-4.2c1.8,0.8,3.6,1.8,5.4,2.6
					c5.5,2.7,7.6,1.7,8.1-4.5c0.3-4.3,0-8.6,0.1-13c0.1-5.2,1.9-6.8,6.8-6.1c2.1,0.3,3.6-0.4,4.7-2.1c1-1.5,2.1-3,2.9-4.7
					c3.9-8.4,3.9-8.4,12.3-4.2c6.3,3.2,7.2,3.1,10.1-3.7c2-4.6,4.1-5.8,8.3-2.7c0.9,0.7,2.1,1.1,3.1,1.6c6.7,3.3,7.4,3,10.2-3.7
					c1.1-2.7,2-5.3,6-5.6c3.2-0.2,3.9-3.4,3.2-6.2c-0.5-1.8-0.9-3.6-0.6-5.4c0.4-2.9,0.5-5.7,5.4-4.5c3.5,0.9,7.3-1.5,11.3-1.1
					c2.7,0.3,3.2-3.8,4.3-6.1c1.3-2.7,2.8-4,5.7-2.4c3.7,2,5-0.3,6.1-3.3c3.1-8.2,3.1-8.2,11.1-4.2c1,0.5,2.1,1,3.1,1.6
					c3.3,1.7,5.7,1.2,7-2.6c0.5-1.6,1.4-3.1,1.6-4.7c0.5-3.3,2.2-3.2,4.6-2.1c2,0.9,4,1.5,5.9,2.5c4.2,2.2,7.5,3,10-2.6
					c1.7-3.8,5.1,0.4,7.7-0.7c0,70,0,140,0,210c-6.4-1.1-12-4.1-17.3-8c-4.1-3-8.8-5.2-13.2-7.7c-4-2.3-8.3-4.2-12.2-6.7
					c-3.2-2-6.5-3.1-10.3-2.7c2.2-1.5,0.6-2.3-0.6-3c-14.2-9.1-28.2-18.5-42.1-28.2c-13.3-9.3-27-18-40.3-27.3
					c-8-5.6-16.6-9.9-24.6-15.5C1431.6,135.5,1423.1,131,1414.9,126.1z"/>
				<path class="st7" d="M191.1,1234.9c0-8.9,0-8.8-8.3-11.3c-1.3-0.4-2.4-1.3-3.7-1.5c-4.2-0.9-4.8-2.9-2.4-6.3
					c0.7-1.1,1.2-2.3,1.7-3.6c2.9-8,2.8-7.9-5.3-10.5c-3.1-1-6.2-2.4-9.1-3.9c-3-1.6-4.9-4.1-3.4-7.8c1.4-3.7,0.1-7.3-0.9-10.7
					c-1-3.4-4.1-3.4-7-3.4c-6.1-0.1-6.8-1-5.1-7c0.9-2.9-0.4-4.9-2.9-6.1c-2.8-1.4-5.7-2.7-8.6-3.9c-4.2-1.7-5.4-4.2-3.8-8.6
					c3-8.3,2.9-8.4-5.3-12.4c-6.4-3.1-9.5-8.3-9.9-15.2c-0.2-3.4-2-6.3-3.1-9.4c-0.5-1.5-1.6-1.2-2.8-1c-7.2,1-8.8-0.6-7-7.6
					c0.8-3.1,1-6.2,0.9-9.4c0-1.3,0.1-2.7-1.3-3.5c-4-2.5-5.2-6.3-4.7-10.8c0.3-2.7-1.8-4.6-2-7.1c13.6,0.4,27.1,1.6,40.6,2.8
					c3.1,0.3,6.6,1.3,9.6-1c0.9,1.4,2,2.4,3.8,2.3c-0.1,1.2,0.2,2.2,0.8,3.3c14.7,23.8,32.3,45.1,54,62.7c22.5,18.2,48.2,31,75.3,41
					c17.6,6.5,35.5,11.7,53.9,15.7c13.9,3,27.8,5.9,42,7.2c1.7,0.3,3.3,0.6,5,1c0.7,0,1.3,0,2,0c2,0.3,4,0.6,6,1c0.7,0,1.3,0,2,0
					c5.4,0.7,10.8,1.5,16.2,2c21.2,1.8,42.5,2.2,63.8,3c-1.7,7.4-0.9,14,6.4,18.2c0.4,0.2,0.4,1.2,0.6,1.8
					C383,1234.9,287.1,1234.9,191.1,1234.9z"/>
				<path class="st8" d="M1029,0.1c0,0.7,0.1,1.4-0.2,2c-4.7,10.2-1.4,10.4-12.8,5.5c-5.1-2.2-6.4-1.8-7.9,3.5
					c-0.8,2.9-1.9,5.7-2.1,8.7c-0.3,4.1,0.7,8.3-5.3,9.4c-2.2,0.4-2.4,3.7-3.3,5.8c-1.8,4.4-3.4,4.8-7.4,2.2
					c-0.3-0.2-0.6-0.3-0.9-0.5c-8.7-5.7-11-4.6-13.4,5.5c-1,4.3-3,8.5-5.2,12.3c-1.8,3-4.8,1.4-7.6,0.8c-3.3-0.8-6-4.7-10-2.1
					c-12.8-3.5-25.4-7.4-38.4-9.8c-17.3-3.2-34.6-5.7-52.1-6.1c-24.4-0.6-48.7,0.1-73.1,2.7c-16.8,1.8-33.5,4.1-50.1,6.5
					c-16.5,2.3-32.9,5.5-49.3,8.9c-6.7,1.4-13.8,1.4-20,5c-2.3-1.7-4.9,0-7.3-0.5c0.7-0.7,1-1.2-0.1-1.9c-2.5-1.4-4.8-2.9-7.4-4.2
					c-20.5-10.1-40.7-20.8-61.9-29.6c-28.3-12-57.6-19.2-88.1-22.3c-5-0.5-10.2,0.3-15-1.8C669.7,0.1,849.3,0.1,1029,0.1z"/>
				<path class="st9" d="M1229,1131.8c18-0.4,34.4,6.6,50.9,12.3c23.9,8.3,46.3,20.2,69.8,29.5c18.5,7.3,36.1,16.5,54.4,24.2
					c4.4,1.8,8.6,4.2,12.6,6.6c9,5.4,18.5,7.4,29.1,6.9c14.8-0.7,29.7-0.7,44.5,0c17.6,0.8,35.1,1.7,52.7,1.8
					c17.2,0.1,34.4,0.8,51.5,2c1.8,0.1,3.6,0.6,5.4,0.9c0,5.7-0.1,11.3,0.1,17c0,1.7-0.3,2.3-2.1,2c-0.8-0.1-1.7,0-2.5,0
					c-85.2,0-170.3,0-255.5,0c-0.2-2.1,0.8-4.8-1.8-5.8c-5.2-1.8-4.1-4.9-2.3-8.5c1.7-3.4,0.3-5.8-3.4-5.6
					c-16,0.6-31.5-3.8-47.4-3.9c-25.7-0.2-51.4-0.6-77.1-2.1c-1.5-3.6-0.4-6.9,0.7-10.5c2.4-8.2,7.6-14.9,10.6-22.8
					C1224.6,1161.4,1231.3,1147.6,1229,1131.8z"/>
				<path class="st10" d="M147.3,1075.7c-3,2.3-6.5,1.3-9.6,1c-13.5-1.2-27-2.4-40.6-2.8c-7.5-1-15-2.1-22.5-3
					c-19.7-2.2-39.1-5.6-58.5-9.6c-5.3-1.1-10.6-2.3-15.9-3.5c0-53.7,0-107.3,0-161c9,1.9,15.7,8.2,23.2,12.8
					c7.4,4.6,15.6,7.9,22.2,13.9c9.7,8.6,20.2,16.5,27.7,27c8,11.1,15.9,22.4,24,33.3c10.7,14.4,18.4,30.2,26.9,45.6
					C132.4,1044.7,138.9,1060.7,147.3,1075.7z"/>
				<path class="st11" d="M490,0.1c4.8,2.1,10.1,1.3,15,1.8C535.6,5,564.9,12.2,593.2,24c21.2,8.8,41.3,19.6,61.9,29.6
					c2.5,1.2,4.9,2.8,7.4,4.2c1.1,0.6,0.9,1.2,0.1,1.9c-11.6,3.3-23.6,5-35.4,7.2c-8.3,1.5-17,1.7-25,3.8c-15,4.1-30.4,4.9-45.7,7.2
					c-7.5,1.2-15.2,0.6-22.8,0.8c-15.1,0.5-30.1,3.3-45.2,2.2c-11.9-0.9-23.9-0.5-35.5-3.2c-6.9-1.6-13.9-2.6-20.8-3.9
					c2.2-9.2,6.2-17.7,9.8-26.4c1.4-3.3,2.2-6.5,2.2-10.1c-0.1-12.4,0-24.9,0-37.3C459.4,0.1,474.7,0.1,490,0.1z"/>
				<path class="st8" d="M479,1234.9c-0.2-0.6-0.2-1.6-0.6-1.8c-7.3-4.3-8.1-10.8-6.4-18.2c0.7-0.9,1.7-1,2.7-1
					c18.9,0.2,37.8-0.4,56.7-1.9c14.7-1.2,29.4-2.4,43.9-4.4c19.5-2.6,39-4.8,58.3-8.7c26.9-5.5,53.8-10.7,80.7-16.1
					c9.2-1.9,18.4-4,27.6-5.9c2.6,1.7,4.8,3.2,5.5,7c0.5,2.8,4.2,3.8,7.3,3.9c0.9,0,1.6-0.6,1.8-1.5c0.3-1.2-0.6-1.8-1.5-2.3
					c-2.2-1.2-4.4-2.3-6.6-3.4c2.4-3,10-6,12.4-4.4c3.1,2.1,5.6,5,5.2,9.4c-0.3,2.5,0.1,5-0.1,7.5c-0.2,2.8,0.2,5.1,3.1,6.6
					c2.3,1.3,3.3,3.3,2.2,6.3c-0.9,2.3-0.1,4.4,2.3,6.4c4.2,3.6,8.5,6.9,13.6,9c2,0.9,3.5,2.2,2.7,4.6c-1.1,2.9-0.6,5.9-0.7,8.9
					C685.7,1234.9,582.4,1234.9,479,1234.9z"/>
				<path class="st4" d="M903.4,1140.8c1.5-0.2,3.1-0.5,4.6-0.7c0.1,1.8,1.4,2.3,2.8,2.9c18.8,8.8,37.9,17.1,57.1,24.8
					c0,2.3,1.9,2.9,3.5,3.7c8.8,4.7,18.6,6.6,28.1,9.4c12.9,3.8,11.2,2.3,7.1,13.5c-0.3,0.8-0.4,1.7-0.8,2.3
					c-3.1,4.6-0.8,6.8,3.4,8.6c2.7,1.1,6,2.1,5.7,6c-0.6,7.8,1.2,15.5,1,23.3c-40.7,0-81.3,0-122,0c-0.2-3.7-4.7-4.3-5.2-8.1
					c-0.4-3.5-0.8-6.9-0.8-10.4c0-1.9,0.1-3.9-2.3-4.3c-3.4-0.5-6.1-2.5-9.1-3.9c-7.3-3.4-7.3-3.4-5-11.3c0-0.2,0.1-0.3,0.2-0.5
					c1.9-3.9,1.1-6.6-3.1-8.3c-3.4-1.4-5.1-4.1-4.6-7.9c0.4-2.9-0.1-5.6-2.7-7.6c-0.6-0.4-0.9-1.4-1-2.1c-0.5-6.7-6.8-14.2-12.8-16
					c-2.3-0.7-4.6,1.9-6.5-0.6c11.5-3.7,23.5-5.2,35.2-7.8C885.2,1144.1,894.1,1141.6,903.4,1140.8z"/>
				<path class="st6" d="M1016,1234.9c0.2-7.8-1.6-15.5-1-23.3c0.3-3.9-3-4.9-5.7-6c-4.2-1.8-6.5-4.1-3.4-8.6
					c0.4-0.7,0.5-1.6,0.8-2.3c4.1-11.3,5.8-9.7-7.1-13.5c-9.5-2.8-19.3-4.7-28.1-9.4c-1.6-0.8-3.5-1.4-3.5-3.7
					c1.7,0.6,3.4,1.3,5.1,1.9c19.8,6.6,39.6,13.2,60,17.8c21.9,5,44,9.1,66.2,12.2c16.8,2.3,33.7,4.2,50.7,5.5
					c19.3,1.5,38.6,2.9,57.9,3.7c25.7,1.6,51.4,1.9,77.1,2.1c15.8,0.1,31.4,4.5,47.4,3.9c3.7-0.1,5.1,2.2,3.4,5.6
					c-1.8,3.7-2.8,6.7,2.3,8.5c2.6,0.9,1.6,3.7,1.8,5.8C1231.9,1234.9,1123.9,1234.9,1016,1234.9z"/>
				<path class="st3" d="M841,1153.9c1.9,2.5,4.3-0.1,6.5,0.6c6,1.8,12.3,9.3,12.8,16c0.1,0.7,0.4,1.7,1,2.1c2.6,2,3,4.7,2.7,7.6
					c-0.5,3.9,1.2,6.5,4.6,7.9c4.2,1.7,5,4.4,3.1,8.3c-0.1,0.1-0.1,0.3-0.2,0.5c-2.2,7.8-2.3,7.9,5,11.3c3,1.4,5.7,3.4,9.1,3.9
					c2.4,0.4,2.3,2.5,2.3,4.3c0,3.5,0.4,6.9,0.8,10.4c0.5,3.9,5.1,4.5,5.2,8.1c-35,0-70,0-105,0c0.2-3-0.3-5.9,0.7-8.9
					c0.9-2.4-0.6-3.7-2.7-4.6c-5.1-2.1-9.4-5.4-13.6-9c-2.3-2-3.1-4.1-2.3-6.4c1.1-3,0.2-5-2.2-6.3c-2.9-1.6-3.3-3.8-3.1-6.6
					c0.1-2.5-0.2-5,0.1-7.5c0.5-4.4-2-7.3-5.2-9.4c-2.4-1.6-10,1.4-12.4,4.4c2.2,1.2,4.4,2.3,6.6,3.4c0.9,0.5,1.8,1.1,1.5,2.3
					c-0.2,0.8-0.9,1.5-1.8,1.5c-3.1,0-6.9-1-7.3-3.9c-0.6-3.8-2.8-5.3-5.5-7c3.4-2.2,7.4-1.7,11-3c19-4.3,38-8.7,57-13
					C820.3,1158.5,830.5,1155.6,841,1153.9z"/>
				<path class="st10" d="M444,0.1c0,12.4-0.1,24.9,0,37.3c0,3.6-0.8,6.8-2.2,10.1c-3.6,8.7-7.7,17.2-9.8,26.4
					c-11-3.7-22.8-3.3-33.8-7.3c-15.5-5.6-29.9-13.2-44.4-20.7c-17.8-9.2-34.5-20-50-32.5C298.5,9.1,292.6,5.3,288,0
					C340.1,0.1,392,0.1,444,0.1z"/>
				<path class="st12" d="M753,1173.9c-3.6,1.3-7.7,0.9-11,3c-9.2,2-18.4,4.1-27.6,5.9c-26.9,5.4-53.8,10.6-80.7,16.1
					c-19.3,4-38.8,6.1-58.3,8.7c-14.6,1.9-29.2,3.2-43.9,4.4c-18.9,1.5-37.8,2-56.7,1.9c-1,0-2,0.1-2.7,1c-21.3-0.8-42.6-1.3-63.8-3
					c-5.4-0.5-10.8-1.3-16.2-2c-0.1-0.7-0.1-1.7-1.2-1.5c-0.4,0.1-0.5,1-0.8,1.5c-2-0.3-4-0.6-6-1c-0.1-0.7-0.1-1.7-1.2-1.5
					c-0.4,0.1-0.5,1-0.8,1.5c-1.7-0.3-3.3-0.6-5-1c-0.1-3.1-2.9-3.4-4.9-4.4c-3.7-1.7-5-4-3.2-7.9c1.3-2.7,2.2-5.6,3.4-8.3
					c1.9-4.3,0.9-7.6-3.2-9.8c-2.3-1.3-4.8-2.4-7.1-3.6c-1.1-0.6-2.1-1.3-1.4-2.7c0.6-1.2,1.9-1.5,3-1.1c1.7,0.7,3.2,1.8,4.8,2.5
					c1.7,0.8,3.7,2.4,4.9-0.6c1-2.3,1.3-4.6-1.3-6.1c-1.6-0.9-3.3-1.6-4.9-2.5c-4.9-2.6-5.7-5.3-3.2-10.3c0.7-1.4,1.5-3-0.2-3.9
					c-6.1-3.1-5-7.7-3.1-12.7c0.8-2,1.1-4.5-1.7-5.4c-2.8-0.8-3.2,1.7-4.1,3.4c-0.3,0.6-0.5,1.2-0.7,1.8c-1,2.3-1.4,5.8-5.3,3.9
					c-3.2-1.5-7.4-2.6-4.5-7.8c1.9-3.4,0.8-6.1-2.8-7.7c-1.5-0.7-3-1.5-4.5-2.2c-5.8-2.9-6.5-4.4-4.8-10.5c0.5-1.8,0.7-3.4-0.8-4.5
					c-4.4-3.2-8.9-6.6-15-5.2c-4.2,1-7.2-2-6.2-6.2c0.7-2.8,1.4-5.2-2.1-6.6c-3.1-1.3-5-0.4-6.3,2.6c-1.1,2.3-3.1,2-5.1,1.1
					c-2.2-1-3.2-2.3-2-4.7c1.7-3.6,1.3-7.5,1.4-11.3c17.6-0.2,35-2.8,52.6-3.4c22-0.7,44-0.4,65.9-2.4c15-1.3,30-2.2,45.1-2.7
					c11.2-0.3,22.7,1.5,33.6-0.5c13.1-2.4,26.1-1.6,39.1-1.2c15,0.4,29.9,0.5,44.9,0.6c4.1,0,8.3-0.9,12.4-0.8
					c16,0.5,32.1,0.8,48.1,2c11.3,0.9,22.8,1.9,34,3.6c13.1,2,26.4,2.8,39.4,5.6c-1.9,10.6-1.9,10.6,7.1,15.4
					c0.4,0.2,0.9,0.5,1.3,0.6c3.7,1.3,4.1,3.7,2.7,7.1c-0.9,2.3-2.8,4.5-2.1,7c2.1,6.8-0.8,12.6-3.5,18.5c-1,2.2-0.7,3.5,1.8,4.6
					c3.6,1.6,8,2.4,10.1,6.1c1.8,3.2,3.9,5.5,7.2,6.3c8.6,2.2,7.7,11.8,13.1,16.4c0.5,0.5,0.3,2.4-0.2,3.3c-2.7,4.6-1.8,7.5,3.5,8.8
					C752.5,1172.3,752.7,1173.3,753,1173.9z"/>
				<path class="st13" d="M1414.9,126.1c8.2,4.9,16.7,9.4,24.5,14.9c8,5.6,16.6,9.9,24.6,15.5c13.3,9.3,27,18,40.3,27.3
					c13.9,9.6,27.9,19,42.1,28.2c1.2,0.8,2.8,1.6,0.6,3c-26.8,10.6-54.1,19.5-82.2,26.1c-10.6,2.5-21.3,4.6-31.7,7.8
					c-6.8,2-14.1,2.7-21.1,4c-1.5-1.4-2.1,0-2.9,0.9c-8.3,1.2-16.7,1.7-24.9,2.6c-19.3,2.1-38.6,3-58,2.8c-12.7-0.1-25.6-0.1-38-3.7
					c-17.1-5-34.6-8.5-51.1-15.4c-4.7-2-9.7-3.3-14-6.2c0.3-1.1,0.3-2.3,0.8-3.3c6.3-13.2,7.8-27.2,7.2-41.6
					c-0.1-1.9,0.4-3.6,1.1-5.3c3.2-8,6.7-15.9,9.7-23.9c2.5-6.7,6.9-13,7.2-20.4c0.8-18.4-1.5-36.8,2.1-55.1c1.7,0,3.3,0,5,0
					c2,3.1,4,3.1,6,0c3.4-0.4,6.7,0.5,10,0.9c18.3,1.6,36.4,4.1,54.3,8.2c23.8,5.5,46.8,13.3,68.9,23.5
					C1401.8,119.8,1408,123.6,1414.9,126.1z"/>
				<path class="st14" d="M1207.9,1208.9c-19.3-0.8-38.6-2.2-57.9-3.7c-17-1.3-33.9-3.2-50.7-5.5c-22.2-3-44.3-7.2-66.2-12.2
					c-20.4-4.6-40.2-11.2-60-17.8c-1.7-0.6-3.4-1.2-5.1-1.9c-19.3-7.8-38.3-16-57.1-24.8c-1.4-0.7-2.8-1.1-2.8-2.9
					c13.6-3.1,27.6-4.8,41.2-8.4c11-2.9,22.6-3.4,33.9-4.9c9.7-1.3,19.3-2.7,29-3.6c4.3-0.4,8.8,0,13.2-0.3c9.6-0.7,19.3-1,28.7-2.4
					c15-2.2,29.9-3,44.9-2.4c6.8,0.2,13.6,1.4,20.3,0.7c14.1-1.4,28.1,0.5,42.1,1.2c8.7,0.4,17.7,0.9,26.1,3.1
					c11.2,2.9,22.7,3.6,33.9,6.1c2.6,0.6,5.2,1.7,7.7,2.5c2.3,15.9-4.4,29.7-9.8,43.8c-3,7.9-8.2,14.6-10.6,22.8
					C1207.5,1202,1206.4,1205.3,1207.9,1208.9z"/>
				<path class="st15" d="M669.9,60.2c6.2-3.5,13.3-3.6,20-5c16.3-3.3,32.7-6.6,49.3-8.9c16.7-2.3,33.4-4.6,50.1-6.5
					c24.3-2.6,48.7-3.4,73.1-2.7c17.5,0.5,34.9,2.9,52.1,6.1c13.1,2.4,25.7,6.3,38.4,9.8c7.4,3.2,14.8,6.4,22.2,9.6
					c20.3,8.8,39.1,20,57.3,32.4c1.2,0.8,2.6,1.5,2.7,3.3c-2.5,2.4-5.7,1.1-8.6,1.8c-14.8,3.8-29.9,5-45,6.1
					c-7.7,0.6-15.4,1.7-23.1,2.8c-4.1,0.6-8.1-0.5-12.2-0.2c-25.1,2.1-50.2,5.8-75.5,4c-26.2-1.9-52.7-0.9-78.6-6.7
					c-11.3-2.5-22.4-5.8-33.7-8.2c-17-3.6-33.1-9.6-48.7-16.9C696.2,74.9,683.2,67.2,669.9,60.2z"/>
				<path class="st16" d="M1250.9,84.1c-3.5,18.3-1.3,36.7-2.1,55.1c-0.3,7.4-4.7,13.6-7.2,20.4c-3,8.1-6.5,16-9.7,23.9
					c-0.7,1.7-1.2,3.4-1.1,5.3c0.7,14.4-0.9,28.4-7.2,41.6c-0.5,1-0.5,2.2-0.8,3.3c-2.4,0.7-4.6-0.1-6.7-1.1
					c-15.8-8.1-31.6-16.3-45.7-27.2c-6.9-5.3-13.4-11.3-20.7-15.9c-16.8-10.8-31-24.8-46.7-36.9c-6.8-5.2-11.9-12.2-18.5-17.6
					c-14.1-11.5-28.1-23.2-42.7-34.1c0.8-2.7,3.3-2.5,5.3-2.8c21.1-2.7,42.3-5.6,63.4-7.9c15.5-1.7,31-2.8,46.4-4.3
					c29.5-2.8,59-2.9,88.6-2.8C1247.5,83.1,1249.4,82.5,1250.9,84.1z"/>
				<path class="st17" d="M296.1,1077.3c0,3.8,0.3,7.7-1.4,11.3c-1.1,2.4-0.2,3.7,2,4.7c2,0.9,4.1,1.2,5.1-1.1
					c1.4-3,3.2-3.9,6.3-2.6c3.5,1.4,2.8,3.7,2.1,6.6c-1,4.2,2,7.1,6.2,6.2c6.1-1.4,10.5,2,15,5.2c1.5,1.1,1.3,2.7,0.8,4.5
					c-1.8,6.1-1,7.6,4.8,10.5c1.5,0.7,3,1.5,4.5,2.2c3.5,1.7,4.7,4.3,2.8,7.7c-2.9,5.3,1.3,6.3,4.5,7.8c3.9,1.9,4.3-1.5,5.3-3.9
					c0.3-0.6,0.4-1.3,0.7-1.8c0.9-1.7,1.3-4.2,4.1-3.4c2.9,0.9,2.5,3.4,1.7,5.4c-1.9,5-3.1,9.6,3.1,12.7c1.7,0.9,0.9,2.5,0.2,3.9
					c-2.5,5-1.6,7.8,3.2,10.3c1.6,0.9,3.3,1.6,4.9,2.5c2.7,1.5,2.3,3.8,1.3,6.1c-1.2,3-3.2,1.4-4.9,0.6c-1.6-0.8-3.1-1.9-4.8-2.5
					c-1.1-0.4-2.4-0.1-3,1.1c-0.8,1.4,0.3,2.1,1.4,2.7c2.4,1.2,4.8,2.3,7.1,3.6c4.2,2.3,5.2,5.5,3.2,9.8c-1.2,2.7-2.1,5.6-3.4,8.3
					c-1.8,3.9-0.4,6.2,3.2,7.9c2,0.9,4.7,1.3,4.9,4.4c-14.2-1.3-28.1-4.2-42-7.2c-18.3-3.9-36.3-9.2-53.9-15.7
					c-27.1-10-52.8-22.8-75.3-41c-21.7-17.6-39.3-38.9-54-62.7c-0.7-1.1-0.9-2.1-0.8-3.3c7.8-0.4,15.6-1.4,23.3-1
					c23.3,1.3,46.7,2.4,70.1,1.7c13.3-0.4,26.5-0.5,39.8-0.9C288.2,1077.7,292.1,1076.5,296.1,1077.3z"/>
				<path class="st16" d="M753,1173.9c-0.3-0.6-0.5-1.5-0.9-1.6c-5.3-1.3-6.3-4.2-3.5-8.8c0.5-0.9,0.7-2.9,0.2-3.3
					c-5.4-4.6-4.4-14.2-13.1-16.4c-3.3-0.8-5.5-3.2-7.2-6.3c-2-3.6-6.5-4.5-10.1-6.1c-2.5-1.1-2.8-2.4-1.8-4.6
					c2.6-5.9,5.5-11.7,3.5-18.5c-0.8-2.6,1.2-4.8,2.1-7c1.4-3.4,1-5.8-2.7-7.1c-0.5-0.2-0.9-0.4-1.3-0.6c-9-4.8-9-4.8-7.1-15.4
					c15.4,3.7,31.5,2.7,46.9,6.8c11,2.9,22.4,4.8,33,8.7c9,3.3,17.8,7.2,27,9.6c19.8,5.2,38.3,13.7,56.3,23
					c9.7,5,19.8,9.1,29.2,14.7c-9.3,0.8-18.2,3.2-27.2,5.2c-11.7,2.6-23.7,4.2-35.2,7.8c-10.5,1.7-20.6,4.6-31,7
					C791,1165.2,772,1169.6,753,1173.9z"/>
				<path class="st4" d="M1408.9,253.7c0.8-0.9,1.4-2.3,2.9-0.9C1411.1,253.9,1410,253.9,1408.9,253.7z"/>
				<path class="st16" d="M1261.9,84.1c-2,3-4,3.1-6,0C1257.9,84.1,1259.9,84.1,1261.9,84.1z"/>
				<path class="st17" d="M382,1208.9c0.3-0.5,0.5-1.4,0.8-1.5c1.1-0.2,1.1,0.8,1.2,1.5C383.4,1208.9,382.7,1208.9,382,1208.9z"/>
				<path class="st17" d="M390,1209.9c0.3-0.5,0.4-1.4,0.8-1.5c1.1-0.2,1.1,0.8,1.2,1.5C391.4,1209.9,390.7,1209.9,390,1209.9z"/>
			</g>
		</g>
		<g class="st0">
			<g class="st1">
				<defs>
					<rect id="SVGID_1_" y="366.3" width="1600" height="868.7"/>
				</defs>
				<clipPath id="SVGID_00000109009917911424695160000017287209128649497784_">
					<use xlink:href="#SVGID_1_"  style="overflow:visible;"/>
				</clipPath>
				<g style="clip-path:url(#SVGID_00000109009917911424695160000017287209128649497784_);">
				</g>
			</g>
		</g>
		<g>
			<g>
				<defs>
					<rect id="SVGID_00000157991754029434280020000013683695607423230905_" x="2039.9" y="-39.9" width="1600" height="1341.4"/>
				</defs>
				<clipPath id="SVGID_00000152222089575726606560000008082394333626080947_">
					<use xlink:href="#SVGID_00000157991754029434280020000013683695607423230905_"  style="overflow:visible;"/>
				</clipPath>
				<g style="clip-path:url(#SVGID_00000152222089575726606560000008082394333626080947_);">
				</g>
			</g>
		</g>
	</g>
	
		<linearGradient id="SVGID_00000105397046523380459780000001242366589122498986_" gradientUnits="userSpaceOnUse" x1="489.3" y1="1102.9158" x2="1721.5461" y2="1102.9158" gradientTransform="matrix(1 0 0 -1 0 1233.8899)">
		<stop  offset="0" style="stop-color:#CFE7CB"/>
		<stop  offset="0.9192" style="stop-color:#5CBFB1"/>
	</linearGradient>
	<path style="display:none;fill:url(#SVGID_00000105397046523380459780000001242366589122498986_);" d="M489.3,0
		c61.6,2.5,99,19.3,178.3,58.8c94.4,46.9,143.3,71.2,370.3,39.9c288.7-39.8,345.7,4.8,453.1,76c50.8,33.7,145.9,104.7,230.1,83.3
		c9-2.3-121.1-258-121.1-258H489.3z"/>
	
		<linearGradient id="SVGID_00000121272868154509631100000016208342879702538625_" gradientUnits="userSpaceOnUse" x1="479.6361" y1="1102.9114" x2="1619.0327" y2="1102.9114" gradientTransform="matrix(1 0 0 -1 0 1233.8899)">
		<stop  offset="5.580357e-04" style="stop-color:#B1D8AC"/>
		<stop  offset="1" style="stop-color:#91CEB8"/>
	</linearGradient>
	<path style="display:none;fill:url(#SVGID_00000121272868154509631100000016208342879702538625_);" d="M1721.1,258
		c-57.8,14.7-120.6-14.1-170.8-44.6c0.5-0.1,0.9-0.3,1.3-0.4c24.4-8,35.3-14.2,48.4-23.7V0C1600,0,1730.1,255.7,1721.1,258z
		 M1600,189.4V0H489.3c61.6,2.5,99,19.3,178.3,58.8c0.3,0.2,0.7,0.3,1,0.5c191.8-39.5,282.9-26.9,370.2,39.2
		c287.9-39.6,344.9,5,452.2,76.2c16,10.6,36.3,24.9,59.3,38.8c0.5-0.1,0.9-0.3,1.3-0.4C1576,205.1,1586.9,198.9,1600,189.4z"/>
	<g class="st0">
		
			<linearGradient id="SVGID_00000109751710924100815770000000493823369744038788_" gradientUnits="userSpaceOnUse" x1="1774.2605" y1="2132.9702" x2="3086.1606" y2="2132.9702" gradientTransform="matrix(-1 0 0 1 3013.5605 -579.9073)">
			<stop  offset="0" style="stop-color:#BCDCAA"/>
			<stop  offset="1" style="stop-color:#68C1AB"/>
		</linearGradient>
		<path style="display:inline;fill:url(#SVGID_00000109751710924100815770000000493823369744038788_);" d="M1239.3,1681.6
			c-110.1-99.8-234-89.6-379.4-59.5c-194.7,40.3-285.9,27-374.2-41.2c-155.6-120.1-193.4-216-509.9-112.3
			c-24.4,8-35.3,14.2-48.4,23.7v189.4L1239.3,1681.6L1239.3,1681.6z"/>
		
			<linearGradient id="SVGID_00000170258788567945771260000003620829827166970808_" gradientUnits="userSpaceOnUse" x1="1774.1605" y1="2221.3562" x2="2161.8931" y2="2221.3562" gradientTransform="matrix(-1 0 0 1 3013.5605 -579.9073)">
			<stop  offset="0" style="stop-color:#C0DEAA"/>
			<stop  offset="1" style="stop-color:#ABD6A4"/>
		</linearGradient>
		<path style="display:inline;fill:url(#SVGID_00000170258788567945771260000003620829827166970808_);" d="M859.8,1622.8
			c-0.3-0.2-0.7-0.3-1-0.5c0.4-0.1,0.8-0.2,1.2-0.2c145.4-30.1,269.3-40.3,379.4,59.5H1038C976.4,1679.1,939.1,1662.2,859.8,1622.8z
			"/>
		
			<linearGradient id="SVGID_00000136378585819273837360000009233753912195010709_" gradientUnits="userSpaceOnUse" x1="2530.8479" y1="2107.5869" x2="3045.8826" y2="2071.5723" gradientTransform="matrix(-1 0 0 1 3013.5605 -579.9073)">
			<stop  offset="0" style="stop-color:#90CCA0"/>
			<stop  offset="0.5299" style="stop-color:#7EC6A0"/>
			<stop  offset="0.9863" style="stop-color:#6EC2A3"/>
		</linearGradient>
		<path style="display:inline;fill:url(#SVGID_00000136378585819273837360000009233753912195010709_);" d="M488.6,1583
			c-1-0.7-1.9-1.5-2.9-2.2c-155.3-120-193.3-215.7-508.6-112.7c23,13.9,43.3,28.2,59.3,38.8C143.7,1578,200.7,1622.6,488.6,1583z"/>
		
			<linearGradient id="SVGID_00000075126450694815107330000007720311032830802057_" gradientUnits="userSpaceOnUse" x1="2154.7605" y1="2186.6604" x2="2531.9158" y2="2186.6604" gradientTransform="matrix(-1 0 0 1 3013.5605 -579.9073)">
			<stop  offset="0" style="stop-color:#9BCE92"/>
			<stop  offset="0.5036" style="stop-color:#97CD99"/>
			<stop  offset="1" style="stop-color:#91CCA0"/>
		</linearGradient>
		<path style="display:inline;fill:url(#SVGID_00000075126450694815107330000007720311032830802057_);" d="M858.8,1622.3
			c-93.7-46.6-143.1-70.6-369.2-39.4c-0.3,0-0.6,0.1-0.9,0.1C575.9,1649.2,667,1661.8,858.8,1622.3z"/>
		
			<linearGradient id="SVGID_00000175295340145028480540000006511623940495395209_" gradientUnits="userSpaceOnUse" x1="1774.2467" y1="2154.7573" x2="3086.2039" y2="2154.7573" gradientTransform="matrix(-1 0 0 1 3013.5605 -579.9073)">
			<stop  offset="0" style="stop-color:#BCDCAA"/>
			<stop  offset="1" style="stop-color:#68C1AB"/>
		</linearGradient>
		<path style="display:inline;fill:url(#SVGID_00000175295340145028480540000006511623940495395209_);" d="M-72.6,1492.2v189.4H1038
			c-61.6-2.5-99-19.3-178.3-58.8c-0.3-0.2-0.7-0.3-1-0.5c-191.8,39.5-282.9,26.9-370.2-39.2c-287.9,39.6-344.9-5-452.2-76.2
			c-16-10.6-36.3-24.9-59.3-38.8c-0.5,0.1-0.9,0.3-1.3,0.4C-48.6,1476.5-59.6,1482.7-72.6,1492.2z"/>
		
			<linearGradient id="SVGID_00000106108845323885607780000001135932341237782453_" gradientUnits="userSpaceOnUse" x1="3035.1042" y1="2130.479" x2="3193.4773" y2="2130.479" gradientTransform="matrix(-1 0 0 1 3013.5605 -579.9073)">
			<stop  offset="5.580357e-04" style="stop-color:#85CAB0"/>
			<stop  offset="0.4908" style="stop-color:#85CAB3"/>
			<stop  offset="1" style="stop-color:#8FCEB8"/>
		</linearGradient>
		<path style="display:inline;fill:url(#SVGID_00000106108845323885607780000001135932341237782453_);" d="M-193.7,1423.5
			c57.8-14.7,120.6,14.1,170.8,44.6c-0.5,0.1-0.9,0.3-1.3,0.4c-24.4,8-35.3,14.2-48.4,23.7v189.4
			C-72.6,1681.6-202.7,1425.8-193.7,1423.5z"/>
		
			<linearGradient id="SVGID_00000062906215480242024620000016073391963358230955_" gradientUnits="userSpaceOnUse" x1="1966.7961" y1="2154.7573" x2="2993.8254" y2="2154.7573" gradientTransform="matrix(-1 0 0 1 3013.5605 -579.9073)">
			<stop  offset="5.580357e-04" style="stop-color:#BBDDB2"/>
			<stop  offset="0.4908" style="stop-color:#A5D5B2"/>
			<stop  offset="1" style="stop-color:#8FCEB8"/>
		</linearGradient>
		<path style="display:inline;fill:url(#SVGID_00000062906215480242024620000016073391963358230955_);" d="M-72.6,1492.2v189.4H1038
			c-61.6-2.5-99-19.3-178.3-58.8c-0.3-0.2-0.7-0.3-1-0.5c-191.8,39.5-282.9,26.9-370.2-39.2c-287.9,39.6-344.9-5-452.2-76.2
			c-16-10.6-36.3-24.9-59.3-38.8c-0.5,0.1-0.9,0.3-1.3,0.4C-48.6,1476.5-59.6,1482.7-72.6,1492.2z"/>
	</g>
	
		<linearGradient id="SVGID_00000063602237457759512730000001633049127479439236_" gradientUnits="userSpaceOnUse" x1="-108.2853" y1="177.7089" x2="1378.7236" y2="177.7089" gradientTransform="matrix(1 0 0 -1 0 1233.8899)">
		<stop  offset="5.580357e-04" style="stop-color:#B1D8AC"/>
		<stop  offset="1" style="stop-color:#91CEB8"/>
	</linearGradient>
	<path style="display:none;fill:url(#SVGID_00000063602237457759512730000001633049127479439236_);" d="M1512.5,1235
		c-112.2-7.2-242.5-173.4-608.8-94c-184.6,40-616.2,172-754.5-64.1c-44.6-76.1-66.1-155.1-181.3-194.5C-191.9,827.8,0,1235,0,1235
		H1512.5z"/>
	
		<linearGradient id="SVGID_00000125598109993812647580000002745143701191702415_" gradientUnits="userSpaceOnUse" x1="-157.5224" y1="111.5898" x2="1524.4281" y2="111.5898" gradientTransform="matrix(1 0 0 -1 0 1233.8899)">
		<stop  offset="5.580357e-04" style="stop-color:#B1D8AC"/>
		<stop  offset="1" style="stop-color:#91CEB8"/>
	</linearGradient>
	
		<path style="display:none;opacity:0.35;fill:url(#SVGID_00000125598109993812647580000002745143701191702415_);enable-background:new    ;" d="
		M-143.2,1009.5c75.8,45.5,219.9,66.7,293.2,68.8c136.6,3.9,326.5-13.5,474-9.5c173.1,4.7,225.7,51.6,309.9,85.8
		c165.8,67.3,289.8,58.8,502.8,57.8c77.6-0.3,205.5,2.9,237.5,6.6c13.7,1.6-74.3,16.1-74.3,16.1H0L-143.2,1009.5z"/>
	<g>
		<g>
			<defs>
				<rect id="SVGID_00000108993786427420440320000009033343141766469777_" y="894.8" width="1600" height="340.2"/>
			</defs>
			<clipPath id="SVGID_00000129170257864830932990000016541944928992570550_">
				<use xlink:href="#SVGID_00000108993786427420440320000009033343141766469777_"  style="overflow:visible;"/>
			</clipPath>
			<g style="clip-path:url(#SVGID_00000129170257864830932990000016541944928992570550_);">
				
					<linearGradient id="SVGID_00000070112779236152664600000006219020265295279238_" gradientUnits="userSpaceOnUse" x1="-81.9629" y1="256.061" x2="158.3379" y2="256.061" gradientTransform="matrix(1 0 0 -1 0 1233.8899)">
					<stop  offset="0.2408" style="stop-color:#BDDDAA"/>
					<stop  offset="1" style="stop-color:#B6DAA9"/>
				</linearGradient>
				<path style="fill:url(#SVGID_00000070112779236152664600000006219020265295279238_);" d="M150.1,1078.3
					c-0.3-0.5-0.6-0.9-0.8-1.4C104.7,1000.8,83.2,921.8-32,882.4c-80.2-27.4-71.8,61.4-43.6,156.7
					C0.2,1064.4,95,1076.7,150.1,1078.3C150,1078.3,150,1078.3,150.1,1078.3z"/>
				
					<linearGradient id="SVGID_00000009566284895188125720000017058593274151421086_" gradientUnits="userSpaceOnUse" x1="891.8727" y1="67.5463" x2="1468.1725" y2="67.5463" gradientTransform="matrix(1 0 0 -1 0 1233.8899)">
					<stop  offset="0" style="stop-color:#85C8A5"/>
					<stop  offset="0.5212" style="stop-color:#77C5A8"/>
					<stop  offset="1" style="stop-color:#68C1AD"/>
				</linearGradient>
				<path style="fill:url(#SVGID_00000009566284895188125720000017058593274151421086_);" d="M1435.4,1212.3
					c-102.1-44.6-244.2-133.6-531.7-71.4c-0.1,0-0.3,0.1-0.4,0.1c9.9,4.6,20,9.1,30.6,13.4
					C1099.4,1221.7,1223.3,1213.3,1435.4,1212.3z"/>
				
					<linearGradient id="SVGID_00000052825076223566675200000014200541382181777575_" gradientUnits="userSpaceOnUse" x1="-157.5224" y1="111.6398" x2="1524.428" y2="111.6398" gradientTransform="matrix(1 0 0 -1 0 1233.8899)">
					<stop  offset="5.580357e-04" style="stop-color:#B1D8AC"/>
					<stop  offset="1" style="stop-color:#91CEB8"/>
				</linearGradient>
				<path style="fill:url(#SVGID_00000052825076223566675200000014200541382181777575_);" d="M-143.2,1009.5L0,1235
					c0,0-47.7-101.2-75.7-195.9C-101,1030.7-124.3,1020.8-143.2,1009.5z"/>
				
					<linearGradient id="SVGID_00000018206819600586336080000013409052339596406151_" gradientUnits="userSpaceOnUse" x1="148.7405" y1="92.8342" x2="916.262" y2="92.8342" gradientTransform="matrix(1 0 0 -1 0 1233.8899)">
					<stop  offset="5.580357e-04" style="stop-color:#AFD7A3"/>
					<stop  offset="0.4493" style="stop-color:#9CD0A3"/>
					<stop  offset="1" style="stop-color:#86C9A3"/>
				</linearGradient>
				<path style="fill:url(#SVGID_00000018206819600586336080000013409052339596406151_);" d="M903.3,1141.1
					c-68.7-31.9-128-68.2-279.2-72.3c-147.5-4-337.4,13.4-474,9.5C289.1,1312.2,718.8,1181.1,903.3,1141.1z"/>
				
					<linearGradient id="SVGID_00000053537810107249947400000016155795500005218234_" gradientUnits="userSpaceOnUse" x1="1432.3582" y1="10.2493" x2="1608.1022" y2="10.2493" gradientTransform="matrix(1 0 0 -1 0 1233.8899)">
					<stop  offset="5.580357e-04" style="stop-color:#63C0AE"/>
					<stop  offset="1" style="stop-color:#5BBEB2"/>
				</linearGradient>
				<path style="fill:url(#SVGID_00000053537810107249947400000016155795500005218234_);" d="M1674.3,1218.9
					c-32-3.6-159.9-6.9-237.5-6.6c-0.4,0-0.9,0-1.3,0c28,12.2,52.9,21.1,77,22.7h87.5C1600,1235,1688,1220.5,1674.3,1218.9z"/>
				
					<linearGradient id="SVGID_00000008848026521333760800000001925019287787396757_" gradientUnits="userSpaceOnUse" x1="-108.2853" y1="96.7899" x2="1378.7236" y2="96.7899" gradientTransform="matrix(1 0 0 -1 0 1233.8899)">
					<stop  offset="5.580357e-04" style="stop-color:#B1D8AC"/>
					<stop  offset="1" style="stop-color:#91CEB8"/>
				</linearGradient>
				<path style="fill:url(#SVGID_00000008848026521333760800000001925019287787396757_);" d="M933.9,1154.5
					c-10.6-4.3-20.7-8.8-30.6-13.4c-184.5,40-614.2,171.2-753.2-62.8c0,0,0,0-0.1,0c-55-1.6-149.8-13.9-225.7-39.1
					C-47.7,1133.8,0,1235,0,1235h1512.5c-24.1-1.5-49.1-10.4-77-22.7C1223.3,1213.3,1099.4,1221.7,933.9,1154.5z"/>
				
					<linearGradient id="SVGID_00000059310001995657192940000016512586925696440982_" gradientUnits="userSpaceOnUse" x1="-161.1458" y1="101.0954" x2="1525.9912" y2="42.1793" gradientTransform="matrix(1 0 0 -1 0 1233.8899)">
					<stop  offset="8.820558e-02" style="stop-color:#CEE6C9"/>
					<stop  offset="0.3376" style="stop-color:#BADEC1"/>
					<stop  offset="0.6387" style="stop-color:#9AD1B5"/>
					<stop  offset="0.8152" style="stop-color:#87CBB3"/>
					<stop  offset="1" style="stop-color:#6CC3B3"/>
				</linearGradient>
				<path style="fill:url(#SVGID_00000059310001995657192940000016512586925696440982_);" d="M933.9,1154.5
					c-10.6-4.3-20.7-8.8-30.6-13.4c-184.5,40-614.2,171.2-753.2-62.8c0,0,0,0-0.1,0c-55-1.6-149.8-13.9-225.7-39.1
					C-47.7,1133.8,0,1235,0,1235h1512.5c-24.1-1.5-49.1-10.4-77-22.7C1223.3,1213.3,1099.4,1221.7,933.9,1154.5z"/>
			</g>
		</g>
	</g>
	<g>
		<g>
			<defs>
				<rect id="SVGID_00000133507323656431006640000005556306014351782832_" width="1600" height="340.2"/>
			</defs>
			<clipPath id="SVGID_00000032641283495345355730000000750233005000946609_">
				<use xlink:href="#SVGID_00000133507323656431006640000005556306014351782832_"  style="overflow:visible;"/>
			</clipPath>
			<g style="clip-path:url(#SVGID_00000032641283495345355730000000750233005000946609_);">
				
					<linearGradient id="SVGID_00000170248529322137304490000007160471591083065997_" gradientUnits="userSpaceOnUse" x1="288" y1="1105.3027" x2="1599.9001" y2="1105.3027" gradientTransform="matrix(1 0 0 -1 0 1233.8899)">
					<stop  offset="0" style="stop-color:#BCDCAA"/>
					<stop  offset="1" style="stop-color:#68C1AB"/>
				</linearGradient>
				<path style="fill:url(#SVGID_00000170248529322137304490000007160471591083065997_);" d="M288,0c110.1,99.8,234,89.6,379.4,59.5
					c194.7-40.3,285.9-27,374.2,41.2c155.6,120.1,193.4,216,509.9,112.3c24.4-8,35.3-14.2,48.4-23.7V0H288z"/>
				
					<linearGradient id="SVGID_00000057827225211983097450000002679488326052260531_" gradientUnits="userSpaceOnUse" x1="288" y1="1193.7386" x2="675.7326" y2="1193.7386" gradientTransform="matrix(1 0 0 -1 0 1233.8899)">
					<stop  offset="0" style="stop-color:#C0DEAA"/>
					<stop  offset="1" style="stop-color:#ABD6A4"/>
				</linearGradient>
				<path style="fill:url(#SVGID_00000057827225211983097450000002679488326052260531_);" d="M667.6,58.8c0.3,0.2,0.7,0.3,1,0.5
					c-0.4,0.1-0.8,0.2-1.2,0.2C522,89.6,398.2,99.8,288,0h201.3C550.9,2.5,588.3,19.3,667.6,58.8z"/>
				
					<linearGradient id="SVGID_00000019679379952708891270000005391895388652048035_" gradientUnits="userSpaceOnUse" x1="1044.6477" y1="1080.0607" x2="1559.6826" y2="1044.0458" gradientTransform="matrix(1 0 0 -1 0 1233.8899)">
					<stop  offset="0" style="stop-color:#90CCA0"/>
					<stop  offset="0.5299" style="stop-color:#7EC6A0"/>
					<stop  offset="0.9863" style="stop-color:#6EC2A3"/>
				</linearGradient>
				<path style="fill:url(#SVGID_00000019679379952708891270000005391895388652048035_);" d="M1038.8,98.5c1,0.7,1.9,1.5,2.9,2.2
					c155.3,120,193.3,215.7,508.6,112.7c-23-13.9-43.3-28.2-59.3-38.8C1383.7,103.6,1326.7,58.9,1038.8,98.5z"/>
				
					<linearGradient id="SVGID_00000036215090823101226910000009508317771189015430_" gradientUnits="userSpaceOnUse" x1="668.6" y1="1159.0648" x2="1045.7552" y2="1159.0648" gradientTransform="matrix(1 0 0 -1 0 1233.8899)">
					<stop  offset="0" style="stop-color:#9BCE92"/>
					<stop  offset="0.5036" style="stop-color:#97CD99"/>
					<stop  offset="1" style="stop-color:#91CCA0"/>
				</linearGradient>
				<path style="fill:url(#SVGID_00000036215090823101226910000009508317771189015430_);" d="M668.6,59.3
					c93.7,46.6,143.1,70.6,369.2,39.4c0.3,0,0.6-0.1,0.9-0.1C951.5,32.4,860.4,19.7,668.6,59.3z"/>
				
					<linearGradient id="SVGID_00000021091940539070254540000004431458353534272921_" gradientUnits="userSpaceOnUse" x1="288.0423" y1="1127.1399" x2="1599.9993" y2="1127.1399" gradientTransform="matrix(1 0 0 -1 0 1233.8899)">
					<stop  offset="0" style="stop-color:#BCDCAA"/>
					<stop  offset="1" style="stop-color:#68C1AB"/>
				</linearGradient>
				<path style="fill:url(#SVGID_00000021091940539070254540000004431458353534272921_);" d="M1600,189.4V0H489.3
					c61.6,2.5,99,19.3,178.3,58.8c0.3,0.2,0.7,0.3,1,0.5c191.8-39.5,282.9-26.9,370.2,39.2c287.9-39.6,344.9,5,452.2,76.2
					c16,10.6,36.3,24.9,59.3,38.8c0.5-0.1,0.9-0.3,1.3-0.4C1576,205.1,1586.9,198.9,1600,189.4z"/>
				
					<linearGradient id="SVGID_00000013151256246780562880000003116177230209862078_" gradientUnits="userSpaceOnUse" x1="1548.8999" y1="1102.9114" x2="1707.2729" y2="1102.9114" gradientTransform="matrix(1 0 0 -1 0 1233.8899)">
					<stop  offset="5.580357e-04" style="stop-color:#85CAB0"/>
					<stop  offset="0.4908" style="stop-color:#85CAB3"/>
					<stop  offset="1" style="stop-color:#8FCEB8"/>
				</linearGradient>
				<path style="fill:url(#SVGID_00000013151256246780562880000003116177230209862078_);" d="M1721.1,258
					c-57.8,14.7-120.6-14.1-170.8-44.6c0.5-0.1,0.9-0.3,1.3-0.4c24.4-8,35.3-14.2,48.4-23.7V0C1600,0,1730.1,255.7,1721.1,258z"/>
				
					<linearGradient id="SVGID_00000093857167187147493130000004488195776108571314_" gradientUnits="userSpaceOnUse" x1="480.5917" y1="1127.1399" x2="1507.6211" y2="1127.1399" gradientTransform="matrix(1 0 0 -1 0 1233.8899)">
					<stop  offset="5.580357e-04" style="stop-color:#BBDDB2"/>
					<stop  offset="0.4908" style="stop-color:#A5D5B2"/>
					<stop  offset="1" style="stop-color:#8FCEB8"/>
				</linearGradient>
				<path style="fill:url(#SVGID_00000093857167187147493130000004488195776108571314_);" d="M1600,189.4V0H489.3
					c61.6,2.5,99,19.3,178.3,58.8c0.3,0.2,0.7,0.3,1,0.5c191.8-39.5,282.9-26.9,370.2,39.2c287.9-39.6,344.9,5,452.2,76.2
					c16,10.6,36.3,24.9,59.3,38.8c0.5-0.1,0.9-0.3,1.3-0.4C1576,205.1,1586.9,198.9,1600,189.4z"/>
			</g>
		</g>
	</g>
	<g>
		<g>
			<defs>
				<rect id="SVGID_00000160910510980667172200000015524174802035651463_" x="-70.7" y="1459.7" width="1600" height="340.2"/>
			</defs>
			<clipPath id="SVGID_00000010270768616261156020000001304882656451099839_">
				<use xlink:href="#SVGID_00000160910510980667172200000015524174802035651463_"  style="overflow:visible;"/>
			</clipPath>
			<g style="clip-path:url(#SVGID_00000010270768616261156020000001304882656451099839_);">
				
					<linearGradient id="SVGID_00000055684481297473180840000012032206767557078405_" gradientUnits="userSpaceOnUse" x1="217.3" y1="-354.3472" x2="1529.2001" y2="-354.3472" gradientTransform="matrix(1 0 0 -1 0 1233.8899)">
					<stop  offset="0" style="stop-color:#BCDCAA"/>
					<stop  offset="1" style="stop-color:#68C1AB"/>
				</linearGradient>
				<path style="fill:url(#SVGID_00000055684481297473180840000012032206767557078405_);" d="M217.3,1459.7
					c110.1,99.8,234,89.6,379.4,59.5c194.7-40.3,285.9-27,374.2,41.2c155.6,120.1,193.4,216,509.9,112.3c24.4-8,35.3-14.2,48.4-23.7
					v-189.4L217.3,1459.7L217.3,1459.7z"/>
				
					<linearGradient id="SVGID_00000114770230321149609150000003293601451592794298_" gradientUnits="userSpaceOnUse" x1="217.3" y1="-265.9613" x2="605.0325" y2="-265.9613" gradientTransform="matrix(1 0 0 -1 0 1233.8899)">
					<stop  offset="0" style="stop-color:#C0DEAA"/>
					<stop  offset="1" style="stop-color:#ABD6A4"/>
				</linearGradient>
				<path style="fill:url(#SVGID_00000114770230321149609150000003293601451592794298_);" d="M596.9,1518.5c0.3,0.2,0.7,0.3,1,0.5
					c-0.4,0.1-0.8,0.2-1.2,0.2c-145.4,30.1-269.3,40.3-379.4-59.5h201.3C480.2,1462.2,517.6,1479.1,596.9,1518.5z"/>
				
					<linearGradient id="SVGID_00000109004681481514142010000002336398476619298972_" gradientUnits="userSpaceOnUse" x1="973.9313" y1="-379.706" x2="1488.9661" y2="-415.7207" gradientTransform="matrix(1 0 0 -1 0 1233.8899)">
					<stop  offset="0" style="stop-color:#90CCA0"/>
					<stop  offset="0.5299" style="stop-color:#7EC6A0"/>
					<stop  offset="0.9863" style="stop-color:#6EC2A3"/>
				</linearGradient>
				<path style="fill:url(#SVGID_00000109004681481514142010000002336398476619298972_);" d="M968.1,1558.3c1,0.7,1.9,1.5,2.9,2.2
					c155.3,120,193.3,215.7,508.6,112.7c-23-13.9-43.3-28.2-59.3-38.8C1313,1563.3,1255.9,1518.6,968.1,1558.3z"/>
				
					<linearGradient id="SVGID_00000139295688545172466660000000329170637367655296_" gradientUnits="userSpaceOnUse" x1="597.9" y1="-300.6571" x2="975.0554" y2="-300.6571" gradientTransform="matrix(1 0 0 -1 0 1233.8899)">
					<stop  offset="0" style="stop-color:#9BCE92"/>
					<stop  offset="0.5036" style="stop-color:#97CD99"/>
					<stop  offset="1" style="stop-color:#91CCA0"/>
				</linearGradient>
				<path style="fill:url(#SVGID_00000139295688545172466660000000329170637367655296_);" d="M597.9,1519
					c93.7,46.6,143.1,70.6,369.2,39.4c0.3,0,0.6-0.1,0.9-0.1C880.8,1492.1,789.6,1479.5,597.9,1519z"/>
				
					<linearGradient id="SVGID_00000021115339115647297880000013913508788008612016_" gradientUnits="userSpaceOnUse" x1="217.3295" y1="-332.5601" x2="1529.2866" y2="-332.5601" gradientTransform="matrix(1 0 0 -1 0 1233.8899)">
					<stop  offset="0" style="stop-color:#BCDCAA"/>
					<stop  offset="1" style="stop-color:#68C1AB"/>
				</linearGradient>
				<path style="fill:url(#SVGID_00000021115339115647297880000013913508788008612016_);" d="M1529.3,1649.1v-189.4H418.6
					c61.6,2.5,99,19.3,178.3,58.8c0.3,0.2,0.7,0.3,1,0.5c191.8-39.5,282.9-26.9,370.2,39.2c287.9-39.6,344.9,5,452.2,76.2
					c16,10.6,36.3,24.9,59.3,38.8c0.5-0.1,0.9-0.3,1.3-0.4C1505.3,1664.8,1516.2,1658.6,1529.3,1649.1z"/>
				
					<linearGradient id="SVGID_00000183234301265801285190000009367212198610098052_" gradientUnits="userSpaceOnUse" x1="409.8789" y1="-332.5601" x2="1436.9083" y2="-332.5601" gradientTransform="matrix(1 0 0 -1 0 1233.8899)">
					<stop  offset="5.580357e-04" style="stop-color:#BBDDB2"/>
					<stop  offset="0.4908" style="stop-color:#A5D5B2"/>
					<stop  offset="1" style="stop-color:#8FCEB8"/>
				</linearGradient>
				<path style="fill:url(#SVGID_00000183234301265801285190000009367212198610098052_);" d="M1529.3,1649.1v-189.4H418.6
					c61.6,2.5,99,19.3,178.3,58.8c0.3,0.2,0.7,0.3,1,0.5c191.8-39.5,282.9-26.9,370.2,39.2c287.9-39.6,344.9,5,452.2,76.2
					c16,10.6,36.3,24.9,59.3,38.8c0.5-0.1,0.9-0.3,1.3-0.4C1505.3,1664.8,1516.2,1658.6,1529.3,1649.1z"/>
				
					<linearGradient id="SVGID_00000018943826678125303060000010741513263682933913_" gradientUnits="userSpaceOnUse" x1="1478.1871" y1="-440.5602" x2="1636.5602" y2="-440.5602" gradientTransform="matrix(1 0 0 -1 0 1233.8899)">
					<stop  offset="5.580357e-04" style="stop-color:#85CAB0"/>
					<stop  offset="0.4908" style="stop-color:#85CAB3"/>
					<stop  offset="1" style="stop-color:#8FCEB8"/>
				</linearGradient>
				<path style="fill:url(#SVGID_00000018943826678125303060000010741513263682933913_);" d="M1480.9,1672.8
					c-0.5,0.1-0.9,0.3-1.3,0.4c15.5,9.4,32.3,18.7,49.8,26.6v-50.7C1516.2,1658.6,1505.3,1664.8,1480.9,1672.8z"/>
				<polygon class="st55" points="1529.3,1459.7 1529.3,1459.7 1529.3,1649.1 1529.3,1649.1 				"/>
			</g>
		</g>
	</g>
	<g>
		<g>
			<defs>
				<rect id="SVGID_00000060007496020991257240000012246133862161900672_" x="-70.7" y="2354.6" width="1600" height="340.2"/>
			</defs>
			<clipPath id="SVGID_00000113317348614394512180000002472196800407472296_">
				<use xlink:href="#SVGID_00000060007496020991257240000012246133862161900672_"  style="overflow:visible;"/>
			</clipPath>
			<g style="clip-path:url(#SVGID_00000113317348614394512180000002472196800407472296_);">
				
					<linearGradient id="SVGID_00000094584455700990504730000003375860604746430865_" gradientUnits="userSpaceOnUse" x1="821.1599" y1="-1392.2272" x2="1397.4597" y2="-1392.2272" gradientTransform="matrix(1 0 0 -1 0 1233.8899)">
					<stop  offset="0" style="stop-color:#85C8A5"/>
					<stop  offset="0.5212" style="stop-color:#77C5A8"/>
					<stop  offset="1" style="stop-color:#68C1AD"/>
				</linearGradient>
				<path style="fill:url(#SVGID_00000094584455700990504730000003375860604746430865_);" d="M1364.7,2672.1
					c-102.1-44.6-244.2-133.6-531.7-71.4c-0.1,0-0.3,0.1-0.4,0.1c9.9,4.6,20,9.1,30.6,13.4C1028.7,2681.4,1152.6,2673,1364.7,2672.1
					z"/>
				
					<linearGradient id="SVGID_00000115477569746922429770000000420806308586100881_" gradientUnits="userSpaceOnUse" x1="78.0278" y1="-1366.8865" x2="845.5492" y2="-1366.8865" gradientTransform="matrix(1 0 0 -1 0 1233.8899)">
					<stop  offset="5.580357e-04" style="stop-color:#AFD7A3"/>
					<stop  offset="0.4493" style="stop-color:#9CD0A3"/>
					<stop  offset="1" style="stop-color:#86C9A3"/>
				</linearGradient>
				<path style="fill:url(#SVGID_00000115477569746922429770000000420806308586100881_);" d="M832.6,2600.8
					c-68.7-31.9-128-68.2-279.2-72.3c-147.5-4-337.4,13.4-474,9.5C218.4,2772,648.1,2640.8,832.6,2600.8z"/>
				
					<linearGradient id="SVGID_00000160165773849911910870000014313287220625442975_" gradientUnits="userSpaceOnUse" x1="-152.6757" y1="-1212.7102" x2="87.6251" y2="-1212.7102" gradientTransform="matrix(1 0 0 -1 0 1233.8899)">
					<stop  offset="0.2408" style="stop-color:#BDDDAA"/>
					<stop  offset="1" style="stop-color:#B6DAA9"/>
				</linearGradient>
				<path style="fill:url(#SVGID_00000160165773849911910870000014313287220625442975_);" d="M79.3,2538L79.3,2538
					c-0.2-0.5-0.5-0.9-0.8-1.4c-40.1-68.5-61.5-139.2-149.2-181.4V2519C-14.6,2530.8,41.7,2536.9,79.3,2538z"/>
				
					<linearGradient id="SVGID_00000083074277145879054690000002486018045580178364_" gradientUnits="userSpaceOnUse" x1="-178.9981" y1="-1373.1104" x2="1308.0109" y2="-1373.1104" gradientTransform="matrix(1 0 0 -1 0 1233.8899)">
					<stop  offset="5.580357e-04" style="stop-color:#B1D8AC"/>
					<stop  offset="1" style="stop-color:#91CEB8"/>
				</linearGradient>
				<path style="fill:url(#SVGID_00000083074277145879054690000002486018045580178364_);" d="M1364.7,2672.1
					c-212.2,0.9-336.1,9.3-501.5-57.8c-10.6-4.3-20.7-8.8-30.6-13.4c-184.5,40-614.2,171.2-753.2-62.8c0,0,0,0-0.1,0
					c-37.6-1.1-93.9-7.2-150-19v175.8h1512.5C1417.6,2693.2,1392.7,2684.3,1364.7,2672.1z"/>
				
					<linearGradient id="SVGID_00000145773721126481165220000007568783584967100071_" gradientUnits="userSpaceOnUse" x1="-232.1677" y1="-1367.4717" x2="1454.9694" y2="-1426.3877" gradientTransform="matrix(1 0 0 -1 0 1233.8899)">
					<stop  offset="8.820558e-02" style="stop-color:#CEE6C9"/>
					<stop  offset="0.3376" style="stop-color:#BADEC1"/>
					<stop  offset="0.6387" style="stop-color:#9AD1B5"/>
					<stop  offset="0.8152" style="stop-color:#87CBB3"/>
					<stop  offset="1" style="stop-color:#6CC3B3"/>
				</linearGradient>
				<path style="fill:url(#SVGID_00000145773721126481165220000007568783584967100071_);" d="M1364.7,2672.1
					c-212.2,0.9-336.1,9.3-501.5-57.8c-10.6-4.3-20.7-8.8-30.6-13.4c-184.5,40-614.2,171.2-753.2-62.8c0,0,0,0-0.1,0
					c-37.6-1.1-93.9-7.2-150-19v175.8h1512.5C1417.6,2693.2,1392.7,2684.3,1364.7,2672.1z"/>
				
					<linearGradient id="SVGID_00000143612699077588148920000006875718654971192486_" gradientUnits="userSpaceOnUse" x1="1361.6454" y1="-1449.5372" x2="1537.3894" y2="-1449.5372" gradientTransform="matrix(1 0 0 -1 0 1233.8899)">
					<stop  offset="5.580357e-04" style="stop-color:#63C0AE"/>
					<stop  offset="1" style="stop-color:#5BBEB2"/>
				</linearGradient>
				<path style="fill:url(#SVGID_00000143612699077588148920000006875718654971192486_);" d="M1366,2672.1c-0.4,0-0.9,0-1.3,0
					c28,12.2,52.9,21.1,77,22.7h87.5v-20C1478,2673,1412.9,2671.8,1366,2672.1z"/>
			</g>
		</g>
	</g>
	<path class="st2" d="M2566.1,1751.4c-233.8,0-467.4,0-701,0c0-53.7,0-107.3,0-161c233.6,0,467.3,0,701,0
		C2566.1,1644,2566.1,1697.6,2566.1,1751.4z M2017.8,1733.2c0-42.1,0-83.8,0-125.6c-44.6,0-88.8,0-133.2,0c0,42,0,83.7,0,125.6
		C1929.1,1733.2,1973.2,1733.2,2017.8,1733.2z M2138.9,1612.6c-11.3,0-22.2,0-33.3,0c0-2.5,0-4.4,0-6.6c-3.3,0-6.4,0-9.7,0
		c-0.1,2.2-0.3,4.3-0.4,6.9c-11.1,0-22,0-32.9,0c0,3.4,0,6.4,0,10c11.2,0,22.1,0,33,0c0,0.5,0,1.1,0,1.6c-7.8,1.9-16-0.1-24,1.2
		c0,10.7,0,21.1,0,32.1c5.5,0,10.7,0,16.5,0c-7.4,8.3-16.6,11.6-26.1,14.5c2.1,3.5,3.9,6.6,5.9,9.9c10.5-2.9,19.2-8.8,27.7-16.8
		c0,7.3,0,13.5,0,19.6c3.4,0,6.5,0,10,0c0-6.6,0-12.7,0-19.7c8.1,9.1,17.3,14.9,28.2,18.1c1.8-3.5,3.4-6.9,5.1-10.3
		c-9.7-3.6-19.5-6.3-27-15.7c6.6,0,12,0,17.4,0c0-10.9,0-21.2,0-32c-4.4,0-8.5,0.3-12.6-0.1c-3.7-0.3-7.9,1.5-11.1-1.2
		c0.1-0.5,0.1-1,0.2-1.5c11,0,22,0,33.2,0C2138.9,1619.1,2138.9,1616.3,2138.9,1612.6z M2463.5,1673.1c-18.4-7.1-31-18.6-32.7-39.7
		c10.8,0,21,0,31.5,0c0-3.8,0-7.3,0-11.2c-10.9,0-21.3,0-32.1,0c0-6.1,0-11.9,0-18.1c-3.7-0.2-7.1-0.4-11.3-0.6c0,6.6,0,12.6,0,19.1
		c-11.3,0-21.9,0-32.4,0c0,3.8,0,7.2,0,11.1c10.6,0,20.8,0,31.3,0c-2.5,20.5-12.5,34-33,39.1c1.8,2.4,3.7,4.3,5,6.6
		c1.7,2.8,3.5,3.4,6.5,2c11.3-5.1,20.3-12.7,26-23.8c0.6-1.1,1.3-2.1,2.2-3.6c6.6,14.8,18,23.4,31.9,29.4
		C2458.9,1680,2461.1,1676.8,2463.5,1673.1z M2309.3,1607.7c0,3.3,0,6.4,0,9.5c2.6,0.2,4.9,0.3,7.3,0.5c0,4.7,0.5,9.3-0.4,13.5
		c-0.2,1-5.3,1-8.2,1.4c0,3.2,0,6.2,0,9.8c3.1,0,5.9,0,8.9,0c-0.2,11.7-1.6,22.6-9.4,32c3.6,2.3,6.7,4.4,10,6.6
		c7.7-11.9,8.3-25.1,9.1-38.3c2.4,0,4.4,0,7.1,0c0,13.4,0,26.5,0,39.4c3.5,0,6.4,0,9.7,0c0-13.4,0-26.3,0-39.5
		c3.2-0.3,6.1-0.5,9.1-0.7c0-3.4,0-6.3,0-9.3c-3.2-0.2-6.1-0.5-8.9-0.7c0-5,0-9.4,0-14c2.3-0.2,4.4-0.5,6.3-0.7c0-3.4,0-6.3,0-9.4
		C2336.2,1607.7,2322.8,1607.7,2309.3,1607.7z M2153.9,1626.4c0,9.5,0,18.6,0,28.4c7.8,0,15.4,0,23.2,0c0,4.4,0,8,0,11.7
		c0,8,0,7.9-8,8.1c-0.2,0-0.5,0.3-1,0.7c0.6,1.4,1.2,3,2,4.3c1.4,2.2,0.5,6.8,5.2,5.8c3-0.6,6.5-1.2,8.6-3.1c1.9-1.7,2.9-5.2,3.1-8
		c0.4-6.4,0.1-12.9,0.1-19.8c8.2,0,15.8,0,23.5,0c0-9.7,0-18.9,0-28.2C2191.8,1626.4,2173.1,1626.4,2153.9,1626.4z M2546,1653
		c-10.7,0-20.9,0-30.7,0c4.5-4.8,9-9.6,13.3-14.3c-2.3-4.4-5.5-5.8-10.1-5.4c-5,0.4-10,0.1-15,0.1c-6.6,0-13.2,0-19.7,0
		c0,3.4,0,6.1,0,9.2c9,0,17.5,0,26.1,0c-0.4,5.7-4.9,4.1-7.8,4.7c-0.2,2.1-0.3,3.8-0.5,6c-11.4,0-22.5,0-33.6,0c0,3.3,0,6.2,0,9.6
		c11.5,0,22.6,0,34.2,0c-0.2,3.1,0.6,6.7-0.8,8c-1.7,1.6-5.2,1.3-8,1.9c1.7,3.4,2.5,7.8,5.1,10c4.3,3.7,14.4-1.9,14.6-7.7
		c0.1-4,0-7.9,0-12.4c11.2,0,21.9,0,32.8,0C2546,1659.3,2546,1656.6,2546,1653z M2496.6,1607c2.5,4.8,4.7,9.2,7.2,14
		c-5.5,0-9.8,0-15.1,0c2.9-1.6,4.9-2.6,6.8-3.6c-5.9-12.1-9.2-13.6-18-8.5c2.7,3.9,5.3,7.8,8.6,12.6c-6.2,0-11.1,0-16.2,0
		c0,6.9,0,13.2,0,19.7c3.4,0,6.5,0,9.9,0c0.2-3.5,0.3-6.8,0.5-10.3c17.7,0,35.1,0,52.7,0c0.2,3.7,0.3,7.1,0.5,10.3
		c3.5,0,6.5,0,9.5,0c0-6.7,0-13.1,0-19.9c-6.1,0-11.8,0-18.2,0c3.6-4.3,6.7-8.1,10.1-12.2c-4-1.5-7.4-2.8-10.6-4
		c-10.4,17-10.4,17-18.5,15.8c2.8-1.4,5-2.6,7.3-3.7C2508.4,1604.2,2506.9,1603.3,2496.6,1607z M2301.7,1671.1
		c-4.3,0.3-8.4,0.9-12.5,0.8c-11.9-0.3-23.9-0.2-35.7-1.5c-6.7-0.7-8.3-4.1-8.3-10.9c0-7.6,0-15.2,0-22.9c-7,0-13.3,0-19.8,0
		c0,3.3,0,6.3,0,9.8c3.3,0,6.4,0,9.9,0c0,2.7-0.1,5,0,7.3c0.6,7.8,1.1,15.5-10.2,16.3c1.9,4.7,3.5,8.5,5.2,12.8
		c3.7-3.3,6.9-6.1,8.7-7.7c6.4,2.7,11.5,6.5,16.8,6.9c13.6,1,27.2,0.7,40.9,0.6c1.1,0,2.9-1.4,3.3-2.5
		C2300.9,1677.3,2301.1,1674.4,2301.7,1671.1z M2280,1605.9c-3.5,0-6.6,0-9.7,0c-1.1,8.5-1.1,8.5-5.1,7.4c0.5-1.5,1.1-3,1.8-4.8
		c-3.4-0.8-6.5-1.6-8.8-2.2c-4,7.1-7.6,13.6-11.1,20c1.4,1,2.9,2.2,5,3.8c-2.1,0.3-3.4,0.4-4.6,0.5c0,3.1,0,6.1,0,9.1
		c18,0,35.7,0,53.6,0c0-3.2,0-6.1,0-9.5c-7.1,0-14,0-20.9,0c0-2.5,0-4.4,0-6.9c5.8,0,11.4,0,16.8,0c0-3.5,0-6.4,0-9.4
		c-5.8,0-11.2,0-16.9,0C2280,1611.2,2280,1608.9,2280,1605.9z M2255.2,1642.3c0,9.3,0,18,0,27.5c3.4-0.4,6.5-0.5,9.5-1.1
		c1.8-0.4,3.4-1.9,5.2-2.1c4-0.3,8-0.1,12-0.1c1.1,0,3-0.2,3.3,0.4c3,4.9,7.1,1.8,10.7,2.4c0-9.4,0-18.2,0-27.1
		C2282.2,1642.3,2269,1642.3,2255.2,1642.3z M2176.9,1613.2c-11.3,0-22.2,0-33.2,0c0,3.3,0,6.2,0,9.6c25.9,0,51.6,0,77.1,0
		c0-3.5,0-6.8,0-9.9c-11.3,0-22.3,0-33.4,0c-0.2-2.3-0.3-4.4-0.5-6.9c-3.2,0-6.3,0-9.5,0C2177.2,1608.2,2177.1,1610.4,2176.9,1613.2
		z M2189.9,1709.4c4.7,0,8.9,0,14.1,0c-5,5.9-9.4,10.9-13.4,16.2c-1.5,2-1.9,4.7-3.1,7.6c9.4,0,17.3,0,25.5,0c0-1.8,0-3.4,0-5.7
		c-5.1,0-9.9,0-15.6,0c4.9-5.9,9.2-10.8,13.1-15.9c1.5-2,2.2-4.7,3.6-7.8c-8.9,0-16.4,0-24.2,0
		C2189.9,1705.6,2189.9,1707,2189.9,1709.4z M2324.2,1703.7c0,3.9,0,7.7,0,11.5c0,11.7-0.7,13.2-5.9,13.3c-5.4,0.1-6.2-1.6-6.2-13
		c0-3.9,0-7.8,0-11.6c-2.7,0-4.6,0-7.1,0c0.4,7.7,0.2,15,1.2,22.2c0.7,5.4,5.6,8,12.2,7.8c6.4-0.1,11.2-2.8,11.7-7.9
		c0.6-7.4,0.2-14.8,0.2-22.4C2328.3,1703.7,2326.6,1703.7,2324.2,1703.7z M2375.4,1651.2c-8.5,10.2-18.3,18.1-31,23.2
		c2.2,2.1,3.7,4,5.7,5.1c1.5,0.9,4,1.6,5.4,0.9c11-5.2,19.6-13.4,28.4-22.2C2380.9,1655.8,2378.4,1653.7,2375.4,1651.2z
		 M2346.6,1653.1c7.9,6.9,5.4,7.3,14.1,0.6c7.5-5.8,14.3-12.6,21.8-19.2c-3.7-2.2-6.7-4-9-5.3
		C2364.4,1637.3,2355.6,1645.1,2346.6,1653.1z M2109.5,1703.6c0,10.1,0,19.8,0,29.5c1.9,0,3.5,0,5.1,0c0.5-3.1,1-5.9,1.5-9.5
		c5.1,3.7,5.2,12.7,13.8,9c-2.8-4.4-5.6-8.6-9.1-14.2c2.6-2.1,5.2-4.1,7.8-6.2c-6.9-3-8.9,3.8-13.7,6.3c0-5.5,0-10.2,0-15
		C2113,1703.6,2111.5,1703.6,2109.5,1703.6z M2259.7,1732.8c-2.9-4.5-5.7-8.9-8.4-13c2.6-2.8,4.8-5,7-7.4c-6.8-3.2-8.8,3.8-13.6,5.9
		c0-5.2,0-9.8,0-14.6c-2,0-3.6,0-5.4,0c0,9.9,0,19.6,0,29.7c1.9-0.1,3.5-0.2,5-0.2c0.6-3.2,1-6,1.7-9.6
		C2251,1727.5,2251,1735.8,2259.7,1732.8z M2086.3,1703.7c-8.1,0-15.8,0-23.8,0c0,1.8,0,3.3,0,5.1c3,0.2,5.7,0.4,8.9,0.7
		c0,8.1,0,15.9,0,23.6c2.3,0,4.1,0,6.4,0c0-8,0-15.7,0-23.7c3.1-0.2,5.7-0.4,8.5-0.5C2086.3,1707,2086.3,1705.5,2086.3,1703.7z
		 M2280.7,1724.1c0.7-6.9-2.6-11.9-8.1-12.7c-6.1-0.9-11.3,2.5-12.4,8.1c-1.3,6.4,1.6,12.2,6.9,13.8c6.3,1.8,11.2-0.5,13.4-7.5
		c-2.7,1.1-4.7,1.7-6.6,2.7c-4,2.1-6.8,0.7-7.5-4.4C2271.2,1724.1,2276,1724.1,2280.7,1724.1z M2409.9,1724.2
		c0.3-7.9-3.1-12.4-9-12.8c-6.4-0.4-11.2,3.4-11.8,9.6c-0.7,7,2.8,12,8.9,12.7c6.3,0.8,10.1-1.6,11-7.8c-2.3,1-4.2,1.7-6,2.6
		c-4,2.2-6.8,0.9-7.8-4.3C2400.2,1724.2,2404.9,1724.2,2409.9,1724.2z M2130.9,1711.6c2.3,6.3,4.4,12,6.5,17.8
		c1.9,5.4,1.6,5.9-4.9,7.3c0.7,1.4,1.5,3.8,2,3.7c2.8-0.4,7.1-0.6,7.9-2.3c4-8.3,7-17,10.3-25.7c-4.4-1.7-6.4-0.6-7.3,3.2
		c-0.7,3.1-2,6.2-3,9.4C2137.8,1721.2,2141.7,1711.2,2130.9,1711.6z M2486.1,1726.2c-1.5-4.3-2.9-7.3-3.5-10.4
		c-1-4.5-3.5-4.8-7.5-3.6c2.2,5.9,4.3,11.4,6.3,17c2,5.5,1.7,6-4.3,7.3c0.1,1.3,0.3,2.6,0.4,3.9c7.7,0.6,8.8,0,11.3-6.5
		c1.5-3.9,2.9-7.7,4.3-11.6c1.2-3.3,2.3-6.7,3.5-9.9c-4.4-1.6-6.2-0.1-7.1,3.5C2488.7,1718.9,2487.5,1721.9,2486.1,1726.2z
		 M2094.9,1711.3c-6.9,0-11,4.3-10.9,11.4c0.1,6.8,4.1,10.9,10.8,11c6.8,0.1,11.3-4.4,11.4-11.1
		C2106.2,1715.9,2101.6,1711.3,2094.9,1711.3z M2341.1,1733.1c0-4.4-0.4-8.6,0.2-12.6c0.2-1.7,2.6-3.1,4-4.6c1.3,1.6,3.6,3,3.8,4.7
		c0.6,4,0.2,8.2,0.2,12.5c2.2,0,3.9,0,5.9,0c0-5.1,0.2-9.9-0.1-14.7c-0.2-3.6-1.7-6.8-5.8-6.9c-4.6-0.1-9.2,0.6-13.9,0.9
		c0,6.8,0,13.7,0,20.7C2337.3,1733.1,2338.8,1733.1,2341.1,1733.1z M2225.6,1711.3c-6.7,0-11.3,4.5-11.3,11.2s4.6,11.3,11.3,11.2
		c6.7-0.1,10.8-4.2,10.9-11C2236.6,1715.7,2232.4,1711.4,2225.6,1711.3z M2165.2,1711.3c-7-0.2-11.3,4-11.4,10.9
		c-0.1,7,4.1,11.4,10.9,11.5c6.7,0.1,11.4-4.6,11.4-11.2C2176.1,1716.1,2171.6,1711.5,2165.2,1711.3z M2358.9,1632.1
		c6.6-6.8,13.2-13.5,20.1-20.7c-4.1-2.2-7.1-3.9-10.1-5.5c0.7,0.8,1.3,1.7,2,2.5c-6.6,5.9-13.3,11.9-20,17.9
		C2352.6,1627.6,2355,1629.3,2358.9,1632.1z M2220.9,1671.4c-4.7-3.4-9.5-6.3-13.8-9.9c-5.9-4.9-6.5-5.1-13.8,0.9
		c7.1,6.3,14.1,12.4,21.4,18.9C2217.4,1677,2219.2,1674.1,2220.9,1671.4z M2429,1725.8c-0.3,0.5-0.5,1-0.8,1.5
		c0.4,0.9,0.6,1.9,1.1,2.7c2.3,3.4,9,5.3,13.6,3c2.3-1.1,4.8-4.2,4.9-6.5c0.3-5.3-4.8-5.4-8.5-6.6c-1.7-0.5-3.3-1.6-5-2.4
		c0.3-0.8,0.6-1.6,0.9-2.3c3.8,1,7.7,2.1,12.2,3.3c-2.5-6.8-8.8-9.3-14.7-6.2c-1.8,1-3.9,3.7-3.8,5.6c0,1.8,2.3,4.1,4.2,5.3
		c1.9,1.2,4.5,1.2,6.6,2c0.9,0.3,1.5,1.5,2.2,2.3c-1,0.8-1.9,2.1-2.9,2.1c-1.5,0.1-3.1-0.7-4.5-1.2
		C2432.7,1727.5,2430.9,1726.6,2429,1725.8z M2162.6,1657.2c-6.6,5.3-12.8,10.2-18.9,15.1c1.6,2.2,3.5,4.7,6.2,8.4
		c7.4-6.2,14.6-12.3,22.5-18.9C2167.9,1659.7,2164.8,1658.2,2162.6,1657.2z M2367.8,1712.4c2.2,6.6,4.2,13,6.6,19.4
		c0.9,2.4,6.6,2.5,7.5,0.1c2.4-6.4,4.4-13,6.6-19.5c-4.3-1.7-6.1-0.2-6.9,3.5c-0.7,3.1-1.8,6-2.8,9c-1.9-3-2.9-5.7-3.6-8.6
		C2374.3,1712.6,2372.7,1710.5,2367.8,1712.4z M2463.8,1705.6c-0.7,2.2-0.8,5.1-2.1,5.7c-3.9,1.9-3.5,2.8,0,4.5
		c0.7,0.4,1.2,1.8,1.3,2.8c0.2,2.1,0.1,4.3,0.1,6.5c0,8,1.8,9.5,11,7.6c-1.2-1.5-1.9-3-3-3.8c-2-1.4-3.1-11.5-1.1-13
		c1.1-0.8,2.1-1.7,3.2-2.6c-1.2-0.8-2.5-1.6-3.9-2.5c-0.2-1.5-0.4-3.3-0.6-5.1C2466.8,1705.6,2465.2,1705.6,2463.8,1705.6z
		 M2413.3,1711c0,8.1,0,15,0,22c1.9,0,3.6,0,5.7,0c0-3.7,0-7,0-10.3s1.6-5.6,4.8-5.9c4.1-0.4,3.2-2.7,2.5-6c-2.7,1.1-5,2-6.3,2.5
		C2417.6,1712.5,2415.9,1711.9,2413.3,1711z M2229.3,1613.7c1.8,1.4,3.7,2.7,5.4,4.2c1.8,1.6,3.6,3.3,4.7,4.5c2.7-2.1,5.1-4,7.5-5.9
		C2238.8,1605.8,2235.3,1605.3,2229.3,1613.7z M2284.6,1711.9c0,7.5,0,14.2,0,21.1c2,0,3.7,0,5.3,0c0-7.2,0-14.1,0-21.4
		C2288,1711.8,2286.5,1711.8,2284.6,1711.9z M2359.4,1712.1c0,7.2,0,14.1,0,21c1.9,0,3.5,0,5.6,0c0-5.8-0.2-11.4,0.1-17
		C2365.3,1711.8,2363.4,1711,2359.4,1712.1z M2456.5,1733.1c0-7.1,0-14,0-21.2c-1.9,0-3.4,0-5.2,0c0,7.2,0,14.1,0,21.2
		C2453.1,1733.1,2454.7,1733.1,2456.5,1733.1z M2359.3,1708.2c2,0,3.6,0,5.3,0c0-1.6,0-3,0-4.4c-1.9,0-3.5,0-5.3,0
		C2359.3,1705.2,2359.3,1706.5,2359.3,1708.2z M2290,1703.4c-2.2,0.2-3.8,0.3-5.5,0.4c0,1.6,0,2.9,0,4.3c2,0,3.7,0,5.5,0
		C2290,1706.5,2290,1705.3,2290,1703.4z M2457.5,1708.2c-0.9-2.1-1.2-3.9-2.2-4.5s-2.7-0.1-4.4-0.1c0.2,2,0.4,3.4,0.5,4.7
		C2453.3,1708.2,2454.7,1708.2,2457.5,1708.2z"/>
	<path d="M1814,1797.1c-44.6,0-88.7,0-133.2,0c0-41.9,0-83.6,0-125.6c44.3,0,88.6,0,133.2,0C1814,1713.3,1814,1755,1814,1797.1z
		 M1687.7,1677.6v1.6c0,0,36.6,36.2,55.9,55.3c0,0-4.2,4.5-6.4,6.6c-15.9,15.4-31.5,31.2-47.2,46.9c-0.5,0.5-1,1.2-1.9,2.3
		c31.4,0,62.1,0,93.9,0c-14.8-14.7-28.8-28.8-43.1-43c1.7-1.6,3-2.9,4.5-4.2c1.4,1.3,2.6,2.4,3.8,3.6c12.9,12.8,26.2,25.2,38.4,38.7
		c2.4,2.7,3.1,3.4,4.7,4.9l15.8,0.3c0,0,0.7-1.2,1.1-1.7c-19.6-19.6-35.1-35.1-55.5-55.4c0,0,7.1-6.7,11.2-10.7
		c13.6-13.5,27.1-27.1,40.7-40.7c1.1-1.1,2.1-2.3,3.4-3.8c-31.5,0-95.1,0-95.1,0s0.8,0.7,1.3,1.1c14.1,14.1,28.1,28.1,42.4,42.4
		c-1.4,1.3-2.7,2.5-4.1,3.8c-1.4-1.4-2.6-2.5-3.8-3.6c-13.8-13.8-27.6-27.6-41.5-41.3c-1.4-1.4-3.2-2.8-3.2-2.8L1687.7,1677.6z
		 M1687.7,1687.5c0,31.4,0,62.2,0,92c15.1-15.2,30.6-30.7,45.9-46C1718.8,1718.7,1703.5,1703.4,1687.7,1687.5z M1763.4,1735.9
		c14.7,14.6,29.5,29.2,43.9,43.5c0-13.8,0-28.6,0-43.5C1792.3,1735.9,1777.6,1735.9,1763.4,1735.9z M1807.3,1688.4
		c-13.6,13.7-27.2,27.4-40.7,40.9c13.1,0,26.7,0,40.7,0C1807.3,1715.4,1807.3,1701.8,1807.3,1688.4z"/>
	<path d="M2138.9,1612.6c0,3.7,0,6.5,0,9.9c-11.2,0-22.2,0-33.2,0c-0.1,0.5-0.1,1-0.2,1.5c3.3,2.7,7.4,0.9,11.1,1.2
		c4.1,0.3,8.2,0.1,12.6,0.1c0,10.9,0,21.1,0,32c-5.4,0-10.7,0-17.4,0c7.5,9.5,17.3,12.2,27,15.7c-1.7,3.4-3.4,6.7-5.1,10.3
		c-10.9-3.3-20-9-28.2-18.1c0,7,0,13.2,0,19.7c-3.6,0-6.6,0-10,0c0-6.1,0-12.3,0-19.6c-8.5,8-17.1,14-27.7,16.8
		c-1.9-3.3-3.8-6.4-5.9-9.9c9.5-2.9,18.7-6.1,26.1-14.5c-5.9,0-11,0-16.5,0c0-11,0-21.4,0-32.1c8-1.3,16.2,0.8,24-1.2
		c0-0.5,0-1.1,0-1.6c-10.9,0-21.8,0-33,0c0-3.6,0-6.6,0-10c10.9,0,21.8,0,32.9,0c0.2-2.6,0.3-4.7,0.4-6.9c3.3,0,6.4,0,9.7,0
		c0,2.3,0,4.2,0,6.6C2116.7,1612.6,2127.6,1612.6,2138.9,1612.6z M2112.1,1648.9c2.5-0.8,4.7-1.6,7-2.3c-2.4-0.6-4.8-1.7-7.1-1.8
		c-2.1,0-4.2,1.1-6.4,1.7C2107.7,1647.3,2109.8,1648.1,2112.1,1648.9z M2089.3,1643.9c-2.5,0.9-4.8,1.7-7,2.5
		c2.3,0.6,4.5,1.7,6.8,1.7c2.2,0,4.3-1,6.5-1.5C2093.6,1645.7,2091.6,1644.8,2089.3,1643.9z M2104.5,1634c2.7,3.1,12.9,4.3,14.1,2.7
		c0.3-0.4-0.7-2.6-1.2-2.6C2113.5,1634,2109.6,1634,2104.5,1634z M2095.9,1635.6c-0.2-0.5-0.3-1-0.5-1.6c-3.6,0-7.2-0.1-10.7,0.1
		c-0.8,0-1.6,1.1-2.4,1.7c0.9,0.5,1.7,1.4,2.6,1.5c2.8,0.2,5.7,0.2,8.5,0C2094.3,1637.2,2095.1,1636.1,2095.9,1635.6z"/>
	<path d="M2463.5,1673.1c-2.4,3.6-4.6,6.9-7,10.3c-13.9-5.9-25.4-14.5-31.9-29.4c-0.9,1.5-1.6,2.5-2.2,3.6
		c-5.8,11.1-14.8,18.6-26,23.8c-3,1.4-4.8,0.9-6.5-2c-1.3-2.2-3.1-4.2-5-6.6c20.5-5.1,30.5-18.7,33-39.1c-10.5,0-20.7,0-31.3,0
		c0-3.9,0-7.3,0-11.1c10.5,0,21.1,0,32.4,0c0-6.4,0-12.5,0-19.1c4.1,0.2,7.5,0.4,11.3,0.6c0,6.2,0,11.9,0,18.1c10.8,0,21.2,0,32.1,0
		c0,3.9,0,7.4,0,11.2c-10.5,0-20.8,0-31.5,0C2432.5,1654.5,2445.2,1666,2463.5,1673.1z"/>
	<path d="M2309.3,1607.7c13.5,0,26.9,0,40.6,0c0,3.1,0,6,0,9.4c-2,0.2-4,0.4-6.3,0.7c0,4.6,0,9,0,14c2.8,0.2,5.7,0.4,8.9,0.7
		c0,3,0,6,0,9.3c-3,0.2-5.8,0.5-9.1,0.7c0,13.2,0,26.1,0,39.5c-3.2,0-6.1,0-9.7,0c0-12.9,0-25.9,0-39.4c-2.6,0-4.7,0-7.1,0
		c-0.8,13.2-1.4,26.4-9.1,38.3c-3.3-2.2-6.5-4.2-10-6.6c7.8-9.3,9.2-20.2,9.4-32c-3.1,0-5.8,0-8.9,0c0-3.5,0-6.6,0-9.8
		c2.9-0.4,8-0.4,8.2-1.4c0.9-4.2,0.4-8.8,0.4-13.5c-2.4-0.1-4.7-0.3-7.3-0.5C2309.3,1614.1,2309.3,1611.1,2309.3,1607.7z
		 M2327.1,1617.7c0,4.8,0,9.3,0,14c2.2,0,4.1,0,5.9,0c0-4.9,0-9.4,0-14C2330.9,1617.7,2329.2,1617.7,2327.1,1617.7z"/>
	<path d="M2153.9,1626.4c19.2,0,37.9,0,56.9,0c0,9.3,0,18.5,0,28.2c-7.7,0-15.3,0-23.5,0c0,7,0.3,13.4-0.1,19.8
		c-0.2,2.8-1.2,6.2-3.1,8c-2.1,1.9-5.6,2.5-8.6,3.1c-4.7,1-3.8-3.6-5.2-5.8c-0.9-1.4-1.4-2.9-2-4.3c0.5-0.4,0.7-0.7,1-0.7
		c8-0.2,8-0.2,8-8.1c0-3.7,0-7.3,0-11.7c-7.8,0-15.3,0-23.2,0C2153.9,1645,2153.9,1636,2153.9,1626.4z M2200,1636
		c-12,0-23.7,0-35.5,0c0,2.9,0,5.5,0,8.2c12,0,23.7,0,35.5,0C2200,1641.3,2200,1638.7,2200,1636z"/>
	<path d="M2546,1653c0,3.6,0,6.4,0,9.7c-10.9,0-21.6,0-32.8,0c0,4.5,0.1,8.5,0,12.4c-0.2,5.8-10.3,11.4-14.6,7.7
		c-2.6-2.2-3.5-6.6-5.1-10c2.8-0.6,6.4-0.3,8-1.9c1.4-1.3,0.6-4.9,0.8-8c-11.6,0-22.7,0-34.2,0c0-3.3,0-6.2,0-9.6
		c11.1,0,22.2,0,33.6,0c0.2-2.2,0.3-3.9,0.5-6c2.9-0.6,7.4,1,7.8-4.7c-8.6,0-17.1,0-26.1,0c0-3.1,0-5.8,0-9.2c6.5,0,13.1,0,19.7,0
		c5,0,10,0.3,15-0.1c4.5-0.4,7.7,0.9,10.1,5.4c-4.3,4.6-8.8,9.4-13.3,14.3C2525.1,1653,2535.3,1653,2546,1653z"/>
	<path d="M2496.6,1607c10.3-3.7,11.8-2.8,16.4,10c-2.2,1.2-4.5,2.3-7.3,3.7c8.1,1.2,8.1,1.2,18.5-15.8c3.3,1.2,6.6,2.5,10.6,4
		c-3.4,4.1-6.5,7.9-10.1,12.2c6.4,0,12.1,0,18.2,0c0,6.8,0,13.2,0,19.9c-3,0-5.9,0-9.5,0c-0.2-3.2-0.3-6.6-0.5-10.3
		c-17.6,0-35,0-52.7,0c-0.2,3.5-0.3,6.7-0.5,10.3c-3.3,0-6.4,0-9.9,0c0-6.5,0-12.8,0-19.7c5.1,0,10,0,16.2,0
		c-3.3-4.8-6-8.7-8.6-12.6c8.8-5,12.1-3.6,18,8.5c-1.9,1-3.9,2.1-6.8,3.6c5.3,0,9.6,0,15.1,0
		C2501.3,1616.2,2499.1,1611.8,2496.6,1607z"/>
	<path d="M2301.7,1671.1c-0.6,3.3-0.8,6.3-1.7,9c-0.4,1.1-2.1,2.5-3.3,2.5c-13.6,0-27.3,0.4-40.9-0.6c-5.3-0.4-10.4-4.2-16.8-6.9
		c-1.8,1.6-5,4.4-8.7,7.7c-1.7-4.2-3.3-8.1-5.2-12.8c11.3-0.9,10.8-8.5,10.2-16.3c-0.2-2.3,0-4.6,0-7.3c-3.5,0-6.5,0-9.9,0
		c0-3.5,0-6.6,0-9.8c6.5,0,12.8,0,19.8,0c0,7.7,0,15.3,0,22.9c0,6.8,1.6,10.1,8.3,10.9c11.8,1.3,23.8,1.3,35.7,1.5
		C2293.2,1671.9,2297.4,1671.4,2301.7,1671.1z"/>
	<path d="M2280,1605.9c0,3,0,5.3,0,8c5.7,0,11.1,0,16.9,0c0,3,0,5.9,0,9.4c-5.4,0-10.9,0-16.8,0c0,2.5,0,4.4,0,6.9
		c6.9,0,13.8,0,20.9,0c0,3.5,0,6.4,0,9.5c-17.9,0-35.6,0-53.6,0c0-3.1,0-6,0-9.1c1.2-0.1,2.4-0.3,4.6-0.5c-2.1-1.6-3.6-2.7-5-3.8
		c3.6-6.4,7.1-12.8,11.1-20c2.4,0.6,5.5,1.3,8.8,2.2c-0.7,1.9-1.2,3.3-1.8,4.8c4,1.1,4,1.1,5.1-7.4
		C2273.4,1605.9,2276.4,1605.9,2280,1605.9z M2269.7,1630.2c0-2.4,0-4.4,0-6.2c-9.1-1.6-10-1.1-12.4,6.2
		C2261.3,1630.2,2265.2,1630.2,2269.7,1630.2z"/>
	<path d="M2255.2,1642.3c13.8,0,27,0,40.6,0c0,8.9,0,17.7,0,27.1c-3.6-0.7-7.7,2.5-10.7-2.4c-0.4-0.6-2.2-0.4-3.3-0.4
		c-4,0-8-0.2-12,0.1c-1.8,0.1-3.4,1.7-5.2,2.1c-3,0.6-6.1,0.7-9.5,1.1C2255.2,1660.3,2255.2,1651.6,2255.2,1642.3z M2285.8,1651
		c-6.9,0-13.7,0-20.6,0c0,2.6,0,4.8,0,7.1c7,0,13.7,0,20.6,0C2285.8,1655.6,2285.8,1653.5,2285.8,1651z"/>
	<path d="M2176.9,1613.2c0.2-2.8,0.3-4.9,0.4-7.2c3.3,0,6.3,0,9.5,0c0.2,2.5,0.3,4.6,0.5,6.9c11.2,0,22.1,0,33.4,0
		c0,3.1,0,6.3,0,9.9c-25.5,0-51.2,0-77.1,0c0-3.4,0-6.3,0-9.6C2154.7,1613.2,2165.6,1613.2,2176.9,1613.2z"/>
	<path d="M2189.9,1709.4c0-2.4,0-3.8,0-5.6c7.8,0,15.3,0,24.2,0c-1.4,3.1-2.1,5.7-3.6,7.8c-3.9,5.1-8.2,10-13.1,15.9
		c5.7,0,10.6,0,15.6,0c0,2.3,0,3.9,0,5.7c-8.2,0-16.1,0-25.5,0c1.2-2.9,1.6-5.6,3.1-7.6c4-5.3,8.4-10.2,13.4-16.2
		C2198.8,1709.4,2194.6,1709.4,2189.9,1709.4z"/>
	<path d="M2324.2,1703.7c2.3,0,4.1,0,6,0c0,7.6,0.5,15-0.2,22.4c-0.4,5.1-5.3,7.8-11.7,7.9c-6.7,0.1-11.5-2.4-12.2-7.8
		c-1-7.2-0.8-14.5-1.2-22.2c2.5,0,4.4,0,7.1,0c0,3.7,0,7.6,0,11.6c0,11.4,0.8,13,6.2,13c5.3-0.1,5.9-1.5,5.9-13.3
		C2324.2,1711.4,2324.2,1707.6,2324.2,1703.7z"/>
	<path d="M2375.4,1651.2c3,2.5,5.6,4.6,8.5,7c-8.8,8.7-17.4,17-28.4,22.2c-1.4,0.7-3.9,0-5.4-0.9c-2-1.1-3.5-3-5.7-5.1
		C2357,1669.3,2366.9,1661.4,2375.4,1651.2z"/>
	<path d="M2346.6,1653.1c9-8,17.8-15.8,26.9-23.9c2.3,1.4,5.3,3.1,9,5.3c-7.5,6.7-14.3,13.5-21.8,19.2
		C2352,1660.5,2354.5,1660.1,2346.6,1653.1z"/>
	<path d="M2109.5,1703.6c2,0,3.4,0,5.4,0c0,4.8,0,9.6,0,15c4.8-2.5,6.8-9.3,13.7-6.3c-2.6,2.1-5.2,4.1-7.8,6.2
		c3.6,5.5,6.3,9.8,9.1,14.2c-8.6,3.6-8.7-5.4-13.8-9c-0.6,3.6-1,6.4-1.5,9.5c-1.6,0-3.2,0-5.1,0
		C2109.5,1723.4,2109.5,1713.7,2109.5,1703.6z"/>
	<path d="M2259.7,1732.8c-8.7,3-8.8-5.3-13.7-9.2c-0.6,3.5-1.1,6.4-1.7,9.6c-1.5,0.1-3.1,0.1-5,0.2c0-10,0-19.7,0-29.7
		c1.8,0,3.4,0,5.4,0c0,4.8,0,9.4,0,14.6c4.8-2.1,6.8-9.1,13.6-5.9c-2.3,2.4-4.4,4.6-7,7.4C2254,1723.9,2256.8,1728.3,2259.7,1732.8z
		"/>
	<path d="M2086.3,1703.7c0,1.7,0,3.3,0,5.2c-2.8,0.2-5.4,0.3-8.5,0.5c0,8,0,15.7,0,23.7c-2.4,0-4.2,0-6.4,0c0-7.7,0-15.5,0-23.6
		c-3.2-0.2-5.9-0.5-8.9-0.7c0-1.8,0-3.3,0-5.1C2070.5,1703.7,2078.2,1703.7,2086.3,1703.7z"/>
	<path d="M2280.7,1724.1c-4.7,0-9.5,0-14.3,0c0.7,5.1,3.5,6.5,7.5,4.4c1.8-1,3.9-1.6,6.6-2.7c-2.2,7-7,9.3-13.4,7.5
		c-5.3-1.5-8.2-7.4-6.9-13.8c1.2-5.6,6.3-9,12.4-8.1C2278.1,1712.2,2281.4,1717.2,2280.7,1724.1z M2265.7,1718.4
		c0.3,0.5,0.5,1,0.8,1.6c2.8,0,5.6,0,8.4,0c0.2-0.4,0.4-0.8,0.5-1.2c-1.6-1-3.2-2.8-4.8-2.9
		C2269,1715.8,2267.3,1717.5,2265.7,1718.4z"/>
	<path d="M2409.9,1724.2c-5,0-9.7,0-14.6,0c1,5.2,3.8,6.5,7.8,4.3c1.7-0.9,3.6-1.6,6-2.6c-1,6.2-4.7,8.5-11,7.8
		c-6.1-0.7-9.6-5.7-8.9-12.7c0.6-6.1,5.4-10,11.8-9.6C2406.8,1711.8,2410.2,1716.3,2409.9,1724.2z M2403.6,1720.2
		c0.3-0.5,0.6-1,1-1.4c-1.7-1-3.4-2.9-5.1-2.9c-1.5,0-3.1,2-4.6,3.2c0.3,0.4,0.6,0.8,0.8,1.2
		C2398.3,1720.2,2401,1720.2,2403.6,1720.2z"/>
	<path d="M2130.9,1711.6c10.8-0.4,6.8,9.6,11.6,13.4c1.1-3.2,2.3-6.3,3-9.4c0.9-3.8,2.9-4.9,7.3-3.2c-3.4,8.6-6.4,17.4-10.3,25.7
		c-0.8,1.7-5.2,1.9-7.9,2.3c-0.4,0.1-1.3-2.3-2-3.7c6.5-1.5,6.8-2,4.9-7.3C2135.4,1723.7,2133.2,1717.9,2130.9,1711.6z"/>
	<path d="M2486.1,1726.2c1.4-4.3,2.6-7.3,3.4-10.4c0.9-3.6,2.7-5.1,7.1-3.5c-1.1,3.3-2.3,6.6-3.5,9.9c-1.4,3.9-2.9,7.8-4.3,11.6
		c-2.5,6.5-3.6,7.2-11.3,6.5c-0.1-1.3-0.3-2.6-0.4-3.9c6-1.2,6.3-1.7,4.3-7.3c-2-5.6-4.1-11.1-6.3-17c4-1.2,6.5-0.9,7.5,3.6
		C2483.2,1718.9,2484.6,1721.9,2486.1,1726.2z"/>
	<path d="M2094.9,1711.3c6.7,0,11.3,4.6,11.2,11.3c0,6.8-4.6,11.2-11.4,11.1c-6.7-0.1-10.7-4.2-10.8-11
		C2083.9,1715.6,2088,1711.3,2094.9,1711.3z M2089.8,1722.5c0.2,3.3,0.7,6.7,4.9,6.8c4.3,0.1,5.4-3.1,5.4-6.8c0-3.7-1.2-6.9-5.4-6.8
		C2090.7,1715.8,2089.9,1719.1,2089.8,1722.5z"/>
	<path d="M2341.1,1733.1c-2.2,0-3.8,0-5.7,0c0-6.9,0-13.8,0-20.7c4.7-0.3,9.3-1,13.9-0.9c4.1,0.1,5.6,3.3,5.8,6.9
		c0.2,4.8,0.1,9.6,0.1,14.7c-2,0-3.7,0-5.9,0c0-4.2,0.4-8.4-0.2-12.5c-0.2-1.7-2.5-3.1-3.8-4.7c-1.4,1.5-3.7,2.9-4,4.6
		C2340.7,1724.5,2341.1,1728.7,2341.1,1733.1z"/>
	<path d="M2225.6,1711.3c6.9,0,11,4.4,10.9,11.4c-0.1,6.8-4.2,10.9-10.9,11c-6.8,0.1-11.3-4.5-11.3-11.2
		C2214.3,1715.9,2218.9,1711.3,2225.6,1711.3z M2230.6,1722.7c-0.2-3.5-0.8-7-5.2-7c-4,0-5.1,3.2-5.1,6.6c0,3.6,0.9,6.9,5.3,7
		C2229.7,1729.4,2230.4,1726,2230.6,1722.7z"/>
	<path d="M2165.2,1711.3c6.4,0.1,10.8,4.7,10.8,11.2c0,6.6-4.7,11.3-11.4,11.2c-6.8-0.1-11-4.5-10.9-11.5
		C2153.9,1715.3,2158.3,1711.2,2165.2,1711.3z M2170.2,1722.6c-0.3-3.6-1.2-7-5.5-6.9c-4.1,0.1-5,3.4-5,6.7c0,3.4,0.8,7,5.3,6.9
		C2169.1,1729.2,2169.8,1725.9,2170.2,1722.6z"/>
	<path d="M2358.9,1632.1c-3.9-2.8-6.3-4.5-8-5.7c6.8-6,13.4-12,20-17.9c-0.7-0.8-1.3-1.7-2-2.5c3,1.6,6,3.3,10.1,5.5
		C2372.1,1618.6,2365.5,1625.3,2358.9,1632.1z"/>
	<path d="M2220.9,1671.4c-1.7,2.7-3.6,5.6-6.2,9.9c-7.3-6.5-14.3-12.6-21.4-18.9c7.3-6,7.9-5.8,13.8-0.9
		C2211.4,1665,2216.2,1668,2220.9,1671.4z"/>
	<path d="M2429,1725.8c1.9,0.8,3.7,1.8,5.6,2.5c1.5,0.6,3,1.3,4.5,1.2c1,0,1.9-1.4,2.9-2.1c-0.7-0.8-1.3-2-2.2-2.3
		c-2.2-0.8-4.8-0.8-6.6-2c-1.9-1.2-4.1-3.4-4.2-5.3c0-1.9,2-4.6,3.8-5.6c5.9-3.1,12.2-0.6,14.7,6.2c-4.6-1.2-8.4-2.3-12.2-3.3
		c-0.3,0.8-0.6,1.6-0.9,2.3c1.6,0.8,3.2,1.8,5,2.4c3.7,1.2,8.8,1.3,8.5,6.6c-0.1,2.3-2.7,5.4-4.9,6.5c-4.6,2.3-11.3,0.4-13.6-3
		c-0.5-0.8-0.8-1.8-1.1-2.7C2428.5,1726.8,2428.7,1726.3,2429,1725.8z"/>
	<path d="M2162.6,1657.2c2.2,1,5.3,2.5,9.8,4.7c-7.9,6.6-15,12.6-22.5,18.9c-2.7-3.7-4.5-6.2-6.2-8.4
		C2149.8,1667.4,2155.9,1662.5,2162.6,1657.2z"/>
	<path d="M2367.8,1712.4c4.9-1.9,6.5,0.2,7.4,3.8c0.7,2.9,1.7,5.6,3.6,8.6c0.9-3,2.1-6,2.8-9c0.8-3.6,2.6-5.2,6.9-3.5
		c-2.2,6.5-4.2,13.1-6.6,19.5c-0.9,2.4-6.6,2.3-7.5-0.1C2372,1725.4,2370,1719,2367.8,1712.4z"/>
	<path d="M2463.8,1705.6c1.4,0,3,0,4.8,0c0.2,1.8,0.4,3.6,0.6,5.1c1.4,0.9,2.6,1.7,3.9,2.5c-1.1,0.9-2.1,1.7-3.2,2.6
		c-1.9,1.5-0.9,11.6,1.1,13c1.1,0.8,1.8,2.3,3,3.8c-9.2,1.9-11,0.5-11-7.6c0-2.2,0.1-4.3-0.1-6.5c-0.1-1-0.6-2.4-1.3-2.8
		c-3.4-1.7-3.8-2.6,0-4.5C2463,1710.8,2463.1,1707.8,2463.8,1705.6z"/>
	<path d="M2413.3,1711c2.5,0.9,4.3,1.5,6.8,2.3c1.3-0.5,3.6-1.5,6.3-2.5c0.7,3.3,1.6,5.6-2.5,6c-3.2,0.3-4.8,2.7-4.8,5.9
		c0,3.3,0,6.6,0,10.3c-2.1,0-3.8,0-5.7,0C2413.3,1726,2413.3,1719.1,2413.3,1711z"/>
	<path d="M2229.3,1613.7c6-8.4,9.5-7.9,17.7,2.8c-2.4,1.9-4.9,3.8-7.5,5.9c-1.2-1.1-2.9-2.9-4.7-4.5
		C2233,1616.4,2231.1,1615.1,2229.3,1613.7z"/>
	<path d="M2284.6,1711.9c1.9-0.1,3.4-0.2,5.3-0.2c0,7.2,0,14.1,0,21.4c-1.7,0-3.4,0-5.3,0
		C2284.6,1726.1,2284.6,1719.4,2284.6,1711.9z"/>
	<path d="M2359.4,1712.1c4-1.1,5.9-0.3,5.7,4c-0.3,5.6-0.1,11.2-0.1,17c-2.1,0-3.7,0-5.6,0
		C2359.4,1726.2,2359.4,1719.3,2359.4,1712.1z"/>
	<path d="M2456.5,1733.1c-1.8,0-3.4,0-5.2,0c0-7.1,0-14,0-21.2c1.8,0,3.4,0,5.2,0C2456.5,1719.1,2456.5,1726,2456.5,1733.1z"/>
	<path d="M2359.3,1708.2c0-1.7,0-2.9,0-4.4c1.8,0,3.4,0,5.3,0c0,1.5,0,2.8,0,4.4C2362.9,1708.2,2361.3,1708.2,2359.3,1708.2z"/>
	<path d="M2290,1703.4c0,1.9,0,3.1,0,4.7c-1.8,0-3.5,0-5.5,0c0-1.4,0-2.7,0-4.3C2286.2,1703.7,2287.8,1703.6,2290,1703.4z"/>
	<path d="M2457.5,1708.2c-2.8,0-4.2,0-6.1,0c-0.1-1.3-0.3-2.6-0.5-4.7c1.8,0,3.5-0.5,4.4,0.1
		C2456.3,1704.4,2456.6,1706.2,2457.5,1708.2z"/>
	<path class="st2" d="M1892.5,1613.7c4,0,8-0.3,11.9,0.1c1.9,0.2,4,1.4,5.4,2.8c13.9,13.7,27.7,27.5,41.5,41.3
		c1.2,1.2,2.4,2.3,3.8,3.6c1.4-1.3,2.7-2.5,4.1-3.8c-14.3-14.3-28.3-28.3-42.4-42.4c0.2-0.4,0.4-0.7,0.7-1.1c30.8,0,61.6,0,93.1,0
		c-1.3,1.5-2.3,2.7-3.4,3.8c-13.5,13.6-27.1,27.1-40.7,40.7c-4,4-7.5,9.2-15.3,6.7c20.4,20.4,40,40,59.6,59.5
		c-0.4,0.6-0.7,1.2-1.1,1.7c-7-0.5-14,2-20.4-5.2c-12.2-13.5-25.5-25.9-38.4-38.7c-1.2-1.2-2.4-2.2-3.8-3.6
		c-1.5,1.4-2.8,2.6-4.5,4.2c14.2,14.2,28.3,28.2,43.1,43c-31.8,0-62.5,0-93.9,0c0.9-1.1,1.3-1.7,1.9-2.3
		c15.7-15.7,31.2-31.5,47.2-46.9c2.2-2.1,6.1-2.4,9.4-3.7c-19.3-19.1-39.1-38.7-58.9-58.2
		C1891.8,1614.8,1892.1,1614.3,1892.5,1613.7z"/>
	<path class="st2" d="M1891.4,1623.6c15.8,15.8,31.1,31.2,45.9,46c-15.3,15.3-30.7,30.8-45.9,46
		C1891.4,1685.8,1891.4,1655,1891.4,1623.6z"/>
	<path class="st2" d="M1967.1,1672c14.2,0,28.9,0,43.9,0c0,14.9,0,29.6,0,43.5C1996.6,1701.2,1981.8,1686.6,1967.1,1672z"/>
	<path class="st2" d="M2011,1624.5c0,13.4,0,27.1,0,40.9c-13.9,0-27.6,0-40.7,0C1983.8,1651.8,1997.4,1638.1,2011,1624.5z"/>
	<path class="st2" d="M2112.1,1648.9c-2.3-0.9-4.4-1.7-6.5-2.4c2.1-0.6,4.3-1.7,6.4-1.7c2.4,0.1,4.8,1.2,7.1,1.8
		C2116.8,1647.4,2114.6,1648.1,2112.1,1648.9z"/>
	<path class="st2" d="M2089.3,1643.9c2.3,1,4.3,1.8,6.3,2.7c-2.2,0.6-4.4,1.6-6.5,1.5c-2.3,0-4.5-1.1-6.8-1.7
		C2084.5,1645.6,2086.8,1644.8,2089.3,1643.9z"/>
	<path class="st2" d="M2104.5,1634c5.1,0,9-0.1,12.9,0.1c0.5,0,1.4,2.2,1.2,2.6C2117.4,1638.4,2107.2,1637.1,2104.5,1634z"/>
	<path class="st2" d="M2095.9,1635.6c-0.8,0.6-1.7,1.6-2.5,1.7c-2.8,0.2-5.7,0.2-8.5,0c-0.9-0.1-1.8-1-2.6-1.5
		c0.8-0.6,1.6-1.7,2.4-1.7c3.6-0.2,7.2-0.1,10.7-0.1C2095.6,1634.5,2095.8,1635,2095.9,1635.6z"/>
	<path class="st2" d="M2327.1,1617.7c2.1,0,3.8,0,5.9,0c0,4.6,0,9.1,0,14c-1.9,0-3.7,0-5.9,0
		C2327.1,1627,2327.1,1622.5,2327.1,1617.7z"/>
	<path class="st2" d="M2200,1636c0,2.7,0,5.3,0,8.2c-11.8,0-23.5,0-35.5,0c0-2.7,0-5.3,0-8.2C2176.3,1636,2188,1636,2200,1636z"/>
	<path class="st2" d="M2269.7,1630.2c-4.5,0-8.4,0-12.4,0c2.4-7.4,3.3-7.8,12.4-6.2C2269.7,1625.8,2269.7,1627.7,2269.7,1630.2z"/>
	<path class="st2" d="M2285.8,1651c0,2.6,0,4.7,0,7.1c-6.9,0-13.6,0-20.6,0c0-2.3,0-4.6,0-7.1C2272.1,1651,2278.9,1651,2285.8,1651z
		"/>
	<path class="st2" d="M2265.7,1718.4c1.6-0.9,3.3-2.6,4.9-2.6c1.6,0.1,3.2,1.8,4.8,2.9c-0.2,0.4-0.4,0.8-0.5,1.2c-2.8,0-5.6,0-8.4,0
		C2266.2,1719.4,2265.9,1718.9,2265.7,1718.4z"/>
	<path class="st2" d="M2403.6,1720.2c-2.6,0-5.3,0-7.9,0c-0.3-0.4-0.6-0.8-0.8-1.2c1.5-1.1,3.1-3.2,4.6-3.2c1.7,0,3.4,1.8,5.1,2.9
		C2404.2,1719.2,2403.9,1719.7,2403.6,1720.2z"/>
	<path class="st2" d="M2089.8,1722.5c0.1-3.4,0.8-6.7,4.9-6.8c4.3-0.1,5.4,3.1,5.4,6.8c0,3.6-1.1,6.9-5.4,6.8
		C2090.5,1729.2,2090,1725.9,2089.8,1722.5z"/>
	<path class="st2" d="M2230.6,1722.7c-0.3,3.3-0.9,6.7-5.1,6.6c-4.3-0.1-5.3-3.4-5.3-7c0-3.4,1.2-6.6,5.1-6.6
		C2229.8,1715.7,2230.5,1719.2,2230.6,1722.7z"/>
	<path class="st2" d="M2170.2,1722.6c-0.4,3.3-1.1,6.5-5.2,6.7c-4.5,0.1-5.3-3.4-5.3-6.9c0-3.3,0.9-6.7,5-6.7
		C2169,1715.7,2169.9,1719.1,2170.2,1722.6z"/>
	<g>
		<g>
			<defs>
				<rect id="SVGID_00000163044036487893202440000013694683341396997558_" x="1762.3" y="2729" width="1460.4" height="480.1"/>
			</defs>
			<clipPath id="SVGID_00000109748440626854122530000013358164648494913179_">
				<use xlink:href="#SVGID_00000163044036487893202440000013694683341396997558_"  style="overflow:visible;"/>
			</clipPath>
			<g style="clip-path:url(#SVGID_00000109748440626854122530000013358164648494913179_);">
				
					<linearGradient id="SVGID_00000119114852604953438290000002698802753372907965_" gradientUnits="userSpaceOnUse" x1="2025.1862" y1="-1668.016" x2="3222.6409" y2="-1668.016" gradientTransform="matrix(1 0 0 -1 0 1233.8899)">
					<stop  offset="0" style="stop-color:#BCDCAA"/>
					<stop  offset="1" style="stop-color:#68C1AB"/>
				</linearGradient>
				<path style="fill:url(#SVGID_00000119114852604953438290000002698802753372907965_);" d="M2025.2,2729
					c100.5,140.8,202.9,146.5,335.6,104.1c177.7-56.9,221.1-45.8,301.7,50.5c118.8,149.5,173.2,264.4,412.5,135.8
					c22.3-11.3,135.7-9.8,147.6-23.3v-267.3H2025.2V2729z"/>
				
					<linearGradient id="SVGID_00000065783959837247479100000009876798650761534603_" gradientUnits="userSpaceOnUse" x1="2025.1862" y1="-1559.4373" x2="2368.1667" y2="-1559.4373" gradientTransform="matrix(1 0 0 -1 0 1233.8899)">
					<stop  offset="0" style="stop-color:#C0DEAA"/>
					<stop  offset="1" style="stop-color:#ABD6A4"/>
				</linearGradient>
				<path style="fill:url(#SVGID_00000065783959837247479100000009876798650761534603_);" d="M2360.9,2832c0.3,0.3,0.6,0.4,0.9,0.7
					c-0.4,0.1-0.7,0.3-1.1,0.3c-172.7,47.2-223.4,33.9-335.6-104.1h183.7C2265.2,2732.5,2288.6,2776.4,2360.9,2832z"/>
				
					<linearGradient id="SVGID_00000066517726028679008570000017207224729950940312_" gradientUnits="userSpaceOnUse" x1="2662.6218" y1="-1721.5593" x2="3082.6838" y2="-1750.933" gradientTransform="matrix(1 0 0 -1 0 1233.8899)">
					<stop  offset="0" style="stop-color:#90CCA0"/>
					<stop  offset="0.5299" style="stop-color:#7EC6A0"/>
					<stop  offset="0.9863" style="stop-color:#6EC2A3"/>
				</linearGradient>
				<path style="fill:url(#SVGID_00000066517726028679008570000017207224729950940312_);" d="M2659.9,2880.5c0.9,1,1.7,2.1,2.6,3.1
					c110.4,115.8,145.6,276.6,411.3,136.4c-21-19.6-39.5-39.8-54.1-54.8C2926,2869.8,2888.3,2842.7,2659.9,2880.5z"/>
				
					<linearGradient id="SVGID_00000165231680163001562900000017495584113733779358_" gradientUnits="userSpaceOnUse" x1="2361.8574" y1="-1617.1843" x2="2665.5396" y2="-1617.1843" gradientTransform="matrix(1 0 0 -1 0 1233.8899)">
					<stop  offset="0" style="stop-color:#9BCE92"/>
					<stop  offset="0.5036" style="stop-color:#97CD99"/>
					<stop  offset="1" style="stop-color:#91CCA0"/>
				</linearGradient>
				<path style="fill:url(#SVGID_00000165231680163001562900000017495584113733779358_);" d="M2361.9,2832.7
					c50.8,38.4,103,92.1,297.2,47.9c0.3,0,0.5-0.1,0.8-0.1C2582.7,2806,2533.5,2779.7,2361.9,2832.7z"/>
				
					<linearGradient id="SVGID_00000137128551038870777360000007003313231751175349_" gradientUnits="userSpaceOnUse" x1="2025.2131" y1="-1640.6185" x2="3222.7197" y2="-1640.6185" gradientTransform="matrix(1 0 0 -1 0 1233.8899)">
					<stop  offset="0" style="stop-color:#BCDCAA"/>
					<stop  offset="1" style="stop-color:#68C1AB"/>
				</linearGradient>
				<path style="fill:url(#SVGID_00000137128551038870777360000007003313231751175349_);" d="M3222.7,2996.2V2729H2208.9
					c56.2,3.5,79.6,47.3,152,103.1c0.3,0.3,0.6,0.4,0.9,0.7c175.1-55.7,218.4-45.6,298.1,47.7c262.8-55.9,261.9-15.6,359.9,84.9
					c14.6,15,33.1,35.1,54.1,54.8c0.5-0.1,0.8-0.4,1.2-0.6C3097.4,3008.2,3210.8,3009.6,3222.7,2996.2z"/>
				
					<linearGradient id="SVGID_00000026151049816213960690000000638832085258812816_" gradientUnits="userSpaceOnUse" x1="2200.9651" y1="-1640.6185" x2="3138.4004" y2="-1640.6185" gradientTransform="matrix(1 0 0 -1 0 1233.8899)">
					<stop  offset="5.580357e-04" style="stop-color:#BBDDB2"/>
					<stop  offset="0.4908" style="stop-color:#A5D5B2"/>
					<stop  offset="1" style="stop-color:#8FCEB8"/>
				</linearGradient>
				<path style="fill:url(#SVGID_00000026151049816213960690000000638832085258812816_);" d="M3222.7,2939.3V2729H2208.9
					c56.2,3.5,79.6,47.3,152,103.1c0.3,0.3,0.6,0.4,0.9,0.7c151.1-40.3,209.7-41.4,298.1,47.7c213-46.7,268.1-9.1,359.9,84.9
					c14.6,15,33.1,35.1,54.1,54.8c0.5-0.1,0.8-0.4,1.2-0.6C3097.4,3008.2,3210.8,2952.7,3222.7,2939.3z"/>
				
					<linearGradient id="SVGID_00000142873858461990140090000009691040780668767117_" gradientUnits="userSpaceOnUse" x1="3069.7026" y1="-1770.8921" x2="3543.22" y2="-1770.8921" gradientTransform="matrix(1 0 0 -1 0 1233.8899)">
					<stop  offset="5.580357e-04" style="stop-color:#85CAB0"/>
					<stop  offset="0.4908" style="stop-color:#85CAB3"/>
					<stop  offset="1" style="stop-color:#8FCEB8"/>
				</linearGradient>
				<path style="fill:url(#SVGID_00000142873858461990140090000009691040780668767117_);" d="M3075.1,3019.5
					c-0.5,0.1-0.8,0.4-1.2,0.6c14.1,13.3,74.8,72.1,148.9,67.9v-166.6C3210.8,2934.8,3097.4,3008.2,3075.1,3019.5z"/>
				<polygon class="st55" points="3222.7,2729 3222.7,2729 3222.7,2996.2 3222.7,2996.2 				"/>
			</g>
		</g>
	</g>
	<g>
		<g>
			<defs>
				<rect id="SVGID_00000016793216202762290470000011104428200019495869_" x="1635.3" y="3516.6" width="1428.7" height="437.8"/>
			</defs>
			<clipPath id="SVGID_00000043456030215283142200000007848589709344661914_">
				<use xlink:href="#SVGID_00000016793216202762290470000011104428200019495869_"  style="overflow:visible;"/>
			</clipPath>
			<g style="clip-path:url(#SVGID_00000043456030215283142200000007848589709344661914_);">
				
					<linearGradient id="SVGID_00000027563616936039889300000001062484473072812729_" gradientUnits="userSpaceOnUse" x1="2247.614" y1="-2619.7126" x2="2843.6565" y2="-2619.7126" gradientTransform="matrix(1 0 0 -1 0 1233.8899)">
					<stop  offset="0" style="stop-color:#85C8A5"/>
					<stop  offset="0.5212" style="stop-color:#77C5A8"/>
					<stop  offset="1" style="stop-color:#68C1AD"/>
				</linearGradient>
				<path style="fill:url(#SVGID_00000027563616936039889300000001062484473072812729_);" d="M2809.8,3925.1
					c-131.6-25.4-179.7-237.6-550-94.7c-0.1,0-0.2,0.1-0.3,0.1c7.3,5.9,14.8,11.7,22.7,17.2
					C2404.7,3934.3,2652.7,3926.3,2809.8,3925.1z"/>
				
					<linearGradient id="SVGID_00000031930097365799929380000006131954670956715443_" gradientUnits="userSpaceOnUse" x1="1721.3262" y1="-2547.2244" x2="2268.6807" y2="-2547.2244" gradientTransform="matrix(1 0 0 -1 0 1233.8899)">
					<stop  offset="5.580357e-04" style="stop-color:#AFD7A3"/>
					<stop  offset="0.4493" style="stop-color:#9CD0A3"/>
					<stop  offset="1" style="stop-color:#86C9A3"/>
				</linearGradient>
				<path style="fill:url(#SVGID_00000031930097365799929380000006131954670956715443_);" d="M2259.4,3830.6
					c-55.3-32.2-112.2-159.7-247.6-165c-112.9-7.3-188.3,19-289.5,13.9C1807.6,4003.7,2121.3,3886.7,2259.4,3830.6z"/>
				
					<linearGradient id="SVGID_00000042737200462861270190000002302524734610163339_" gradientUnits="userSpaceOnUse" x1="1587.8391" y1="-2365.6428" x2="1727.0536" y2="-2365.6428" gradientTransform="matrix(1 0 0 -1 0 1233.8899)">
					<stop  offset="0.2408" style="stop-color:#BDDDAA"/>
					<stop  offset="1" style="stop-color:#B6DAA9"/>
				</linearGradient>
				<path style="fill:url(#SVGID_00000042737200462861270190000002302524734610163339_);" d="M1722.2,3679.5L1722.2,3679.5
					c-0.1-0.6-0.4-1.2-0.6-1.8c-29.7-84.6-36.9-110.4-86.3-160.4v147.1C1676.9,3679.7,1691.7,3685.3,1722.2,3679.5z"/>
				
					<linearGradient id="SVGID_00000087403015053284863600000010846663834816791434_" gradientUnits="userSpaceOnUse" x1="1547.1484" y1="-2583.1506" x2="2757.9504" y2="-2583.1506" gradientTransform="matrix(1 0 0 -1 0 1233.8899)">
					<stop  offset="5.580357e-04" style="stop-color:#B1D8AC"/>
					<stop  offset="1" style="stop-color:#91CEB8"/>
				</linearGradient>
				<path style="fill:url(#SVGID_00000087403015053284863600000010846663834816791434_);" d="M2809.8,3925.1
					c-157.2,1.2-405.1,9.2-527.7-77.2c-7.9-5.5-15.3-11.3-22.7-17.2c-198.7,78-452.7,146.1-537.1-151.1c0,0,0,0-0.1,0
					c-27.9-1.4-45.3,63.8-86.9,48.6v226.2h1231.6C2849,3952.3,2830.5,3940.8,2809.8,3925.1z"/>
				
					<linearGradient id="SVGID_00000008830169018250261870000015548715322402368434_" gradientUnits="userSpaceOnUse" x1="1500.5741" y1="-2566.4897" x2="2880.3684" y2="-2614.6731" gradientTransform="matrix(1 0 0 -1 0 1233.8899)">
					<stop  offset="8.820558e-02" style="stop-color:#CEE6C9"/>
					<stop  offset="0.3376" style="stop-color:#BADEC1"/>
					<stop  offset="0.6387" style="stop-color:#9AD1B5"/>
					<stop  offset="0.8152" style="stop-color:#87CBB3"/>
					<stop  offset="1" style="stop-color:#6CC3B3"/>
				</linearGradient>
				<path style="fill:url(#SVGID_00000008830169018250261870000015548715322402368434_);" d="M2809.8,3925.1
					c-157.2,1.2-405.1,9.2-527.7-77.2c-7.9-5.5-15.3-11.3-22.7-17.2c-196.6,77.1-453.6,145.2-537.1-151.1c0,0,0,0-0.1,0
					c-33.9,0.7-54.4-5.5-86.9-23.9v298.8h1231.6C2849,3952.3,2830.5,3940.8,2809.8,3925.1z"/>
				
					<linearGradient id="SVGID_00000010302717728251365780000007513677026427344001_" gradientUnits="userSpaceOnUse" x1="2805.2651" y1="-2705.8442" x2="3064.7" y2="-2705.8442" gradientTransform="matrix(1 0 0 -1 0 1233.8899)">
					<stop  offset="5.580357e-04" style="stop-color:#63C0AE"/>
					<stop  offset="1" style="stop-color:#5BBEB2"/>
				</linearGradient>
				<path style="fill:url(#SVGID_00000010302717728251365780000007513677026427344001_);" d="M2810.7,3925.1c-0.3,0-0.7,0-1,0
					c20.7,15.7,39.2,27.2,57,29.2h185.8c-24.1-19.5-92.6-15.2-146.5-17.5C2867.1,3935.2,2841.2,3932.6,2810.7,3925.1z"/>
			</g>
		</g>
	</g>
</g>
</svg>
